<?xml version="1.0" standalone="no"?>
<!DOCTYPE svg PUBLIC "-//W3C//DTD SVG 1.1//EN" "http://www.w3.org/Graphics/SVG/1.1/DTD/svg11.dtd" >
<svg xmlns="http://www.w3.org/2000/svg" xmlns:xlink="http://www.w3.org/1999/xlink" version="1.1">
<metadata>
Created by FontForge 20170910 at Sat Jul 21 02:44:49 2012
 By Jimmy Wärting
Copyright (c) 2012 by . All rights reserved.
</metadata>
<defs>
<font id="GTPressuraMono-Bold" horiz-adv-x="550" >
  <font-face 
    font-family="GT Pressura Mono"
    font-weight="700"
    font-stretch="normal"
    units-per-em="1000"
    panose-1="2 0 8 6 0 0 0 2 0 4"
    ascent="800"
    descent="-200"
    x-height="500"
    cap-height="700"
    bbox="-268.128 -305 634 1080"
    underline-thickness="50"
    underline-position="-100"
    stemh="140"
    stemv="130"
    unicode-range="U+0020-FB02"
  />
<missing-glyph 
d="M184 120c-36 0 -16 -57 -68 -57c-28 0 -52 21 -52 45c0 48 42 37 42 97c0 23 -13 38 -28 38c-16 0 -15 -7 -30 -7c-20 0 -30 26 -30 52c0 18 14 39 33 39c13 0 17 -11 27 -11c20 0 27 27 27 40c0 16 -10 33 -10 49c0 26 18 37 40 37c6 0 9 3 9 8c0 7 -8 14 -8 24
c0 7 9 14 16 14c21 0 24 -35 42 -35c32 0 4 55 49 55c42 0 34 -48 72 -48c28 0 35 15 35 48c0 37 23 53 53 53c29 0 47 -19 47 -48c0 -43 -48 -47 -48 -69c0 -38 78 -32 78 -96c0 -38 -32 -38 -32 -72c0 -13 11 -26 44 -26c29 0 40 -20 40 -45c0 -29 -23 -52 -52 -52
c-31 0 -38 50 -72 50c-14 0 -25 -8 -25 -21c0 -22 20 -17 20 -49c0 -17 -11 -33 -35 -33s-44 30 -80 30c-12 0 -26 -8 -26 -31c0 -16 -9 -27 -24 -27c-25 0 -10 48 -54 48zM298 340c0 -22 18 -40 40 -40s43 18 43 40s-21 47 -43 47s-40 -25 -40 -47zM281 226
c-19 0 -35 8 -48 20c-6 5 -10 0 -5 -7c10 -16 25 -29 53 -29c26 0 38 19 44 34c3 6 -4 9 -6 4c-9 -16 -22 -22 -38 -22zM214 335c0 12 6 21 14 21s14 -9 14 -21s-6 -21 -14 -21s-14 9 -14 21zM310 340c0 12 6 21 14 21s14 -9 14 -21s-6 -21 -14 -21s-14 9 -14 21zM178 340
c0 -28 14 -50 36 -50s40 22 40 50s-18 50 -40 50s-36 -22 -36 -50zM85 520c0 19 13 34 29 34c13 0 24 -15 24 -34s-11 -34 -24 -34c-16 0 -29 15 -29 34z" />
    <glyph glyph-name="IJ" unicode="IJ" 
d="M284 0h-239c-11 0 -20 9 -20 20v95c0 11 9 20 20 20h40c6 0 10 4 10 10v410c0 6 -4 10 -10 10h-30c-11 0 -20 9 -20 20v95c0 11 9 20 20 20h220c11 0 20 -9 20 -20v-95c0 -11 -9 -20 -20 -20h-30c-6 0 -10 -4 -10 -10v-410c0 -6 4 -10 10 -10h39c54 0 90 35 90 91v454
c0 11 9 20 20 20h101c11 0 20 -9 20 -20v-458c0 -122 -91 -222 -231 -222z" />
    <glyph glyph-name="ij" unicode="ij" 
d="M291 -210h-42c-11 0 -20 9 -20 20v90c0 11 9 20 20 20h42c33 0 60 17 60 50v401c0 6 -4 10 -10 10h-90v-365c0 -9 -7 -16 -16 -16h-98c-9 0 -16 7 -16 16v347c0 6 -4 10 -10 10h-60c-11 0 -20 9 -20 20v87c0 11 9 20 20 20h414c9 0 16 -8 16 -16v-516
c0 -104 -86 -178 -190 -178zM487 694v-108c0 -9 -7 -16 -16 -16h-108c-9 0 -16 7 -16 16v108c0 8 7 16 16 16h108c9 0 16 -8 16 -16zM257 694v-108c0 -9 -7 -16 -16 -16h-108c-9 0 -16 7 -16 16v108c0 8 7 16 16 16h108c9 0 16 -8 16 -16z" />
    <glyph glyph-name="napostrophe" unicode="&#x22;n" 
d="M185 476c29 0 50 35 110 35c105 0 185 -81 185 -186v-305c0 -11 -9 -20 -20 -20h-90c-11 0 -20 9 -20 20v306c0 33 -27 59 -75 59c-47 0 -75 -25 -75 -55v-310c0 -11 -9 -20 -20 -20h-90c-11 0 -20 9 -20 20v460c0 11 9 20 20 20h50c12 0 18 -6 23 -12
c6 -6 11 -12 22 -12zM-7 560h-24c-11 0 -20 9 -20 20v100c0 11 9 20 20 20h100c11 0 20 -9 20 -20v-97c0 -26 -10 -51 -22 -69l-34 -54c-6 -9 -14 -20 -34 -20h-10c-20 0 -30 20 -21 38l34 69c4 7 -3 13 -9 13z" />
    <glyph glyph-name="fi" unicode="fi" 
d="M371 20v347c0 5 -3 10 -8 10h-112c-6 0 -10 -4 -10 -10v-347c0 -11 -9 -20 -20 -20h-90c-11 0 -20 9 -20 20v347c0 6 -4 10 -10 10h-50c-11 0 -20 9 -20 20v80c0 11 9 20 20 20h50c6 0 10 4 10 10v20c0 104 86 183 190 183h186c11 0 20 -9 20 -20v-90
c0 -11 -9 -20 -20 -20h-186c-33 0 -60 -22 -60 -55v-18c0 -6 4 -10 10 -10h234c9 0 16 -8 16 -16v-461c0 -11 -9 -20 -20 -20h-90c-11 0 -20 9 -20 20z" />
    <glyph glyph-name="fl" unicode="fl" 
d="M350 377h-120c-6 0 -10 -4 -10 -10v-347c0 -11 -9 -20 -20 -20h-90c-11 0 -20 9 -20 20v347c0 6 -4 10 -10 10h-40c-11 0 -20 9 -20 20v80c0 11 9 20 20 20h40c6 0 10 4 10 10v20c0 104 86 183 190 183c11 0 20 -9 20 -20v-90c0 -11 -9 -20 -20 -20
c-33 0 -60 -22 -60 -55v-18c0 -6 4 -10 10 -10h120c6 0 10 4 10 10v179c0 11 9 20 20 20h80c11 0 20 -9 20 -20v-666c0 -11 -9 -20 -20 -20h-80c-11 0 -20 9 -20 20v347c0 6 -4 10 -10 10z" />
    <glyph glyph-name=".notdef" 
d="M184 120c-36 0 -16 -57 -68 -57c-28 0 -52 21 -52 45c0 48 42 37 42 97c0 23 -13 38 -28 38c-16 0 -15 -7 -30 -7c-20 0 -30 26 -30 52c0 18 14 39 33 39c13 0 17 -11 27 -11c20 0 27 27 27 40c0 16 -10 33 -10 49c0 26 18 37 40 37c6 0 9 3 9 8c0 7 -8 14 -8 24
c0 7 9 14 16 14c21 0 24 -35 42 -35c32 0 4 55 49 55c42 0 34 -48 72 -48c28 0 35 15 35 48c0 37 23 53 53 53c29 0 47 -19 47 -48c0 -43 -48 -47 -48 -69c0 -38 78 -32 78 -96c0 -38 -32 -38 -32 -72c0 -13 11 -26 44 -26c29 0 40 -20 40 -45c0 -29 -23 -52 -52 -52
c-31 0 -38 50 -72 50c-14 0 -25 -8 -25 -21c0 -22 20 -17 20 -49c0 -17 -11 -33 -35 -33s-44 30 -80 30c-12 0 -26 -8 -26 -31c0 -16 -9 -27 -24 -27c-25 0 -10 48 -54 48zM298 340c0 -22 18 -40 40 -40s43 18 43 40s-21 47 -43 47s-40 -25 -40 -47zM281 226
c-19 0 -35 8 -48 20c-6 5 -10 0 -5 -7c10 -16 25 -29 53 -29c26 0 38 19 44 34c3 6 -4 9 -6 4c-9 -16 -22 -22 -38 -22zM214 335c0 12 6 21 14 21s14 -9 14 -21s-6 -21 -14 -21s-14 9 -14 21zM310 340c0 12 6 21 14 21s14 -9 14 -21s-6 -21 -14 -21s-14 9 -14 21zM178 340
c0 -28 14 -50 36 -50s40 22 40 50s-18 50 -40 50s-36 -22 -36 -50zM85 520c0 19 13 34 29 34c13 0 24 -15 24 -34s-11 -34 -24 -34c-16 0 -29 15 -29 34z" />
    <glyph glyph-name="space" unicode=" " 
 />
    <glyph glyph-name="n" unicode="n" 
d="M185 476c29 0 50 35 110 35c105 0 185 -81 185 -186v-305c0 -11 -9 -20 -20 -20h-90c-11 0 -20 9 -20 20v306c0 33 -27 59 -75 59c-47 0 -75 -25 -75 -55v-310c0 -11 -9 -20 -20 -20h-90c-11 0 -20 9 -20 20v460c0 11 9 20 20 20h50c12 0 18 -6 23 -12
c6 -6 11 -12 22 -12z" />
    <glyph glyph-name="a" unicode="a" 
d="M348 204h-106c-43 0 -51 -35 -51 -50c0 -37 30 -53 66 -53c57 0 101 17 101 69v24c0 6 -4 10 -10 10zM276 397c-21 0 -69 -6 -69 -38c0 -17 -9 -19 -27 -19h-72c-11 0 -20 9 -20 20c0 79 73 151 193 151c121 0 200 -65 200 -181v-310c0 -11 -9 -20 -20 -20h-50
c-6 0 -10 2 -14 7c-6 8 -7 20 -20 20c-18 0 -46 -38 -120 -38c-116 0 -188 60 -188 165c0 69 57 156 172 156h102c6 0 10 4 10 10v16c0 41 -33 61 -77 61z" />
    <glyph glyph-name="c" unicode="c" 
d="M279 119c44 0 71 16 79 70c2 11 10 16 19 16h89c11 0 17 -9 17 -20c0 -122 -94 -196 -204 -196c-123 0 -195 81 -208 186c-5 40 -5 110 0 150c13 105 85 186 208 186c110 0 204 -72 204 -196c0 -11 -6 -20 -17 -20h-89c-9 0 -18 5 -19 16c-3 49 -34 70 -80 70
c-50 0 -72 -18 -77 -56c-5 -40 -5 -110 0 -150c4 -35 27 -56 78 -56z" />
    <glyph glyph-name="d" unicode="d" 
d="M266 115c49 0 73 25 76 60c3 40 3 110 0 150c-3 38 -27 60 -76 60c-48 0 -73 -27 -75 -60c-3 -40 -3 -110 0 -150c2 -33 27 -60 75 -60zM251 -11c-105 0 -182 81 -190 186c-3 40 -3 110 0 150c8 105 85 186 190 186c30 0 46 -6 60 -12c15 -6 30 -1 30 21v170
c0 11 9 20 20 20h90c11 0 20 -9 20 -20v-670c0 -11 -9 -20 -20 -20h-50c-6 0 -10 3 -14 7c-6 7 -15 16 -25 16c-29 0 -37 -34 -111 -34z" />
    <glyph glyph-name="p" unicode="p" 
d="M283 385c-49 0 -73 -25 -76 -60c-3 -40 -3 -110 0 -150c3 -38 27 -60 76 -60c48 0 73 27 75 60c3 40 3 110 0 150c-2 33 -27 60 -75 60zM298 511c105 0 182 -81 190 -186c3 -40 3 -110 0 -150c-8 -105 -85 -186 -190 -186c-30 0 -46 6 -60 12c-15 6 -30 1 -30 -21v-160
c0 -11 -9 -20 -20 -20h-90c-11 0 -20 9 -20 20v660c0 11 9 20 20 20h50c6 0 10 -3 14 -7c6 -7 15 -16 25 -16c29 0 37 34 111 34z" />
    <glyph glyph-name="e" unicode="e" 
d="M190 195c0 -55 40 -85 88 -85c39 0 66 10 79 42c5 13 14 17 23 17h83c10 0 21 -6 17 -22c-23 -93 -91 -158 -202 -158c-122 0 -194 81 -207 186c-5 40 -5 110 0 150c13 105 85 186 207 186c120 0 204 -71 204 -198v-83c0 -11 -9 -20 -20 -20h-257c-9 0 -15 -6 -15 -15z
M191 330c0 -6 4 -9 10 -9h152c6 0 10 3 10 9c0 43 -42 63 -85 63c-57 0 -87 -25 -87 -63z" />
    <glyph glyph-name="H" unicode="H" 
d="M189 680v-250c0 -6 4 -10 10 -10h152c6 0 10 4 10 10v250c0 11 9 20 20 20h100c11 0 20 -9 20 -20v-660c0 -11 -9 -20 -20 -20h-100c-11 0 -20 9 -20 20v250c0 6 -4 10 -10 10h-152c-6 0 -10 -4 -10 -10v-250c0 -11 -14 -20 -25 -20h-95c-11 0 -20 9 -20 20v660
c0 11 9 20 20 20h100c11 0 20 -9 20 -20z" />
    <glyph glyph-name="N" unicode="N" 
d="M500 680v-660c0 -11 -9 -20 -20 -20h-118c-17 0 -24 9 -27 17l-136 351c-2 6 -9 4 -9 -2v-346c0 -11 -9 -20 -20 -20h-100c-11 0 -20 9 -20 20v660c0 11 9 20 20 20h119c15 0 22 -9 25 -18l137 -380c2 -6 9 -4 9 2v376c0 11 9 20 20 20h100c11 0 20 -9 20 -20z" />
    <glyph glyph-name="S" unicode="S" 
d="M371 208c0 43 -29 63 -104 80c-125 28 -224 83 -224 212c0 118 97 211 229 211c134 0 230 -93 230 -211v-15c0 -11 -9 -20 -20 -20h-101c-11 0 -20 9 -20 20v15c0 40 -32 75 -89 75c-56 0 -87 -30 -87 -70c0 -38 37 -62 89 -72c139 -28 242 -86 242 -225
c0 -130 -102 -219 -244 -219c-138 0 -238 97 -238 219v30c0 11 9 20 20 20h101c11 0 20 -9 20 -20v-30c0 -46 35 -82 97 -82c60 0 99 35 99 82z" />
    <glyph glyph-name="eight" unicode="8" 
d="M275 122c58 0 96 35 96 86s-38 90 -96 90s-96 -39 -96 -90s38 -86 96 -86zM275 420c50 0 86 36 86 81c0 44 -36 77 -86 77c-49 0 -86 -33 -86 -77c0 -45 37 -81 86 -81zM275 711c123 0 218 -93 218 -210c0 -49 -15 -94 -44 -129c-7 -8 -8 -14 0 -22
c36 -36 54 -87 54 -142c0 -123 -100 -219 -228 -219s-228 96 -228 219c0 55 20 103 53 142c7 8 6 13 -1 22c-28 36 -43 80 -43 129c0 117 97 210 219 210z" />
    <glyph glyph-name="O" unicode="O" 
d="M275 570c-61 0 -92 -36 -97 -80c-10 -84 -10 -196 0 -280c5 -44 36 -80 97 -80s92 36 97 80c10 84 10 196 0 280c-5 44 -36 80 -97 80zM275 711c138 0 224 -101 238 -221c10 -84 10 -196 0 -280c-14 -120 -100 -221 -238 -221s-224 101 -238 221c-10 84 -10 196 0 280
c14 120 100 221 238 221z" />
    <glyph glyph-name="B" unicode="B" 
d="M446 370c-6 -6 -6 -13 0 -18c33 -28 59 -85 59 -136c0 -131 -82 -216 -205 -216h-236c-11 0 -20 9 -20 20v660c0 11 9 20 20 20h236c112 0 197 -91 197 -204c0 -44 -22 -97 -51 -126zM295 560h-104c-6 0 -10 -4 -10 -10v-109c0 -6 4 -10 10 -10h104c35 0 66 30 66 65
s-31 64 -66 64zM191 140h104c43 0 70 36 70 76c0 39 -28 75 -70 75h-104c-6 0 -10 -4 -10 -10v-131c0 -6 4 -10 10 -10z" />
    <glyph glyph-name="C" unicode="C" 
d="M279 130c57 0 94 36 98 88c1 11 9 20 20 20h100c11 0 20 -9 20 -20c0 -134 -100 -229 -238 -229s-224 101 -238 221c-10 84 -10 196 0 280c14 120 100 221 238 221s238 -95 238 -229c0 -11 -9 -20 -20 -20h-100c-11 0 -19 9 -20 20c-4 52 -41 88 -98 88
c-61 0 -92 -36 -97 -80c-10 -84 -10 -196 0 -280c5 -44 36 -80 97 -80z" />
    <glyph glyph-name="D" unicode="D" 
d="M274 0h-210c-11 0 -20 9 -20 20v660c0 11 9 20 20 20h210c123 0 209 -101 223 -221c10 -84 10 -174 0 -258c-14 -120 -100 -221 -223 -221zM194 140h80c46 0 77 37 82 81c10 84 10 174 0 258c-5 44 -36 81 -82 81h-80c-6 0 -10 -4 -10 -10v-400c0 -6 4 -10 10 -10z" />
    <glyph glyph-name="E" unicode="E" 
d="M211 550v-120c0 -6 4 -10 10 -10h225c11 0 20 -9 20 -20v-100c0 -11 -9 -20 -20 -20h-225c-6 0 -10 -4 -10 -10v-120c0 -6 4 -10 10 -10h237c11 0 20 -9 20 -20v-100c0 -11 -9 -20 -20 -20h-367c-11 0 -20 9 -20 20v660c0 11 9 20 20 20h363c11 0 20 -9 20 -20v-100
c0 -11 -9 -20 -20 -20h-233c-6 0 -10 -4 -10 -10z" />
    <glyph glyph-name="F" unicode="F" 
d="M240 270v-250c0 -11 -9 -20 -20 -20h-100c-11 0 -20 9 -20 20v660c0 11 9 20 20 20h350c11 0 20 -9 20 -20v-100c0 -11 -9 -20 -20 -20h-220c-6 0 -10 -4 -10 -10v-120c0 -6 4 -10 10 -10h210c11 0 20 -9 20 -20v-100c0 -11 -9 -20 -20 -20h-210c-6 0 -10 -4 -10 -10z
" />
    <glyph glyph-name="G" unicode="G" 
d="M377 482c-4 52 -41 88 -98 88c-61 0 -92 -36 -97 -80c-10 -84 -10 -196 0 -280c5 -44 36 -80 97 -80c60 0 101 33 101 78v43c0 6 -4 10 -10 10h-68c-11 0 -20 9 -20 20v95c0 11 9 20 20 20h195c11 0 20 -9 20 -20v-168c0 -120 -101 -219 -238 -219
c-138 0 -224 101 -238 221c-10 84 -10 196 0 280c14 120 100 221 238 221s238 -95 238 -229c0 -11 -9 -20 -20 -20h-100c-11 0 -19 9 -20 20z" />
    <glyph glyph-name="I" unicode="I" 
d="M205 145v410c0 6 -4 10 -10 10h-100c-11 0 -20 9 -20 20v95c0 11 9 20 20 20h360c11 0 20 -9 20 -20v-95c0 -11 -9 -20 -20 -20h-100c-6 0 -10 -4 -10 -10v-410c0 -6 4 -10 10 -10h110c11 0 20 -9 20 -20v-95c0 -11 -9 -20 -20 -20h-380c-11 0 -20 9 -20 20v95
c0 11 9 20 20 20h110c6 0 10 4 10 10z" />
    <glyph glyph-name="J" unicode="J" 
d="M164 239v-28c0 -45 36 -81 91 -81c54 0 90 35 90 91v459c0 11 9 20 20 20h101c11 0 20 -9 20 -20v-469c0 -122 -91 -222 -231 -222c-132 0 -232 100 -232 222v28c0 11 9 20 20 20h101c11 0 20 -9 20 -20z" />
    <glyph glyph-name="K" unicode="K" 
d="M206 447l165 243c3 4 7 10 22 10h101c19 0 27 -21 17 -36l-187 -276c-9 -13 -8 -21 0 -33l205 -317c9 -14 1 -38 -21 -38h-108c-15 0 -20 7 -23 12l-171 273c-3 4 -10 3 -10 -3v-262c0 -11 -9 -20 -20 -20h-99c-11 0 -20 9 -20 20v660c0 11 9 20 20 20h99
c11 0 20 -9 20 -20v-230c0 -6 7 -7 10 -3z" />
    <glyph glyph-name="L" unicode="L" 
d="M235 680v-530c0 -6 4 -10 10 -10h250c11 0 20 -9 20 -20v-100c0 -11 -9 -20 -20 -20h-380c-11 0 -20 9 -20 20v660c0 11 9 20 20 20h100c11 0 20 -9 20 -20z" />
    <glyph glyph-name="M" unicode="M" 
d="M210 683l56 -195c3 -10 15 -10 18 0l56 195c3 12 10 17 21 17h138c11 0 20 -9 20 -20v-660c0 -11 -9 -20 -20 -20h-98c-11 0 -20 9 -20 20v396c0 5 -6 6 -8 1l-47 -150c-4 -12 -10 -17 -21 -17h-59c-11 0 -17 5 -21 17l-48 150c-2 5 -8 4 -8 -1v-396
c0 -11 -9 -20 -20 -20h-98c-11 0 -20 9 -20 20v660c0 11 9 20 20 20h138c11 0 18 -5 21 -17z" />
    <glyph glyph-name="P" unicode="P" 
d="M210 270v-250c0 -11 -9 -20 -20 -20h-100c-11 0 -20 9 -20 20v660c0 11 9 20 20 20h220c115 0 210 -95 210 -210c0 -116 -95 -210 -210 -210h-90c-6 0 -10 -4 -10 -10zM310 560h-90c-6 0 -10 -4 -10 -10v-120c0 -6 4 -10 10 -10h90c38 0 70 31 70 70c0 38 -32 70 -70 70z
" />
    <glyph glyph-name="Q" unicode="Q" 
d="M445 57c-6 -6 -9 -12 -4 -22l45 -89c7 -14 6 -36 -24 -36h-92c-17 0 -22 10 -30 24l-23 45c-4 7 -7 10 -18 10h-24c-138 0 -224 101 -238 221c-10 84 -10 196 0 280c14 120 100 221 238 221s224 -101 238 -221c10 -84 10 -196 0 -280c-7 -58 -33 -118 -68 -153zM275 570
c-61 0 -92 -36 -97 -80c-10 -84 -10 -196 0 -280c5 -44 36 -80 97 -80s92 36 97 80c10 84 10 196 0 280c-5 44 -36 80 -97 80z" />
    <glyph glyph-name="R" unicode="R" 
d="M298 560h-90c-6 0 -10 -4 -10 -10v-120c0 -6 4 -10 10 -10h90c38 0 70 31 70 70c0 38 -32 70 -70 70zM234 280h-26c-6 0 -10 -4 -10 -10v-250c0 -11 -9 -20 -20 -20h-100c-11 0 -20 9 -20 20v660c0 11 9 20 20 20h220c115 0 210 -95 210 -210c0 -77 -33 -129 -104 -177
c-14 -10 -13 -18 -6 -33l107 -250c7 -15 1 -30 -19 -30h-103c-16 0 -24 8 -29 20l-102 247c-2 5 -7 13 -18 13z" />
    <glyph glyph-name="T" unicode="T" 
d="M194 560h-135c-11 0 -20 9 -20 20v100c0 11 9 20 20 20h430c11 0 20 -9 20 -20v-100c0 -11 -9 -20 -20 -20h-135c-6 0 -10 -4 -10 -10v-530c0 -11 -9 -20 -20 -20h-100c-11 0 -20 9 -20 20v530c0 6 -4 10 -10 10z" />
    <glyph glyph-name="U" unicode="U" 
d="M178 680v-470c0 -44 36 -80 95 -80c61 0 97 36 97 80v470c0 11 9 20 20 20h101c11 0 20 -9 20 -20v-470c0 -121 -100 -221 -238 -221c-136 0 -236 100 -236 221v470c0 11 9 20 20 20h101c11 0 20 -9 20 -20z" />
    <glyph glyph-name="V" unicode="V" 
d="M285 216l109 469c2 11 10 15 19 15h110c16 0 22 -14 19 -24l-173 -661c-3 -10 -10 -15 -19 -15h-151c-9 0 -16 5 -19 15l-173 661c-3 10 3 24 19 24h110c9 0 17 -4 19 -15l110 -469c1 -4 3 -7 7 -7h6c4 0 6 3 7 7z" />
    <glyph glyph-name="W" unicode="W" 
d="M324 485l37 -200c2 -9 13 -9 14 0l38 400c1 11 10 15 19 15h93c16 0 21 -10 20 -20l-71 -665c-1 -10 -10 -15 -19 -15h-120c-9 0 -17 5 -19 15l-35 181c-1 6 -11 6 -12 0l-35 -181c-2 -10 -10 -15 -19 -15h-120c-9 0 -18 5 -19 15l-71 665c-1 10 4 20 20 20h93
c9 0 18 -4 19 -15l39 -400c1 -9 12 -9 14 0l36 200c2 10 10 15 19 15h60c9 0 17 -5 19 -15z" />
    <glyph glyph-name="X" unicode="X" 
d="M374 15l-93 237c-1 2 -2 4 -5 4h-2c-3 0 -4 -2 -5 -4l-93 -237c-4 -11 -12 -15 -21 -15h-118c-13 0 -22 14 -16 28l147 333c4 9 4 12 0 22l-130 289c-6 14 3 28 16 28h113c9 0 14 -4 19 -15l83 -207c1 -2 2 -4 5 -4h2c3 0 4 2 5 4l83 207c5 11 10 15 19 15h113
c13 0 22 -14 16 -28l-130 -290c-4 -10 -4 -13 0 -22l147 -332c6 -14 -3 -28 -16 -28h-118c-9 0 -17 4 -21 15z" />
    <glyph glyph-name="Y" unicode="Y" 
d="M281 408l96 277c4 11 10 15 19 15h110c13 0 22 -13 16 -28l-177 -446v-206c0 -11 -9 -20 -20 -20h-100c-11 0 -20 9 -20 20v206l-177 446c-6 15 3 28 16 28h110c9 0 15 -4 19 -15l96 -277c1 -3 2 -4 5 -4h2c3 0 4 1 5 4z" />
    <glyph glyph-name="Z" unicode="Z" 
d="M487 548l-275 -401c-3 -5 -1 -10 6 -10h264c11 0 20 -9 20 -20v-97c0 -11 -9 -20 -20 -20h-414c-11 0 -20 9 -20 20v119c0 6 2 11 5 16l276 398c3 5 1 10 -6 10h-240c-11 0 -20 9 -20 20v97c0 11 9 20 20 20h389c11 0 20 -9 20 -20v-116c0 -6 -2 -11 -5 -16z" />
    <glyph glyph-name="q" unicode="q" 
d="M266 385c-48 0 -73 -27 -75 -60c-3 -40 -3 -110 0 -150c2 -33 27 -60 75 -60c49 0 73 22 76 60c3 40 3 110 0 150c-3 35 -27 60 -76 60zM251 511c74 0 82 -34 111 -34c10 0 19 9 25 16c4 4 8 7 14 7h50c11 0 20 -9 20 -20v-660c0 -11 -9 -20 -20 -20h-90
c-11 0 -20 9 -20 20v160c0 22 -15 27 -30 21c-14 -6 -30 -12 -60 -12c-105 0 -182 81 -190 186c-3 40 -3 110 0 150c8 105 85 186 190 186z" />
    <glyph glyph-name="b" unicode="b" 
d="M283 115c48 0 73 27 75 60c3 40 3 110 0 150c-2 33 -27 60 -75 60c-49 0 -73 -22 -76 -60c-3 -40 -3 -110 0 -150c3 -35 27 -60 76 -60zM298 -11c-74 0 -82 34 -111 34c-10 0 -19 -9 -25 -16c-4 -4 -8 -7 -14 -7h-50c-11 0 -20 9 -20 20v670c0 11 9 20 20 20h90
c11 0 20 -9 20 -20v-170c0 -22 15 -27 30 -21c14 6 30 12 60 12c105 0 182 -81 190 -186c3 -40 3 -110 0 -150c-8 -105 -85 -186 -190 -186z" />
    <glyph glyph-name="h" unicode="h" 
d="M185 0h-90c-11 0 -20 9 -20 20v670c0 11 9 20 20 20h90c11 0 20 -9 20 -20v-170c0 -17 11 -28 30 -21c14 5 30 12 60 12c105 0 190 -81 190 -186v-305c0 -11 -9 -20 -20 -20h-90c-11 0 -20 9 -20 20v305c0 33 -27 60 -75 60s-75 -27 -75 -60v-305c0 -11 -9 -20 -20 -20z
" />
    <glyph glyph-name="comma" unicode="," 
d="M241 0h-24c-11 0 -20 9 -20 20v120c0 11 9 20 20 20h120c11 0 20 -9 20 -20v-117c0 -26 -10 -51 -22 -69l-64 -84c-6 -9 -14 -20 -34 -20h-20c-20 0 -31 20 -21 38l54 99c4 7 -3 13 -9 13z" />
    <glyph glyph-name="period" unicode="." 
d="M355 140v-120c0 -11 -9 -20 -20 -20h-120c-11 0 -20 9 -20 20v120c0 11 9 20 20 20h120c11 0 20 -9 20 -20z" />
    <glyph glyph-name="zero" unicode="0" 
d="M52 490c14 120 100 221 223 221s209 -101 223 -221c10 -84 10 -196 0 -280c-14 -120 -100 -221 -223 -221s-209 101 -223 221c-10 84 -10 196 0 280zM275 575c-47 0 -79 -36 -84 -81c-10 -87 -10 -201 0 -288c5 -45 37 -81 84 -81s79 36 84 81c10 87 10 201 0 288
c-5 45 -37 81 -84 81z" />
    <glyph glyph-name="one" unicode="1" 
d="M229 145v355c0 13 -13 14 -19 8l-121 -113c-12 -12 -34 -4 -34 16v96c0 16 2 29 16 44l116 125c9 10 25 24 50 24h111c11 0 20 -9 20 -20v-535c0 -6 4 -10 10 -10h111c11 0 20 -9 20 -20v-95c0 -11 -9 -20 -20 -20h-410c-11 0 -20 9 -20 20v95c0 11 9 20 20 20h140
c6 0 10 4 10 10z" />
    <glyph glyph-name="two" unicode="2" 
d="M355 503c0 40 -27 73 -72 73c-50 0 -82 -29 -82 -73v-17c0 -11 -9 -20 -20 -20h-95c-11 0 -20 9 -20 20v16c0 117 96 209 213 209c118 0 211 -92 211 -209c0 -55 -25 -108 -62 -148l-188 -199c-6 -6 -7 -20 10 -20h221c11 0 20 -9 20 -20v-95c0 -11 -9 -20 -20 -20h-392
c-11 0 -20 9 -20 20v118c0 15 5 21 9 25l259 275c11 12 28 44 28 65z" />
    <glyph glyph-name="three" unicode="3" 
d="M363 208c0 52 -35 83 -87 83h-12c-11 0 -20 9 -20 20v94c0 11 9 20 20 20h12c46 0 78 30 78 76c0 45 -32 74 -78 74c-45 0 -78 -29 -78 -74v-15c0 -11 -9 -20 -20 -20h-96c-11 0 -20 9 -20 20v15c0 117 97 210 214 210c118 0 213 -93 213 -210c0 -50 -23 -98 -53 -131
c-6 -6 -6 -13 0 -18c39 -32 63 -89 63 -144c0 -123 -100 -219 -223 -219s-223 96 -223 219v10c0 11 9 20 20 20h96c11 0 20 -9 20 -20v-10c0 -52 34 -83 87 -83c52 0 87 31 87 83z" />
    <glyph glyph-name="four" unicode="4" 
d="M449 251h37c11 0 20 -9 20 -20v-86c0 -11 -9 -20 -20 -20h-37c-6 0 -10 -4 -10 -10v-95c0 -11 -9 -20 -20 -20h-90c-11 0 -20 9 -20 20v95c0 6 -4 10 -10 10h-235c-11 0 -20 9 -20 20v104c0 14 8 25 16 38l231 399c6 11 10 14 21 14h107c11 0 20 -9 20 -20v-419
c0 -6 4 -10 10 -10zM298 476l-115 -213c-4 -7 -1 -12 6 -12h110c6 0 10 4 10 10v212c0 7 -8 8 -11 3z" />
    <glyph glyph-name="five" unicode="5" 
d="M448 564h-238c-6 0 -10 -4 -10 -10v-93c0 -13 10 -15 19 -9c13 9 37 17 62 17c130 0 216 -98 216 -237c0 -121 -77 -243 -223 -243c-117 0 -221 64 -221 199c0 13 9 20 20 20h94c11 0 20 -9 20 -20c0 -45 44 -63 87 -63c65 0 88 51 88 107s-25 111 -88 111
c-30 0 -53 -14 -66 -32c-5 -7 -12 -11 -24 -11h-97c-11 0 -20 9 -20 20v360c0 11 9 20 20 20h361c11 0 20 -9 20 -20v-96c0 -11 -9 -20 -20 -20z" />
    <glyph glyph-name="six" unicode="6" 
d="M280 335c-52 0 -85 -38 -89 -90c-1 -15 -1 -25 0 -39c4 -52 37 -86 89 -86s85 34 89 86c1 14 1 24 0 39c-4 52 -37 90 -89 90zM492 516c0 -11 -9 -20 -20 -20h-85c-16 0 -25 8 -28 20c-8 33 -33 64 -84 64c-62 0 -91 -47 -91 -117c0 -14 12 -19 23 -13c13 7 43 16 73 16
c123 0 223 -100 223 -223v-35c0 -123 -100 -219 -223 -219s-209 97 -223 217c-10 84 -10 204 0 288c14 120 100 217 218 217c110 0 217 -77 217 -195z" />
    <glyph glyph-name="seven" unicode="7" 
d="M110 24l235 531c2 5 -1 10 -7 10h-255c-11 0 -20 9 -20 20v95c0 11 9 20 20 20h384c11 0 20 -9 20 -20v-120c0 -6 -1 -11 -5 -20l-228 -525c-4 -9 -10 -15 -19 -15h-107c-18 0 -22 15 -18 24z" />
    <glyph glyph-name="nine" unicode="9" 
d="M271 366c46 0 77 36 82 83c2 21 2 33 0 55c-4 46 -36 79 -82 79s-78 -33 -82 -79c-2 -22 -2 -34 0 -55c5 -47 36 -83 82 -83zM49 186c0 11 9 20 20 20h81c16 0 25 -8 28 -20c8 -35 34 -66 88 -66c62 0 105 30 105 120c0 14 -13 17 -24 13c-14 -5 -52 -15 -82 -15
c-117 0 -206 95 -213 214c-1 18 -1 28 0 49c6 117 96 210 214 210c126 0 212 -97 226 -217c10 -84 10 -204 0 -288c-14 -120 -100 -217 -223 -217c-125 0 -220 85 -220 197z" />
    <glyph glyph-name="r" unicode="r" 
d="M372 336c0 33 -32 51 -75 51c-42 0 -80 -17 -80 -60v-307c0 -11 -9 -20 -20 -20h-90c-11 0 -20 9 -20 20v460c0 11 9 20 20 20h50c12 0 19 -6 25 -11c6 -6 12 -12 23 -12c31 0 43 34 117 34c105 0 180 -70 180 -175c0 -11 -9 -20 -20 -20h-90c-11 0 -20 9 -20 20z" />
    <glyph glyph-name="m" unicode="m" 
d="M298 484c26 21 54 26 92 26c85 0 132 -73 132 -160v-330c0 -11 -9 -20 -20 -20h-80c-11 0 -20 9 -20 20v340c0 19 -16 35 -35 35s-35 -16 -35 -35v-340c0 -11 -9 -20 -20 -20h-75c-11 0 -20 9 -20 20v340c0 19 -16 35 -35 35s-35 -16 -35 -35v-340c0 -11 -9 -20 -20 -20
h-80c-11 0 -20 9 -20 20v460c0 11 9 20 20 20h30c12 0 16 -5 20 -10s7 -10 18 -10c17 0 35 30 85 30c26 0 50 -4 73 -25c4 -4 9 -6 13 -6s9 2 12 5z" />
    <glyph glyph-name="f" unicode="f" 
d="M180 377h-110c-11 0 -20 9 -20 20v80c0 11 9 20 20 20h110c6 0 10 4 10 10v20c0 104 86 183 190 183h90c11 0 20 -9 20 -20v-90c0 -11 -9 -20 -20 -20h-90c-33 0 -60 -22 -60 -55v-18c0 -6 4 -10 10 -10h150c11 0 20 -9 20 -20v-80c0 -11 -9 -20 -20 -20h-150
c-6 0 -10 -4 -10 -10v-347c0 -11 -9 -20 -20 -20h-90c-11 0 -20 9 -20 20v347c0 6 -4 10 -10 10z" />
    <glyph glyph-name="t" unicode="t" 
d="M279 367v-197c0 -33 27 -51 60 -51s60 18 60 51c0 11 9 20 20 20h90c11 0 20 -9 20 -20c0 -104 -86 -181 -190 -181s-190 75 -190 179v199c0 6 -4 10 -10 10h-98c-11 0 -20 9 -20 20v80c0 11 9 20 20 20h98c6 0 10 4 10 10v153c0 11 9 20 20 20h90c11 0 20 -9 20 -20
v-153c0 -6 4 -10 10 -10h170c11 0 20 -9 20 -20v-80c0 -11 -9 -20 -20 -20h-170c-6 0 -10 -4 -10 -10z" />
    <glyph glyph-name="l" unicode="l" 
d="M210 583h-100c-11 0 -20 9 -20 20v87c0 11 9 20 20 20h224c9 0 16 -8 16 -16v-554c0 -6 4 -10 10 -10h120c11 0 20 -9 20 -20v-90c0 -11 -9 -20 -20 -20h-380c-11 0 -20 9 -20 20v90c0 11 9 20 20 20h110c6 0 10 4 10 10v433c0 6 -4 10 -10 10z" />
    <glyph glyph-name="i" unicode="i" 
d="M366 694v-108c0 -9 -7 -16 -16 -16h-108c-9 0 -16 7 -16 16v108c0 8 7 16 16 16h108c9 0 16 -8 16 -16zM220 373h-100c-11 0 -20 9 -20 20v87c0 11 9 20 20 20h224c9 0 16 -8 16 -16v-344c0 -6 4 -10 10 -10h110c11 0 20 -9 20 -20v-90c0 -11 -9 -20 -20 -20h-370
c-11 0 -20 9 -20 20v90c0 11 9 20 20 20h110c6 0 10 4 10 10v223c0 6 -4 10 -10 10z" />
    <glyph glyph-name="j" unicode="j" 
d="M438 694v-108c0 -9 -7 -16 -16 -16h-108c-9 0 -16 7 -16 16v108c0 8 7 16 16 16h108c9 0 16 -8 16 -16zM432 484v-516c0 -104 -86 -179 -190 -179s-190 77 -190 181c0 11 9 20 20 20h90c11 0 20 -9 20 -20c0 -33 27 -51 60 -51s60 18 60 51v391c0 6 -4 10 -10 10h-120
c-11 0 -20 9 -20 20v89c0 11 9 20 20 20h244c9 0 16 -8 16 -16z" />
    <glyph glyph-name="s" unicode="s" 
d="M62 164c0 11 9 20 20 20h76c24 0 28 -8 30 -25c4 -39 42 -52 88 -52c54 0 92 16 92 47c0 34 -46 41 -92 46c-82 9 -201 43 -201 160c0 89 104 151 201 151c100 0 198 -53 198 -156c0 -19 -9 -25 -20 -25h-75c-10 0 -20 4 -23 25c-5 33 -43 46 -80 46
c-45 0 -80 -13 -80 -41c0 -30 39 -36 80 -43c88 -16 212 -28 212 -165c0 -99 -98 -163 -212 -163c-110 0 -214 49 -214 175z" />
    <glyph glyph-name="u" unicode="u" 
d="M365 20c-29 0 -45 -31 -105 -31c-105 0 -190 81 -190 186v305c0 11 9 20 20 20h90c11 0 20 -9 20 -20v-306c0 -33 27 -59 75 -59c47 0 75 25 75 55v310c0 11 9 20 20 20h90c11 0 20 -9 20 -20v-460c0 -11 -9 -20 -20 -20h-50c-12 0 -18 5 -23 10c-6 5 -11 10 -22 10z" />
    <glyph glyph-name="k" unicode="k" 
d="M382 15l-155 173c-3 4 -10 3 -10 -3v-165c0 -11 -9 -20 -20 -20h-90c-11 0 -20 9 -20 20v670c0 11 9 20 20 20h90c11 0 20 -9 20 -20v-349c0 -6 7 -7 10 -3l146 149c5 5 10 13 25 13h99c21 0 26 -23 16 -33l-179 -185c-10 -10 -10 -18 1 -30l193 -219
c12 -13 3 -33 -16 -33h-104c-15 0 -21 10 -26 15z" />
    <glyph glyph-name="v" unicode="v" 
d="M280 200l100 285c4 11 10 15 19 15h100c16 0 23 -13 19 -23l-170 -462c-4 -10 -10 -15 -19 -15h-106c-9 0 -15 5 -19 15l-172 462c-4 10 3 23 19 23h100c9 0 15 -4 19 -15l98 -285c2 -7 10 -7 12 0z" />
    <glyph glyph-name="w" unicode="w" 
d="M238 390h68c9 0 16 -4 19 -15l37 -150c2 -6 11 -5 12 0l33 260c1 11 10 15 19 15h94c16 0 21 -13 19 -23l-79 -462c-2 -10 -10 -15 -19 -15h-109c-9 0 -17 5 -19 15l-33 153c-2 7 -13 7 -14 0l-28 -153c-2 -10 -10 -15 -19 -15h-109c-9 0 -17 5 -19 15l-81 462
c-2 10 3 23 19 23h94c9 0 18 -4 19 -15l33 -260c1 -6 11 -5 12 0l32 150c2 11 10 15 19 15z" />
    <glyph glyph-name="x" unicode="x" 
d="M270 152l-78 -142c-3 -5 -7 -10 -22 -10h-101c-19 0 -26 16 -16 33l133 216c5 8 6 13 0 22l-116 196c-10 17 -3 33 16 33h93c15 0 19 -5 22 -10l69 -125c4 -8 8 -8 12 0l69 125c3 5 7 10 22 10h93c19 0 26 -16 16 -33l-118 -196c-6 -9 -5 -14 0 -22l132 -216
c10 -17 3 -33 -16 -33h-101c-15 0 -19 5 -22 10l-75 142c-4 8 -8 8 -12 0z" />
    <glyph glyph-name="y" unicode="y" 
d="M185 485l88 -284c3 -8 10 -8 12 0l81 284c3 11 10 15 19 15h101c16 0 23 -13 19 -23l-235 -662c-4 -11 -10 -15 -19 -15h-92c-16 0 -23 13 -19 23l70 187c3 9 4 12 0 22l-166 445c-4 10 3 23 19 23h103c9 0 15 -4 19 -15z" />
    <glyph glyph-name="z" unicode="z" 
d="M83 141l227 229c4 5 1 10 -5 10h-205c-11 0 -20 9 -20 20v80c0 11 9 20 20 20h348c11 0 20 -9 20 -20v-87c0 -18 -10 -31 -20 -41l-214 -222c-4 -5 -1 -10 5 -10h219c11 0 20 -9 20 -20v-80c0 -11 -9 -20 -20 -20h-368c-11 0 -20 9 -20 20v90c0 13 0 18 13 31z" />
    <glyph glyph-name="A" unicode="A" 
d="M182 118l-28 -103c-2 -9 -10 -15 -19 -15h-105c-16 0 -22 11 -20 20l179 665c2 9 10 15 19 15h134c9 0 17 -6 19 -15l178 -665c2 -9 -4 -20 -20 -20h-105c-9 0 -16 6 -19 15l-31 103c-2 8 -6 15 -15 15h-152c-9 0 -13 -6 -15 -15zM268 524l-48 -240c-2 -8 2 -11 8 -11h92
c6 0 10 3 8 11l-48 240c-1 3 -2 4 -5 4h-2c-3 0 -4 -1 -5 -4z" />
    <glyph glyph-name="g" unicode="g" 
d="M411 500h50c11 0 20 -9 20 -20v-510c0 -101 -84 -185 -197 -185c-106 0 -197 68 -197 165c0 11 9 20 20 20h75c24 0 23 -9 26 -23c5 -24 30 -43 70 -43c37 0 73 22 73 66v10c0 20 -11 28 -30 21c-14 -5 -30 -12 -60 -12c-105 0 -182 81 -190 186c-3 40 -3 110 0 150
c8 105 85 186 190 186c74 0 82 -34 111 -34c10 0 19 9 25 16c4 4 8 7 14 7zM276 385c-48 0 -73 -27 -75 -60c-3 -40 -3 -110 0 -150c2 -33 27 -60 75 -60c49 0 73 25 76 60c3 40 3 110 0 150c-3 38 -27 60 -76 60z" />
    <glyph glyph-name="o" unicode="o" 
d="M274 511c123 0 195 -81 208 -186c5 -40 5 -110 0 -150c-13 -105 -85 -186 -207 -186c-123 0 -195 81 -208 186c-5 40 -5 110 0 150c13 105 85 186 207 186zM274 119c51 0 73 23 78 56c6 40 6 110 0 150c-5 33 -27 56 -78 56c-50 0 -71 -18 -77 -56c-6 -40 -6 -110 0 -150
c5 -35 27 -56 77 -56z" />
    <glyph glyph-name="colon" unicode=":" 
d="M356 140v-120c0 -11 -9 -20 -20 -20h-120c-11 0 -20 9 -20 20v120c0 11 9 20 20 20h120c11 0 20 -9 20 -20zM356 480v-120c0 -11 -9 -20 -20 -20h-120c-11 0 -20 9 -20 20v120c0 11 9 20 20 20h120c11 0 20 -9 20 -20z" />
    <glyph glyph-name="hyphen" unicode="-" 
d="M138 337h273c11 0 20 -9 20 -20v-99c0 -11 -9 -20 -20 -20h-273c-11 0 -20 9 -20 20v99c0 11 9 20 20 20z" />
    <glyph glyph-name="endash" unicode="&#x2013;" 
d="M70 325h410c11 0 20 -9 20 -20v-89c0 -11 -9 -20 -20 -20h-410c-11 0 -20 9 -20 20v89c0 11 9 20 20 20z" />
    <glyph glyph-name="emdash" unicode="&#x2014;" 
d="M-3 325h557c11 0 20 -9 20 -20v-89c0 -11 -9 -20 -20 -20h-557c-11 0 -20 9 -20 20v89c0 11 9 20 20 20z" />
    <glyph glyph-name="ampersand" unicode="&#x26;" 
d="M254 109c17 0 30 5 45 15c1 1 4 3 1 6l-118 140c-3 3 -5 1 -6 0c-17 -16 -27 -37 -27 -64c0 -51 55 -97 105 -97zM378 237c5 8 6 33 6 83c0 11 9 20 20 20h68c11 0 20 -9 20 -20c0 -120 -16 -163 -26 -180c-3 -5 -3 -7 1 -12l77 -91c11 -13 4 -37 -18 -37h-79
c-15 0 -18 6 -22 10l-22 23c-9 9 -15 3 -19 0c-39 -31 -89 -44 -142 -44c-122 0 -230 94 -230 217c0 56 31 116 76 150c8 6 7 14 1 22c-27 33 -46 85 -46 129c0 111 92 193 204 193c101 0 189 -80 189 -184c0 -26 -13 -30 -30 -30h-74c-17 0 -29 8 -31 29
c-3 31 -24 54 -58 54c-42 0 -67 -24 -67 -62c0 -37 32 -81 44 -95l149 -177c3 -3 7 -1 9 2z" />
    <glyph glyph-name="semicolon" unicode=";" 
d="M357 480v-120c0 -11 -9 -20 -20 -20h-120c-11 0 -20 9 -20 20v120c0 11 9 20 20 20h120c11 0 20 -9 20 -20zM241 0h-24c-11 0 -20 9 -20 20v120c0 11 9 20 20 20h120c11 0 20 -9 20 -20v-117c0 -26 -9 -52 -22 -69l-64 -84c-6 -9 -14 -20 -34 -20h-20
c-20 0 -31 20 -21 38l54 99c4 7 -3 13 -9 13z" />
    <glyph glyph-name="question" unicode="?" 
d="M343 506c0 43 -31 70 -71 70c-45 0 -72 -35 -72 -73v-17c0 -11 -9 -20 -20 -20h-100c-11 0 -20 9 -20 20v15c0 118 96 214 212 214c118 0 211 -84 211 -202c0 -83 -53 -142 -97 -174c-38 -28 -46 -45 -46 -92v-10c0 -11 -9 -20 -20 -20h-100c-11 0 -20 9 -20 20v10
c0 31 -5 81 28 124c22 28 56 45 77 65s38 47 38 70zM350 140v-120c0 -11 -9 -20 -20 -20h-120c-11 0 -20 9 -20 20v120c0 11 9 20 20 20h120c11 0 20 -9 20 -20z" />
    <glyph glyph-name="exclam" unicode="!" 
d="M346 684v-451c0 -8 -7 -16 -16 -16h-108c-9 0 -16 8 -16 16v451c0 8 7 16 16 16h108c9 0 16 -8 16 -16zM355 140v-120c0 -11 -9 -20 -20 -20h-120c-11 0 -20 9 -20 20v120c0 11 9 20 20 20h120c11 0 20 -9 20 -20z" />
    <glyph glyph-name="plus" unicode="+" 
d="M75 315h125c6 0 10 4 10 10v125c0 11 9 20 20 20h89c11 0 20 -9 20 -20v-125c0 -6 4 -10 10 -10h126c11 0 20 -9 20 -20v-89c0 -11 -9 -20 -20 -20h-126c-6 0 -10 -4 -10 -10v-126c0 -11 -9 -20 -20 -20h-89c-11 0 -20 9 -20 20v126c0 6 -4 10 -10 10h-125
c-11 0 -20 9 -20 20v89c0 11 9 20 20 20z" />
    <glyph glyph-name="slash" unicode="/" 
d="M471 682l-264 -679c-4 -11 -12 -15 -21 -15h-92c-13 0 -22 13 -16 28l266 679c4 11 10 15 19 15h92c13 0 22 -13 16 -28z" />
    <glyph glyph-name="quotedbl" unicode="&#x22;" 
d="M351 540h-24c-11 0 -20 9 -20 20v120c0 11 9 20 20 20h120c11 0 20 -9 20 -20v-117c0 -26 -9 -52 -22 -69l-64 -84c-6 -9 -14 -20 -34 -20h-20c-20 0 -31 20 -21 38l54 99c4 7 -3 13 -9 13zM131 540h-24c-11 0 -20 9 -20 20v120c0 11 9 20 20 20h120c11 0 20 -9 20 -20
v-117c0 -26 -9 -52 -22 -69l-64 -84c-6 -9 -14 -20 -34 -20h-20c-20 0 -31 20 -21 38l54 99c4 7 -3 13 -9 13z" />
    <glyph glyph-name="quotedblright" unicode="&#x201d;" 
d="M350 540h-24c-11 0 -20 9 -20 20v120c0 11 9 20 20 20h120c11 0 20 -9 20 -20v-117c0 -26 -9 -52 -22 -69l-64 -84c-6 -9 -14 -20 -34 -20h-20c-20 0 -31 20 -21 38l54 99c4 7 -3 13 -9 13zM130 540h-24c-11 0 -20 9 -20 20v120c0 11 9 20 20 20h120c11 0 20 -9 20 -20
v-117c0 -26 -9 -52 -22 -69l-64 -84c-6 -9 -14 -20 -34 -20h-20c-20 0 -31 20 -21 38l54 99c4 7 -3 13 -9 13z" />
    <glyph glyph-name="quotedblleft" unicode="&#x201c;" 
d="M198 550h24c11 0 20 -9 20 -20v-120c0 -11 -9 -20 -20 -20h-120c-11 0 -20 9 -20 20v117c0 26 9 52 22 69l64 84c6 9 14 20 34 20h20c20 0 31 -20 21 -38l-54 -99c-4 -7 3 -13 9 -13zM418 550h24c11 0 20 -9 20 -20v-120c0 -11 -9 -20 -20 -20h-120c-11 0 -20 9 -20 20
v117c0 26 9 52 22 69l64 84c6 9 14 20 34 20h20c20 0 31 -20 21 -38l-54 -99c-4 -7 3 -13 9 -13z" />
    <glyph glyph-name="quoteleft" unicode="&#x2018;" 
d="M308 550h24c11 0 20 -9 20 -20v-120c0 -11 -9 -20 -20 -20h-120c-11 0 -20 9 -20 20v117c0 26 9 52 22 69l64 84c6 9 14 20 34 20h20c20 0 31 -20 21 -38l-54 -99c-4 -7 3 -13 9 -13z" />
    <glyph glyph-name="quoteright" unicode="&#x2019;" 
d="M242 540h-24c-11 0 -20 9 -20 20v120c0 11 9 20 20 20h120c11 0 20 -9 20 -20v-117c0 -26 -9 -52 -22 -69l-64 -84c-6 -9 -14 -20 -34 -20h-20c-20 0 -31 20 -21 38l54 99c4 7 -3 13 -9 13z" />
    <glyph glyph-name="numbersign" unicode="#" 
d="M315 267l27 153c1 6 -2 10 -8 10h-86c-6 0 -11 -4 -12 -10l-27 -153c-1 -6 2 -10 8 -10h86c6 0 11 4 12 10zM102 267l27 153c1 6 -2 10 -8 10h-50c-11 0 -19 9 -17 20l11 66c2 11 13 20 24 20h50c6 0 11 4 12 10l24 134c2 11 12 20 23 20h67c11 0 19 -9 17 -20l-24 -134
c-1 -6 2 -10 8 -10h86c6 0 11 4 12 10l24 134c2 11 12 20 23 20h67c11 0 19 -9 17 -20l-24 -134c-1 -6 2 -10 8 -10h50c11 0 18 -9 16 -20l-11 -66c-2 -11 -12 -20 -23 -20h-50c-6 0 -11 -4 -12 -10l-27 -153c-1 -6 2 -10 8 -10h50c11 0 18 -9 16 -20l-11 -69
c-2 -11 -12 -20 -23 -20h-50c-6 0 -11 -4 -12 -10l-22 -118c-2 -11 -12 -20 -23 -20h-67c-11 0 -19 9 -17 20l22 118c1 6 -2 10 -8 10h-86c-6 0 -11 -4 -12 -10l-22 -118c-2 -11 -12 -20 -23 -20h-67c-11 0 -19 9 -17 20l22 118c1 6 -2 10 -8 10h-50c-11 0 -19 9 -17 20
l11 69c2 11 13 20 24 20h50c6 0 11 4 12 10z" />
    <glyph glyph-name="quotesingle" unicode="'" 
d="M241 540h-24c-11 0 -20 9 -20 20v120c0 11 9 20 20 20h120c11 0 20 -9 20 -20v-117c0 -26 -9 -52 -22 -69l-64 -84c-6 -9 -14 -20 -34 -20h-20c-20 0 -31 20 -21 38l54 99c4 7 -3 13 -9 13z" />
    <glyph glyph-name="asterisk" unicode="*" 
d="M351 473l-25 17l3 -30c2 -17 -13 -30 -30 -30h-49c-17 0 -31 13 -30 30l2 30l-25 -17c-13 -9 -32 -4 -41 11l-23 42c-9 15 -5 33 11 41l27 13l-28 13c-15 7 -19 26 -11 41l25 42c8 15 27 21 41 11l24 -17l-2 30c-1 17 13 30 30 30h49c17 0 32 -13 30 -30l-3 -30l26 17
c13 9 32 4 41 -11l23 -42c9 -15 5 -33 -11 -41l-27 -13l28 -13c15 -7 19 -26 11 -41l-25 -42c-8 -15 -27 -21 -41 -11z" />
    <glyph glyph-name="parenleft" unicode="(" 
d="M380 38h62c11 0 20 -9 20 -20v-88c0 -11 -9 -20 -20 -20h-62c-120 0 -209 81 -225 210c-10 81 -10 310 0 390c13 109 93 210 225 210h62c11 0 20 -9 20 -20v-88c0 -11 -9 -20 -20 -20h-62c-45 0 -83 -19 -95 -82c-16 -82 -15 -308 0 -390c9 -48 37 -82 95 -82z" />
    <glyph glyph-name="parenright" unicode=")" 
d="M107 38h62c58 0 86 34 95 82c15 82 16 308 0 390c-12 63 -50 82 -95 82h-62c-11 0 -20 9 -20 20v88c0 11 9 20 20 20h62c132 0 212 -101 225 -210c10 -80 10 -309 0 -390c-16 -129 -105 -210 -225 -210h-62c-11 0 -20 9 -20 20v88c0 11 9 20 20 20z" />
    <glyph glyph-name="equal" unicode="=" 
d="M475 286h-400c-11 0 -20 9 -20 20v87c0 11 9 20 20 20h400c11 0 20 -9 20 -20v-87c0 -11 -9 -20 -20 -20zM475 87h-400c-11 0 -20 9 -20 20v87c0 11 9 20 20 20h400c11 0 20 -9 20 -20v-87c0 -11 -9 -20 -20 -20z" />
    <glyph glyph-name="less" unicode="&#x3c;" 
d="M258 246l202 -101c10 -5 15 -12 15 -21v-105c0 -16 -14 -24 -23 -19l-362 204c-9 5 -15 13 -15 32v29c0 19 6 27 15 32l362 203c9 5 23 -3 23 -19v-105c0 -9 -5 -15 -15 -21l-202 -101c-4 -2 -4 -6 0 -8z" />
    <glyph glyph-name="greater" unicode="&#x3e;" 
d="M90 145l202 101c4 2 4 6 0 8l-202 101c-10 5 -15 12 -15 21v105c0 16 14 24 23 19l362 -203c9 -5 15 -13 15 -32v-29c0 -19 -6 -27 -15 -32l-362 -204c-9 -5 -23 3 -23 19v105c0 9 5 16 15 21z" />
    <glyph glyph-name="at" unicode="@" 
d="M279 40c39 0 74 6 106 21c13 6 24 -2 24 -15v-46c0 -16 -12 -21 -24 -28c-21 -12 -68 -22 -106 -22c-137 0 -259 80 -259 248v144c0 141 117 248 261 248c125 0 248 -70 248 -228v-142c0 -70 -31 -120 -94 -120c-36 0 -49 20 -66 20c-13 0 -25 -7 -38 -12
c-15 -6 -32 -10 -51 -10c-97 0 -127 72 -127 166c0 83 12 182 126 182c74 0 125 -50 125 -114v-110c0 -13 6 -22 19 -22s21 8 21 22v140c0 96 -83 138 -165 138c-102 0 -168 -61 -168 -158v-144c0 -118 98 -158 168 -158zM321 218v108c0 19 -14 32 -42 32
c-45 0 -45 -36 -45 -93c0 -32 -2 -79 45 -79c28 0 42 14 42 32z" />
    <glyph glyph-name="bracketleft" unicode="[" 
d="M316 588v-546c0 -6 4 -10 10 -10h130c11 0 20 -9 20 -20v-82c0 -11 -9 -20 -20 -20h-242c-11 0 -20 9 -20 20v770c0 11 9 20 20 20h242c11 0 20 -9 20 -20v-82c0 -11 -9 -20 -20 -20h-130c-6 0 -10 -4 -10 -10z" />
    <glyph glyph-name="bracketright" unicode="]" 
d="M234 42v546c0 6 -4 10 -10 10h-130c-11 0 -20 9 -20 20v82c0 11 9 20 20 20h242c11 0 20 -9 20 -20v-770c0 -11 -9 -20 -20 -20h-242c-11 0 -20 9 -20 20v82c0 11 9 20 20 20h130c6 0 10 4 10 10z" />
    <glyph glyph-name="backslash" unicode="\" 
d="M343 3l-264 679c-6 15 3 28 16 28h92c9 0 15 -4 19 -15l266 -679c6 -15 -3 -28 -16 -28h-92c-9 0 -17 4 -21 15z" />
    <glyph glyph-name="asciicircum" unicode="^" 
d="M266 630l-35 -44c-5 -7 -16 -16 -31 -16h-95c-17 0 -17 19 -11 25l119 123c6 6 12 12 30 12h62c17 0 23 -6 29 -12l119 -123c6 -6 5 -25 -13 -25h-94c-15 0 -26 9 -31 16l-35 44c-4 6 -10 6 -14 0z" />
    <glyph glyph-name="underscore" unicode="_" 
d="M-3 0h557c11 0 20 -9 20 -20v-59c0 -11 -9 -20 -20 -20h-557c-11 0 -20 9 -20 20v59c0 11 9 20 20 20z" />
    <glyph glyph-name="bar" unicode="|" 
d="M337 700v-750c0 -11 -9 -20 -20 -20h-85c-11 0 -20 9 -20 20v750c0 11 9 20 20 20h85c11 0 20 -9 20 -20z" />
    <glyph glyph-name="braceleft" unicode="{" 
d="M156 120v135c0 10 -9 16 -18 20l-11 5c-10 4 -20 9 -20 20v40c0 11 10 16 20 20l11 5c9 4 18 9 18 20v125c0 110 93 210 225 210h72c11 0 20 -9 20 -20v-88c0 -11 -9 -20 -20 -20h-72c-45 0 -93 -18 -94 -82l-1 -125c0 -35 -28 -57 -41 -65c13 -8 41 -31 41 -65v-135
c0 -49 37 -82 95 -82h72c11 0 20 -9 20 -20v-88c0 -11 -9 -20 -20 -20h-72c-120 0 -225 80 -225 210z" />
    <glyph glyph-name="braceright" unicode="}" 
d="M394 255v-135c0 -130 -105 -210 -225 -210h-72c-11 0 -20 9 -20 20v88c0 11 9 20 20 20h72c58 0 95 33 95 82v135c0 34 28 57 41 65c-13 8 -41 30 -41 65l-1 125c-1 64 -49 82 -94 82h-72c-11 0 -20 9 -20 20v88c0 11 9 20 20 20h72c132 0 225 -100 225 -210v-125
c0 -11 9 -16 18 -20l11 -5c10 -4 20 -9 20 -20v-40c0 -11 -10 -16 -20 -20l-11 -5c-9 -4 -18 -10 -18 -20z" />
    <glyph glyph-name="dollar" unicode="$" 
d="M194 699c9 3 16 6 16 15v36c0 11 9 20 20 20h85c11 0 20 -9 20 -20v-34c0 -9 6 -13 15 -16c91 -28 152 -107 152 -200v-15c0 -11 -9 -20 -20 -20h-101c-11 0 -20 9 -20 20v15c0 40 -32 75 -89 75c-56 0 -87 -35 -87 -75c0 -38 37 -57 89 -67c139 -28 242 -86 242 -225
c0 -107 -68 -183 -166 -209c-10 -3 -15 -6 -15 -15v-34c0 -11 -9 -20 -20 -20h-85c-11 0 -20 9 -20 20v35c0 9 -7 12 -16 15c-96 29 -160 110 -160 208v30c0 11 9 20 20 20h101c11 0 20 -9 20 -20v-30c0 -46 35 -82 97 -82c63 0 99 35 99 82c0 43 -29 63 -104 80
c-125 28 -224 83 -224 212c0 93 60 171 151 199z" />
    <glyph glyph-name="germandbls" unicode="&#xdf;" 
d="M56 20v481c0 117 97 208 214 208c118 0 213 -91 213 -208c0 -50 -23 -94 -51 -128c-6 -8 -7 -14 1 -22c35 -36 60 -84 60 -143c0 -128 -100 -208 -223 -208h-16c-11 0 -20 9 -20 20v91c0 11 9 20 20 20h16c52 0 92 25 92 77c0 57 -40 85 -92 85h-12c-11 0 -20 9 -20 20
v89c0 11 9 20 20 20h12c46 0 83 33 83 79c0 45 -33 77 -83 77s-83 -29 -83 -77v-481c0 -11 -9 -20 -20 -20h-91c-11 0 -20 9 -20 20z" />
    <glyph glyph-name="percent" unicode="%" 
d="M478 672l-326 -657c-5 -10 -12 -15 -21 -15h-47c-13 0 -23 14 -16 28l324 657c5 10 13 15 22 15h48c13 0 23 -14 16 -28zM127 550c0 -28 7 -59 29 -59s29 31 29 59s-7 59 -29 59s-29 -31 -29 -59zM49 550c0 64 16 140 107 140s107 -76 107 -140s-16 -140 -107 -140
s-107 76 -107 140zM361 150c0 -28 7 -59 29 -59s29 31 29 59s-7 59 -29 59s-29 -31 -29 -59zM283 150c0 64 16 140 107 140s107 -76 107 -140s-16 -140 -107 -140s-107 76 -107 140z" />
    <glyph glyph-name="guillemotleft" unicode="&#xab;" 
d="M67 274l96 161c3 5 10 15 25 15h80c19 0 28 -12 16 -33l-85 -145c-6 -9 -6 -14 0 -24l85 -145c12 -21 3 -33 -16 -33h-80c-15 0 -22 10 -25 15l-96 161c-7 11 -7 17 0 28zM265 274l96 161c3 5 10 15 25 15h80c19 0 28 -12 16 -33l-85 -145c-6 -9 -6 -14 0 -24l85 -145
c12 -21 3 -33 -16 -33h-80c-15 0 -22 10 -25 15l-96 161c-7 11 -7 17 0 28z" />
    <glyph glyph-name="guillemotright" unicode="&#xbb;" 
d="M386 435l96 -161c7 -11 7 -17 0 -28l-96 -161c-3 -5 -10 -15 -25 -15h-80c-19 0 -28 12 -16 33l85 145c6 10 6 15 0 24l-85 145c-12 21 -3 33 16 33h80c15 0 22 -10 25 -15zM188 435l96 -161c7 -11 7 -17 0 -28l-96 -161c-3 -5 -10 -15 -25 -15h-80c-19 0 -28 12 -16 33
l85 145c6 10 6 15 0 24l-85 145c-12 21 -3 33 16 33h80c15 0 22 -10 25 -15z" />
    <glyph glyph-name="sterling" unicode="&#xa3;" 
d="M369 510v20c0 26 -18 51 -54 51s-53 -25 -53 -51v-106c0 -6 4 -10 10 -10h120c11 0 20 -9 20 -20v-75c0 -11 -9 -20 -20 -20h-119c-6 0 -10 -6 -10 -12v-43c0 -57 -8 -85 -17 -101c-4 -6 -2 -11 7 -11h237c11 0 20 -9 20 -20v-92c0 -11 -9 -20 -20 -20h-429
c-12 0 -21 9 -21 20v92c0 11 9 20 20 20c61 0 70 41 70 85v70c0 6 -4 12 -10 12h-41c-11 0 -20 9 -20 20v75c0 11 9 20 20 20h41c6 0 10 4 10 10v106c0 102 83 183 185 183s185 -81 185 -183v-20c0 -11 -9 -20 -20 -20h-91c-11 0 -20 9 -20 20z" />
    <glyph glyph-name="yen" unicode="&#xa5;" 
d="M208 214h-135c-11 0 -20 9 -20 20v67c0 11 9 20 20 20h96l-17 42h-79c-11 0 -20 9 -20 20v67c0 11 9 20 20 20h36l-81 202c-6 15 3 28 16 28h107c9 0 15 -4 19 -15l99 -277c1 -3 2 -4 5 -4h2c3 0 4 1 5 4l99 277c4 11 10 15 19 15h107c13 0 22 -13 16 -28l-82 -202h36
c11 0 20 -9 20 -20v-67c0 -11 -9 -20 -20 -20h-79l-17 -42h96c11 0 20 -9 20 -20v-67c0 -11 -9 -20 -20 -20h-134v-194c0 -11 -9 -20 -20 -20h-94c-11 0 -20 9 -20 20v194z" />
    <glyph glyph-name="questiondown" unicode="&#xbf;" 
d="M204 -6c0 -43 31 -70 71 -70c45 0 72 35 72 73v17c0 11 9 20 20 20h100c11 0 20 -9 20 -20v-15c0 -118 -96 -214 -212 -214c-118 0 -211 84 -211 202c0 83 53 142 97 174c38 28 46 45 46 92v10c0 11 9 20 20 20h100c11 0 20 -9 20 -20v-10c0 -31 5 -81 -28 -124
c-22 -28 -56 -45 -77 -65s-38 -47 -38 -70zM197 360v120c0 11 9 20 20 20h120c11 0 20 -9 20 -20v-120c0 -11 -9 -20 -20 -20h-120c-11 0 -20 9 -20 20z" />
    <glyph glyph-name="bullet" unicode="&#x2022;" 
d="M366 337v-143c0 -11 -9 -20 -20 -20h-143c-11 0 -20 9 -20 20v143c0 11 9 20 20 20h143c11 0 20 -9 20 -20z" />
    <glyph glyph-name="exclamdown" unicode="&#xa1;" 
d="M345 267v-451c0 -8 -7 -16 -16 -16h-108c-9 0 -16 8 -16 16v451c0 8 7 16 16 16h108c9 0 16 -8 16 -16zM355 480v-120c0 -11 -9 -20 -20 -20h-120c-11 0 -20 9 -20 20v120c0 11 9 20 20 20h120c11 0 20 -9 20 -20z" />
    <glyph glyph-name="copyright" unicode="&#xa9;" 
d="M18 350c0 142 115 256 257 256s256 -114 256 -256s-114 -257 -256 -257s-257 115 -257 257zM93 350c0 -101 81 -182 182 -182c100 0 181 81 181 182c0 100 -81 181 -181 181c-101 0 -182 -81 -182 -181zM379 305c0 -57 -40 -102 -104 -102c-71 0 -105 51 -110 113
c-2 23 -2 39 0 62c4 61 39 113 110 113c64 0 104 -45 104 -102c0 -6 -3 -11 -9 -11h-46c-5 0 -11 2 -11 8c0 28 -17 41 -38 41c-26 0 -41 -18 -44 -49c-2 -25 -2 -37 0 -62c3 -31 18 -50 44 -50c20 0 37 13 37 41c0 7 6 9 12 9h43c6 0 12 -5 12 -11z" />
    <glyph glyph-name="Lslash" unicode="&#x141;" 
d="M235 275v-120c0 -9 6 -15 15 -15h245c11 0 20 -9 20 -20v-100c0 -11 -9 -20 -20 -20h-380c-11 0 -20 9 -20 20v172c0 5 -4 6 -7 4l-29 -16c-13 -7 -28 -5 -28 15v79c0 13 4 19 19 28l39 23c3 2 6 6 6 10v345c0 11 9 20 20 20h100c11 0 20 -9 20 -20v-261c0 -3 4 -8 10 -4
l97 57c15 9 30 5 30 -12v-79c0 -17 -6 -24 -21 -33l-109 -63c-4 -2 -7 -6 -7 -10z" />
    <glyph glyph-name="dotlessi" unicode="&#x131;" 
d="M220 373h-100c-11 0 -20 9 -20 20v87c0 11 9 20 20 20h224c9 0 16 -8 16 -16v-344c0 -6 4 -10 10 -10h110c11 0 20 -9 20 -20v-90c0 -11 -9 -20 -20 -20h-370c-11 0 -20 9 -20 20v90c0 11 9 20 20 20h110c6 0 10 4 10 10v223c0 6 -4 10 -10 10z" />
    <glyph glyph-name="circumflex" unicode="&#x2c6;" 
d="M267 630l-35 -44c-5 -7 -16 -16 -31 -16h-95c-17 0 -17 19 -11 25l119 123c6 6 12 12 30 12h62c17 0 23 -6 29 -12l119 -123c6 -6 5 -25 -13 -25h-94c-15 0 -26 9 -31 16l-35 44c-4 6 -10 6 -14 0z" />
    <glyph glyph-name="tilde" unicode="&#x2dc;" 
d="M365 684c25 0 38 11 46 21s25 5 25 -14v-60c0 -26 -31 -51 -71 -51c-64 0 -112 25 -180 25c-22 0 -35 -8 -46 -21c-8 -9 -25 -5 -25 14v60c0 26 31 51 71 51c64 0 112 -25 180 -25z" />
    <glyph glyph-name="dieresis" unicode="&#xa8;" 
d="M239 690v-90c0 -11 -9 -20 -20 -20h-90c-11 0 -20 9 -20 20v90c0 11 9 20 20 20h90c11 0 20 -9 20 -20zM439 690v-90c0 -11 -9 -20 -20 -20h-90c-11 0 -20 9 -20 20v90c0 11 9 20 20 20h90c11 0 20 -9 20 -20z" />
    <glyph glyph-name="acute" unicode="&#xb4;" 
d="M268 730h107c19 0 23 -15 12 -27l-115 -121c-6 -6 -12 -12 -30 -12h-69c-13 0 -25 14 -13 30l82 114c5 7 11 16 26 16z" />
    <glyph glyph-name="dotaccent" unicode="&#x2d9;" 
d="M345 694v-108c0 -9 -7 -16 -16 -16h-108c-9 0 -16 7 -16 16v108c0 8 7 16 16 16h108c9 0 16 -8 16 -16z" />
    <glyph glyph-name="guilsinglleft" unicode="&#x2039;" 
d="M166 274l96 161c3 5 10 15 25 15h80c19 0 28 -12 16 -33l-85 -145c-6 -9 -6 -14 0 -24l85 -145c12 -21 3 -33 -16 -33h-80c-15 0 -22 10 -25 15l-96 161c-7 11 -7 17 0 28z" />
    <glyph glyph-name="guilsinglright" unicode="&#x203a;" 
d="M287 435l96 -161c7 -11 7 -17 0 -28l-96 -161c-3 -5 -10 -15 -25 -15h-80c-19 0 -28 12 -16 33l85 145c6 10 6 15 0 24l-85 145c-12 21 -3 33 16 33h80c15 0 22 -10 25 -15z" />
    <glyph glyph-name="ring" unicode="&#x2da;" 
d="M159 670c0 64 52 115 116 115s115 -51 115 -115s-51 -116 -115 -116s-116 52 -116 116zM243 670c0 -19 13 -32 32 -32s32 13 32 32s-13 32 -32 32s-32 -13 -32 -32z" />
    <glyph glyph-name="grave" unicode="`" 
d="M174 730h107c15 0 21 -9 26 -16l82 -114c12 -16 0 -30 -13 -30h-69c-18 0 -24 6 -30 12l-115 121c-11 12 -7 27 12 27z" />
    <glyph glyph-name="cedilla" unicode="&#xb8;" 
d="M347 -84l-21 -92c-4 -17 -15 -24 -32 -24h-62c-32 0 -35 24 -30 39l29 92c5 17 15 24 32 24h54c32 0 34 -23 30 -39z" />
    <glyph glyph-name="caron" unicode="&#x2c7;" 
d="M231 714l35 -44c4 -6 10 -6 14 0l35 44c5 7 16 16 31 16h94c18 0 19 -19 13 -25l-119 -123c-6 -6 -12 -12 -29 -12h-62c-18 0 -24 6 -30 12l-119 123c-6 6 -6 25 11 25h95c15 0 26 -9 31 -16z" />
    <glyph glyph-name="asciitilde" unicode="~" 
d="M161 220c-22 0 -71 -12 -82 -26c-10 -13 -29 -11 -29 9v80c0 36 61 61 111 61c104 0 120 -45 228 -45c22 0 71 12 82 26c10 13 29 11 29 -9v-80c0 -36 -61 -61 -111 -61c-104 0 -120 45 -228 45z" />
    <glyph glyph-name="approxequal" unicode="&#x2248;" 
d="M161 300c-22 0 -71 -12 -82 -26c-10 -13 -29 -11 -29 9v80c0 36 61 61 111 61c104 0 120 -45 228 -45c22 0 71 12 82 26c10 13 29 11 29 -9v-80c0 -36 -61 -61 -111 -61c-104 0 -120 45 -228 45zM161 110c-22 0 -71 -12 -82 -26c-10 -13 -29 -11 -29 9v80
c0 36 61 61 111 61c104 0 120 -45 228 -45c22 0 71 12 82 26c10 13 29 11 29 -9v-80c0 -36 -61 -61 -111 -61c-104 0 -120 45 -228 45z" />
    <glyph glyph-name="AE" unicode="&#xc6;" 
d="M284 20v98c0 8 -6 15 -15 15h-87c-9 0 -13 -6 -15 -15l-28 -103c-2 -9 -10 -15 -19 -15h-95c-16 0 -22 11 -20 20l176 654c2 9 13 26 34 26h311c11 0 20 -9 20 -20v-100c0 -11 -9 -20 -20 -20h-102c-6 0 -10 -4 -10 -10v-120c0 -6 4 -10 10 -10h94c11 0 20 -9 20 -20
v-100c0 -11 -9 -20 -20 -20h-94c-6 0 -10 -4 -10 -10v-120c0 -6 4 -10 10 -10h103c11 0 20 -9 20 -20v-100c0 -11 -9 -20 -20 -20h-223c-11 0 -20 9 -20 20zM213 273h61c6 0 10 3 10 11v266c0 6 -4 10 -10 10h-2c-9 0 -12 -6 -13 -10l-54 -266c-2 -8 2 -11 8 -11z" />
    <glyph glyph-name="OE" unicode="&#x152;" 
d="M246 700h270c11 0 20 -9 20 -20v-100c0 -11 -9 -20 -20 -20h-111c-6 0 -10 -4 -10 -10v-120c0 -6 4 -10 10 -10h103c11 0 20 -9 20 -20v-100c0 -11 -9 -20 -20 -20h-103c-6 0 -10 -4 -10 -10v-120c0 -6 4 -10 10 -10h115c11 0 20 -9 20 -20v-100c0 -11 -9 -20 -20 -20
h-274c-123 0 -209 101 -223 221c-10 84 -10 174 0 258c14 120 100 221 223 221zM246 140c6 0 10 4 10 10v400c0 6 -4 10 -10 10c-46 0 -77 -37 -82 -81c-10 -84 -10 -174 0 -258c5 -44 36 -81 82 -81z" />
    <glyph glyph-name="registered" unicode="&#xae;" 
d="M13 350c0 142 115 256 257 256s256 -114 256 -256s-114 -257 -256 -257s-257 115 -257 257zM88 350c0 -101 81 -182 182 -182c100 0 181 81 181 182c0 100 -81 181 -181 181c-101 0 -182 -81 -182 -181zM291 420h-40c-2 0 -6 -2 -6 -6v-34c0 -3 4 -4 6 -4h40
c15 0 22 11 22 22c0 10 -7 22 -22 22zM338 326c-10 -6 -15 -6 -10 -16l41 -78c5 -8 1 -16 -9 -16h-41c-9 0 -12 4 -16 11l-38 76c-2 4 -4 7 -9 7h-5c-2 0 -6 -2 -6 -5v-78c0 -6 -4 -11 -10 -11h-45c-4 0 -9 5 -9 11v247c0 6 5 11 9 11h101c48 0 86 -40 86 -87
c0 -31 -15 -57 -39 -72z" />
    <glyph glyph-name="trademark" unicode="&#x2122;" 
d="M75 612h-51c-6 0 -10 5 -10 10v68c0 5 4 10 10 10h200c5 0 10 -5 10 -10v-68c0 -5 -5 -10 -10 -10h-51c-3 0 -5 -2 -5 -5v-247c0 -6 -5 -10 -10 -10h-68c-5 0 -10 4 -10 10v247c0 3 -2 5 -5 5zM363 691l28 -91c2 -5 7 -5 9 0l28 91c2 6 5 9 11 9h79c5 0 10 -5 10 -10
v-330c0 -6 -5 -10 -10 -10h-59c-6 0 -10 4 -10 10v182c0 2 -3 3 -4 0l-24 -69c-2 -6 -5 -8 -10 -8h-30c-5 0 -8 2 -10 8l-24 69c-1 3 -4 2 -4 0v-182c0 -6 -5 -10 -10 -10h-59c-6 0 -10 4 -10 10v330c0 5 4 10 10 10h79c5 0 8 -3 10 -9z" />
    <glyph glyph-name="notequal" unicode="&#x2260;" 
d="M318 214h157c11 0 20 -9 20 -20v-87c0 -11 -9 -20 -20 -20h-242c-8 0 -11 -3 -14 -7l-41 -55c-7 -10 -12 -15 -21 -15h-69c-13 0 -25 15 -16 28l29 42c2 3 1 7 -5 7h-21c-11 0 -20 9 -20 20v87c0 11 9 20 20 20h106c8 0 11 3 14 7l41 58c2 3 1 7 -5 7h-156
c-11 0 -20 9 -20 20v87c0 11 9 20 20 20h241c8 0 11 3 14 7l39 55c7 10 10 15 19 15h72c13 0 25 -15 16 -28l-30 -42c-2 -3 -1 -7 5 -7h24c11 0 20 -9 20 -20v-87c0 -11 -9 -20 -20 -20h-108c-8 0 -11 -3 -14 -7l-40 -58c-2 -3 -1 -7 5 -7z" />
    <glyph glyph-name="infinity" unicode="&#x221e;" 
d="M267 343c2 -5 5 -11 13 -11c7 0 11 5 13 11c16 40 58 85 115 85c81 0 129 -69 129 -169s-48 -170 -129 -170c-53 0 -96 57 -113 86c-4 7 -7 11 -13 11c-8 0 -13 -6 -15 -11c-24 -49 -61 -86 -115 -86c-81 0 -129 70 -129 170s48 169 129 169c57 0 99 -45 115 -85z
M440 259c0 38 -15 61 -35 61c-32 0 -60 -61 -60 -61s28 -62 60 -62c20 0 35 23 35 62zM120 259c0 -39 15 -62 35 -62c32 0 60 62 60 62s-28 61 -60 61c-20 0 -35 -23 -35 -61z" />
    <glyph glyph-name="paragraph" unicode="&#xb6;" 
d="M210 360c-88 0 -160 79 -160 170c0 94 76 170 170 170h260c11 0 20 -9 20 -20v-760c0 -11 -9 -20 -20 -20h-60c-11 0 -20 9 -20 20v675c0 6 -4 10 -10 10h-60c-6 0 -10 -4 -10 -10v-675c0 -11 -9 -20 -20 -20h-60c-11 0 -20 9 -20 20v430c0 6 -4 10 -10 10z" />
    <glyph glyph-name="dagger" unicode="&#x2020;" 
d="M335 360v-460c0 -11 -9 -20 -20 -20h-80c-11 0 -20 9 -20 20v460c0 6 -4 10 -10 10h-130c-11 0 -20 9 -20 20v80c0 11 9 20 20 20h130c6 0 10 4 10 10v180c0 11 9 20 20 20h80c11 0 20 -9 20 -20v-180c0 -6 4 -10 10 -10h130c11 0 20 -9 20 -20v-80c0 -11 -9 -20 -20 -20
h-130c-6 0 -10 -4 -10 -10z" />
    <glyph glyph-name="degree" unicode="&#xb0;" 
d="M126 585c0 82 66 148 149 148c82 0 148 -66 148 -148c0 -83 -66 -149 -148 -149c-83 0 -149 66 -149 149zM225 585c0 -27 23 -50 50 -50s49 23 49 50s-22 49 -49 49s-50 -22 -50 -49z" />
    <glyph glyph-name="onehalf" unicode="&#xbd;" 
d="M28 617l75 71c5 5 13 12 25 12h68c5 0 10 -5 10 -10v-330c0 -6 -5 -10 -10 -10h-72c-5 0 -10 4 -10 10v214c0 6 -6 7 -9 4l-68 -57c-6 -6 -17 -2 -17 8v66c0 8 0 15 8 22zM510 672l-379 -657c-6 -10 -12 -15 -21 -15h-50c-13 0 -24 14 -16 28l380 657c6 10 13 15 22 15
h48c13 0 24 -15 16 -28zM443 252c0 12 -10 24 -27 24c-24 0 -30 -16 -30 -30v-9c0 -5 -5 -10 -10 -10h-64c-5 0 -10 6 -10 10v8c0 63 53 112 115 112c63 0 114 -40 114 -103c0 -30 -23 -61 -36 -74l-84 -84c-3 -3 -5 -11 6 -11h109c6 0 10 -6 10 -10v-65
c0 -5 -5 -10 -10 -10h-217c-5 0 -10 5 -10 10v79c0 7 2 10 4 12l107 106c20 19 33 33 33 45z" />
    <glyph glyph-name="fraction" unicode="&#x2044;" horiz-adv-x="0" 
d="M265 672l-426 -657c-6 -10 -12 -15 -21 -15h-67c-13 0 -25 14 -16 28l427 657c6 10 13 15 22 15h65c13 0 25 -15 16 -28z" />
    <glyph glyph-name="onequarter" unicode="&#xbc;" 
d="M28 617l75 71c5 5 13 12 25 12h68c5 0 10 -5 10 -10v-330c0 -6 -5 -10 -10 -10h-72c-5 0 -10 4 -10 10v214c0 6 -6 7 -9 4l-68 -57c-6 -6 -17 -2 -17 8v66c0 8 0 15 8 22zM485 135h22c6 0 10 -4 10 -10v-60c0 -5 -4 -10 -10 -10h-22c-3 0 -5 -2 -5 -5v-40
c0 -6 -5 -10 -10 -10h-60c-6 0 -10 4 -10 10v40c0 3 -2 5 -5 5h-128c-5 0 -10 5 -10 10v69c0 7 4 13 8 19l126 190c3 5 5 7 10 7h69c5 0 10 -5 10 -10v-200c0 -3 2 -5 5 -5zM394 217l-47 -76c-2 -3 -1 -6 3 -6h45c3 0 5 2 5 5v75c0 4 -4 4 -6 2zM510 672l-379 -657
c-6 -10 -12 -15 -21 -15h-50c-13 0 -24 14 -16 28l380 657c6 10 13 15 22 15h48c13 0 24 -15 16 -28z" />
    <glyph glyph-name="threequarters" unicode="&#xbe;" 
d="M502 135h22c6 0 10 -4 10 -10v-60c0 -5 -4 -10 -10 -10h-22c-3 0 -5 -2 -5 -5v-40c0 -6 -5 -10 -10 -10h-60c-6 0 -10 4 -10 10v40c0 3 -2 5 -5 5h-128c-5 0 -10 5 -10 10v69c0 7 4 13 8 19l126 190c3 5 5 7 10 7h69c5 0 10 -5 10 -10v-200c0 -3 2 -5 5 -5zM411 217
l-47 -76c-2 -3 -1 -6 3 -6h45c3 0 5 2 5 5v75c0 4 -4 4 -6 2zM532 672l-379 -657c-6 -10 -12 -15 -21 -15h-50c-13 0 -24 14 -16 28l380 657c6 10 13 15 22 15h48c13 0 24 -15 16 -28zM178 454c0 21 -11 38 -37 38h-6c-6 0 -10 5 -10 10v54c0 6 4 10 10 10h6
c23 0 33 14 33 34s-15 30 -33 30c-17 0 -33 -13 -33 -30v-7c0 -6 -5 -10 -10 -10h-64c-6 0 -10 4 -10 10v7c0 59 42 105 117 105c59 0 116 -35 116 -105c0 -29 -18 -55 -36 -65c-4 -2 -3 -7 0 -9c21 -12 41 -35 41 -72c0 -72 -59 -110 -121 -110c-82 0 -122 48 -122 110v5
c0 5 5 10 10 10h63c6 0 10 -5 10 -10v-5c0 -18 17 -33 39 -33c18 0 37 13 37 33z" />
    <glyph glyph-name="section" unicode="&#xa7;" 
d="M204 256l126 -109c11 -9 16 -3 19 0c12 12 20 25 20 38c0 12 -5 29 -22 44l-127 111c-11 9 -16 3 -19 0c-11 -13 -19 -28 -19 -42c0 -13 5 -27 22 -42zM84 -35v24c0 12 9 21 20 21h84c11 0 20 -9 20 -21v-24c0 -35 24 -52 60 -52c31 0 53 13 53 45c0 18 -13 34 -27 47
c-54 47 -126 107 -179 156c-44 42 -62 79 -62 142c0 52 34 95 77 128c-22 31 -32 64 -32 98c0 112 94 173 184 173c100 0 180 -69 180 -177v-14c0 -12 -9 -21 -20 -21h-84c-11 0 -20 9 -20 21v14c0 29 -21 52 -56 52c-31 0 -54 -16 -54 -44c0 -21 8 -40 24 -53l179 -155
c43 -38 65 -86 65 -141c0 -54 -33 -102 -72 -134c19 -25 28 -56 28 -92c0 -109 -93 -169 -184 -169c-99 0 -184 57 -184 176z" />
    <glyph glyph-name="oe" unicode="&#x153;" 
d="M303 28c-9 11 -25 9 -33 -1c-18 -22 -44 -38 -96 -38c-119 0 -172 132 -172 266c0 131 60 256 171 256c50 0 75 -17 97 -39c7 -7 23 -10 33 -1c24 22 52 40 91 40c104 0 154 -96 154 -251v-30c-1 -11 -9 -20 -20 -20h-183c-9 0 -15 -6 -15 -15c0 -55 22 -89 61 -89
c27 0 45 14 52 46c3 13 14 17 23 17h63c10 0 17 -6 17 -20c0 -69 -55 -160 -148 -160c-49 0 -81 23 -95 39zM325 319c0 -6 4 -9 10 -9h101c6 0 10 3 10 9c0 48 -24 73 -58 74c-42 0 -63 -36 -63 -74zM112 256c0 -83 11 -141 61 -141s61 58 61 141c0 80 -22 125 -61 125
c-36 0 -61 -45 -61 -125z" />
    <glyph glyph-name="ae" unicode="&#xe6;" 
d="M294 24c-13 11 -27 10 -38 0c-26 -23 -64 -35 -102 -35c-86 0 -151 66 -151 165c0 69 56 156 159 156h36c6 0 10 4 10 10v16c-1 41 -21 61 -48 61c-17 0 -33 -12 -38 -38c-4 -17 -9 -19 -27 -19h-62c-11 0 -20 9 -20 20c0 73 50 151 149 151c42 0 68 -13 99 -38
c8 -7 20 -9 30 0c25 21 58 38 96 38c108 0 160 -96 160 -251v-30c-1 -11 -9 -20 -20 -20h-183c-9 0 -15 -6 -15 -15c0 -55 22 -89 61 -89c27 0 45 14 52 46c3 13 14 17 23 17h63c10 0 17 -6 17 -20c0 -69 -55 -160 -148 -160c-49 0 -87 21 -103 35zM203 204h-46
c-29 0 -42 -32 -42 -50c0 -37 20 -52 47 -52c35 0 51 28 51 78v14c0 6 -4 10 -10 10zM324 319c0 -6 4 -9 10 -9h101c6 0 10 3 10 9c0 48 -24 74 -58 74c-42 0 -63 -36 -63 -74z" />
    <glyph glyph-name="thorn" unicode="&#xfe;" 
d="M274 385c-49 0 -73 -25 -76 -60c-3 -40 -3 -110 0 -150c3 -38 27 -60 76 -60c48 0 73 27 75 60c3 40 3 110 0 150c-2 33 -27 60 -75 60zM69 -180v870c0 11 9 20 20 20h90c11 0 20 -9 20 -20v-166c0 -22 15 -27 30 -21c14 6 30 12 60 12c105 0 182 -85 190 -190
c3 -40 3 -110 0 -150c-8 -105 -85 -190 -190 -190c-30 0 -46 6 -60 12c-15 6 -30 1 -30 -21v-156c0 -11 -9 -20 -20 -20h-90c-11 0 -20 9 -20 20z" />
    <glyph glyph-name="Thorn" unicode="&#xde;" 
d="M350 330v50c0 38 -32 70 -70 70h-70c-6 0 -10 -4 -10 -10v-170c0 -6 4 -10 10 -10h70c38 0 70 31 70 70zM490 380v-50c0 -116 -95 -210 -210 -210h-70c-6 0 -10 -4 -10 -10v-90c0 -11 -9 -20 -20 -20h-100c-11 0 -20 9 -20 20v660c0 11 9 20 20 20h100c11 0 20 -9 20 -20
v-80c0 -6 4 -10 10 -10h70c115 0 210 -95 210 -210z" />
    <glyph glyph-name="cent" unicode="&#xa2;" 
d="M357 -1c-10 -4 -15 -8 -15 -17v-32c0 -11 -9 -20 -20 -20h-85c-11 0 -20 9 -20 20v33c0 9 -7 12 -16 15c-76 26 -121 96 -131 177c-5 40 -5 110 0 150c10 81 54 151 131 177c9 3 16 6 16 15v33c0 11 9 20 20 20h85c11 0 20 -9 20 -20v-33c0 -9 5 -14 14 -17
c73 -26 127 -92 127 -185c0 -11 -6 -20 -17 -20h-89c-9 0 -18 5 -19 16c-3 49 -35 74 -81 74c-50 0 -72 -22 -77 -60c-5 -40 -5 -110 0 -150c4 -35 27 -60 78 -60c44 0 72 20 80 74c2 11 10 16 19 16h89c11 0 17 -9 17 -20c0 -91 -53 -157 -126 -186z" />
    <glyph glyph-name="minus" unicode="&#x2212;" 
d="M70 325h410c11 0 20 -9 20 -20v-89c0 -11 -9 -20 -20 -20h-410c-11 0 -20 9 -20 20v89c0 11 9 20 20 20z" />
    <glyph glyph-name="brokenbar" unicode="&#xa6;" 
d="M333 687v-267c0 -11 -9 -20 -20 -20h-76c-11 0 -20 9 -20 20v267c0 11 9 20 20 20h76c11 0 20 -9 20 -20zM333 287v-267c0 -11 -9 -20 -20 -20h-76c-11 0 -20 9 -20 20v267c0 11 9 20 20 20h76c11 0 20 -9 20 -20z" />
    <glyph glyph-name="daggerdbl" unicode="&#x2021;" 
d="M208 158h-128c-11 0 -20 9 -20 20v78c0 11 9 20 20 20h128c6 0 10 4 10 10v128c0 6 -4 10 -10 10h-128c-11 0 -20 9 -20 20v78c0 11 9 20 20 20h128c6 0 10 4 10 10v128c0 11 9 20 20 20h74c11 0 20 -9 20 -20v-128c0 -6 4 -10 10 -10h128c11 0 20 -9 20 -20v-78
c0 -11 -9 -20 -20 -20h-128c-6 0 -10 -4 -10 -10v-128c0 -6 4 -10 10 -10h128c11 0 20 -9 20 -20v-78c0 -11 -9 -20 -20 -20h-128c-6 0 -10 -4 -10 -10v-128c0 -11 -9 -20 -20 -20h-74c-11 0 -20 9 -20 20v128c0 6 -4 10 -10 10z" />
    <glyph glyph-name="quotedblbase" unicode="&#x201e;" 
d="M351 0h-24c-11 0 -20 9 -20 20v120c0 11 9 20 20 20h120c11 0 20 -9 20 -20v-117c0 -26 -9 -52 -22 -69l-64 -84c-6 -9 -14 -20 -34 -20h-20c-20 0 -31 20 -21 38l54 99c4 7 -3 13 -9 13zM131 0h-24c-11 0 -20 9 -20 20v120c0 11 9 20 20 20h120c11 0 20 -9 20 -20v-117
c0 -26 -9 -52 -22 -69l-64 -84c-6 -9 -14 -20 -34 -20h-20c-20 0 -31 20 -21 38l54 99c4 7 -3 13 -9 13z" />
    <glyph glyph-name="quotesinglbase" unicode="&#x201a;" 
d="M241 0h-24c-11 0 -20 9 -20 20v120c0 11 9 20 20 20h120c11 0 20 -9 20 -20v-117c0 -26 -9 -52 -22 -69l-64 -84c-6 -9 -14 -20 -34 -20h-20c-20 0 -31 20 -21 38l54 99c4 7 -3 13 -9 13z" />
    <glyph glyph-name="periodcentered" unicode="&#xb7;" 
d="M366 326v-143c0 -11 -9 -20 -20 -20h-143c-11 0 -20 9 -20 20v143c0 11 9 20 20 20h143c11 0 20 -9 20 -20z" />
    <glyph glyph-name="divide" unicode="&#xf7;" 
d="M70 311h410c11 0 20 -9 20 -20v-79c0 -11 -9 -20 -20 -20h-410c-11 0 -20 9 -20 20v79c0 11 9 20 20 20zM346 123v-103c0 -11 -9 -20 -20 -20h-103c-11 0 -20 9 -20 20v103c0 11 9 20 20 20h103c11 0 20 -9 20 -20zM346 480v-103c0 -11 -9 -20 -20 -20h-103
c-11 0 -20 9 -20 20v103c0 11 9 20 20 20h103c11 0 20 -9 20 -20z" />
    <glyph glyph-name="mu" unicode="&#x3bc;" 
d="M70 -180c0 220 1 440 1 660c0 11 8 20 19 20h60c19 0 50 5 50 -20v-306c0 -33 27 -59 75 -59c47 0 75 25 75 55v310c0 11 9 20 20 20h90c11 0 20 -9 20 -20v-460c0 -11 -9 -20 -20 -20h-50c-24 0 -23 20 -45 20c-26 0 -36 -30 -93 -30c-19 0 -31 6 -42 11
c-15 6 -30 1 -30 -21v-160c0 -11 -9 -20 -20 -20h-90c-11 0 -20 9 -20 20z" />
    <glyph glyph-name="lslash" unicode="&#x142;" 
d="M220 355v218c0 6 -4 10 -10 10h-100c-11 0 -20 9 -20 20v87c0 11 9 20 20 20h224c9 0 16 -8 16 -16v-255c0 -6 4 -8 10 -4l51 34c15 9 30 0 30 -17v-74c0 -17 -6 -24 -21 -33l-63 -40c-5 -3 -7 -8 -7 -12v-153c0 -6 4 -10 10 -10h120c11 0 20 -9 20 -20v-90
c0 -11 -9 -20 -20 -20h-380c-11 0 -20 9 -20 20v90c0 11 9 20 20 20h110c6 0 10 4 10 10v72c0 5 -4 6 -7 4l-23 -13c-13 -8 -34 0 -34 20v68c0 17 11 26 26 35l32 19c3 1 6 6 6 10z" />
    <glyph glyph-name="Eth" unicode="&#xd0;" 
d="M44 430v250c0 11 9 20 20 20h210c123 0 209 -101 223 -221c10 -84 10 -174 0 -258c-14 -120 -100 -221 -223 -221h-210c-11 0 -20 9 -20 20v250c0 6 -4 10 -10 10h-7c-11 0 -20 9 -20 20v100c0 11 9 20 20 20h7c6 0 10 4 10 10zM184 270v-120c0 -6 4 -10 10 -10h80
c46 0 77 37 82 81c10 84 10 174 0 258c-5 44 -36 81 -82 81h-80c-6 0 -10 -4 -10 -10v-120c0 -6 4 -10 10 -10h80c11 0 20 -9 20 -20v-100c0 -11 -9 -20 -20 -20h-80c-6 0 -10 -4 -10 -10z" />
    <glyph glyph-name="multiply" unicode="&#xd7;" 
d="M88 155l88 88c4 4 4 10 0 14l-88 88c-8 8 -8 21 0 29l63 63c7 7 21 8 28 0l88 -89c4 -4 10 -4 14 0l89 89c8 8 21 8 29 0l63 -63c7 -7 7 -20 0 -28l-89 -89c-5 -4 -5 -10 0 -14l89 -89c7 -8 7 -21 0 -28l-63 -63c-8 -8 -21 -8 -29 0l-89 89c-4 4 -10 4 -14 0l-88 -89
c-7 -8 -21 -7 -28 0l-63 63c-8 8 -8 21 0 29z" />
    <glyph glyph-name="partialdiff" unicode="&#x2202;" 
d="M239 570h-66c-11 0 -20 9 -20 20v90c0 11 9 20 20 20h66c118 0 197 -75 238 -220c20 -70 26 -190 16 -274c-14 -120 -76 -217 -218 -217c-123 0 -223 96 -223 219v35c0 123 100 217 223 217c12 0 33 -3 46 -10c11 -6 23 -1 23 13c0 70 -57 107 -105 107zM275 120
c52 0 85 34 89 86c1 14 1 24 0 39c-4 52 -37 90 -89 90s-85 -38 -89 -90c-1 -15 -1 -25 0 -39c4 -52 37 -86 89 -86z" />
    <glyph glyph-name="eth" unicode="&#xf0;" 
d="M236 570h-63c-11 0 -20 9 -20 20v90c0 11 9 20 20 20h66c48 0 90 -12 125 -37c2 -1 5 -2 9 1l72 41c10 6 25 -1 25 -14v-61c0 -13 -4 -17 -13 -24l-15 -10c-4 -3 -7 -7 -5 -10c47 -75 72 -242 56 -380c-13 -120 -77 -217 -218 -217c-140 0 -223 96 -223 219
c0 140 75 252 223 252c12 0 33 -3 46 -10c11 -6 23 -1 23 13c0 24 -14 69 -26 61l-67 -46c-10 -7 -28 -1 -28 14v40c0 11 0 18 15 28c9 6 3 10 -2 10zM275 120c52 0 85 34 89 86c5 70 -21 129 -89 129c-52 0 -85 -38 -89 -90c-5 -73 21 -125 89 -125z" />
    <glyph glyph-name="Omega" unicode="&#x3a9;" 
d="M446 142c-11 -7 -8 -22 7 -22h57c11 0 20 -9 20 -20v-80c0 -11 -9 -20 -20 -20h-186c-11 0 -20 9 -20 20v109c0 9 1 30 25 46c45 33 85 95 85 226c0 101 -46 175 -139 175s-138 -74 -138 -175c0 -131 40 -193 85 -226c24 -16 25 -37 25 -46v-109c0 -11 -9 -20 -20 -20
h-186c-11 0 -20 9 -20 20v80c0 11 9 20 20 20h57c15 0 19 14 8 21c-69 51 -96 176 -96 261c0 160 93 301 265 301s266 -141 266 -301c0 -88 -26 -208 -95 -260z" />
    <glyph glyph-name="Euro" unicode="&#x20ac;" 
d="M401 218c1 11 9 20 20 20h100c11 0 20 -9 20 -20c0 -134 -99 -229 -238 -229c-138 0 -224 101 -238 221c-2 18 -3 20 -11 20h-24c-11 0 -20 9 -20 20v62c0 11 9 20 20 20h19c7 0 8 5 8 8v39c0 2 -2 5 -6 5h-21c-11 0 -20 9 -20 20v62c0 11 9 20 20 20h26c4 0 9 3 9 7
c15 118 101 218 238 218c139 0 238 -95 238 -229c0 -11 -9 -20 -20 -20h-60c-21 0 -57 -8 -60 20c-4 52 -41 88 -98 88c-60 0 -89 -35 -97 -77c-1 -5 2 -7 5 -7h109c11 0 20 -9 20 -20v-62c0 -11 -9 -20 -20 -20h-114c-5 0 -8 -3 -8 -8v-34c0 -6 2 -10 9 -10h113
c11 0 20 -9 20 -20v-62c0 -11 -9 -20 -20 -20h-105c-7 0 -10 -4 -9 -20c4 -44 36 -80 97 -80c57 0 94 36 98 88z" />
    <glyph glyph-name="ellipsis" unicode="&#x2026;" 
d="M151 140v-120c0 -11 -9 -20 -20 -20h-110c-11 0 -20 9 -20 20v120c0 11 9 20 20 20h110c11 0 20 -9 20 -20zM549 140v-120c0 -11 -9 -20 -20 -20h-110c-11 0 -20 9 -20 20v120c0 11 9 20 20 20h110c11 0 20 -9 20 -20zM351 140v-120c0 -11 -9 -20 -20 -20h-110
c-11 0 -20 9 -20 20v120c0 11 9 20 20 20h110c11 0 20 -9 20 -20z" />
    <glyph glyph-name="Oslash" unicode="&#xd8;" 
d="M134 24l-5 -9c-6 -10 -12 -15 -21 -15h-64c-13 0 -24 14 -16 28l41 68c6 9 2 13 1 15c-17 30 -27 64 -31 99c-10 84 -10 196 0 280c14 120 100 221 238 221c49 0 92 -13 127 -35c4 -2 9 -7 15 2l5 7c6 10 10 15 19 15h64c13 0 24 -15 16 -28l-40 -66c-6 -10 -1 -13 0 -16
c17 -30 27 -64 32 -100c10 -84 10 -196 0 -280c-14 -120 -100 -221 -238 -221c-52 0 -97 13 -133 37c-2 1 -6 5 -10 -2zM277 130c61 0 92 36 97 80c7 62 9 139 6 208c0 5 -3 10 -7 3l-160 -265c-3 -5 0 -8 2 -9c16 -11 36 -17 62 -17zM277 570c-61 0 -92 -36 -97 -80
c-8 -62 -10 -139 -7 -208c0 -4 3 -8 7 -1l157 260c5 9 1 12 -1 13c-15 10 -35 16 -59 16z" />
    <glyph glyph-name="plusminus" unicode="&#xb1;" 
d="M75 483h125c6 0 10 4 10 10v125c0 11 9 20 20 20h89c11 0 20 -9 20 -20v-125c0 -6 4 -10 10 -10h126c11 0 20 -9 20 -20v-89c0 -11 -9 -20 -20 -20h-126c-6 0 -10 -4 -10 -10v-126c0 -11 -9 -20 -20 -20h-89c-11 0 -20 9 -20 20v126c0 6 -4 10 -10 10h-125
c-11 0 -20 9 -20 20v89c0 11 9 20 20 20zM78 129h394c11 0 20 -9 20 -20v-89c0 -11 -9 -20 -20 -20h-394c-11 0 -20 9 -20 20v89c0 11 9 20 20 20z" />
    <glyph glyph-name="lessequal" unicode="&#x2264;" 
d="M252 416l202 -101c10 -5 15 -12 15 -21v-105c0 -16 -14 -24 -23 -19l-362 204c-9 5 -15 13 -15 32v29c0 19 6 27 15 32l362 203c9 5 23 -3 23 -19v-105c0 -9 -5 -15 -15 -21l-202 -101c-4 -2 -4 -6 0 -8zM78 129h394c11 0 20 -9 20 -20v-89c0 -11 -9 -20 -20 -20h-394
c-11 0 -20 9 -20 20v89c0 11 9 20 20 20z" />
    <glyph glyph-name="greaterequal" unicode="&#x2265;" 
d="M96 315l202 101c4 2 4 6 0 8l-202 101c-10 5 -15 12 -15 21v105c0 16 14 24 23 19l362 -203c9 -5 15 -13 15 -32v-29c0 -19 -6 -27 -15 -32l-362 -204c-9 -5 -23 3 -23 19v105c0 9 5 16 15 21zM78 129h394c11 0 20 -9 20 -20v-89c0 -11 -9 -20 -20 -20h-394
c-11 0 -20 9 -20 20v89c0 11 9 20 20 20z" />
    <glyph glyph-name="summation" unicode="&#x2211;" 
d="M269 270l-175 271c-3 5 -9 15 -9 30v109c0 11 9 20 20 20h343c11 0 20 -9 20 -20v-100c0 -11 -9 -20 -20 -20h-203c-10 0 -12 -7 -9 -12l172 -268c7 -12 10 -24 0 -40l-182 -287c-3 -5 0 -13 9 -13h215c11 0 20 -9 20 -20v-100c0 -11 -9 -20 -20 -20h-355
c-11 0 -20 9 -20 20v109c0 15 6 25 9 30l185 290c4 7 3 16 0 21z" />
    <glyph glyph-name="product" unicode="&#x220f;" 
d="M357 -180v730c0 6 -4 10 -10 10h-136c-6 0 -10 -4 -10 -10v-730c0 -11 -9 -20 -20 -20h-82c-11 0 -20 9 -20 20v860c0 11 9 20 20 20h360c11 0 20 -9 20 -20v-860c0 -11 -9 -20 -20 -20h-82c-11 0 -20 9 -20 20z" />
    <glyph glyph-name="pi" unicode="&#x3c0;" 
d="M504 370h-61c-6 0 -10 -4 -10 -10v-170c0 -49 18 -71 76 -71c11 0 20 -9 20 -20v-79c0 -11 -9 -20 -20 -20c-132 0 -200 58 -200 190v170c0 5 -3 10 -8 10h-67c-6 0 -10 -4 -10 -10v-340c0 -11 -9 -20 -20 -20h-85c-11 0 -20 9 -20 20v340c0 6 -4 10 -10 10h-45
c-11 0 -20 9 -20 20v90c0 11 9 20 20 20h460c11 0 20 -9 20 -20v-90c0 -11 -9 -20 -20 -20z" />
    <glyph glyph-name="integral" unicode="&#x222b;" 
d="M204 -13v533c0 120 86 187 200 187h40c11 0 20 -9 20 -20v-72c0 -11 -9 -20 -20 -20h-40c-56 0 -80 -19 -80 -75v-533c0 -120 -86 -187 -200 -187h-40c-11 0 -20 9 -20 20v72c0 11 9 20 20 20h40c59 0 80 22 80 75z" />
    <glyph glyph-name="ordfeminine" unicode="&#xaa;" 
d="M242 550h-54c-17 0 -22 -15 -22 -20c0 -15 12 -22 30 -22c22 0 50 7 50 28v10c0 2 -2 4 -4 4zM208 648c-10 0 -31 -3 -38 -16c-4 -8 -5 -9 -14 -9h-43c-5 0 -10 4 -10 10c0 45 47 75 107 75c55 0 107 -26 107 -90v-155c0 -6 -5 -10 -10 -10h-32c-3 0 -5 1 -7 3
c-3 4 -4 10 -10 10c-9 0 -33 -19 -70 -19c-58 0 -94 30 -94 83c0 34 28 78 86 78h61c3 0 5 2 5 5v8c0 20 -16 27 -38 27z" />
    <glyph glyph-name="ordmasculine" unicode="&#xba;" 
d="M215 634c-26 0 -40 -14 -44 -37c-2 -13 -2 -29 0 -41c4 -20 21 -34 44 -34s40 14 44 34c2 12 2 28 0 41c-4 23 -18 37 -44 37zM215 711c51 0 106 -35 115 -108c3 -20 2 -33 0 -51c-8 -69 -64 -107 -115 -107s-107 38 -115 107c-2 18 -3 31 0 51c9 73 64 108 115 108z" />
    <glyph glyph-name="logicalnot" unicode="&#xac;" 
d="M360 90v70c0 6 -4 10 -10 10h-270c-11 0 -20 9 -20 20v90c0 11 9 20 20 20h390c11 0 20 -9 20 -20v-190c0 -11 -9 -20 -20 -20h-90c-11 0 -20 9 -20 20z" />
    <glyph glyph-name="radical" unicode="&#x221a;" 
d="M421 860h183c11 0 20 -9 20 -20v-60c0 -11 -9 -20 -20 -20h-112l-215 -745c-3 -10 -10 -15 -19 -15h-96c-9 0 -16 5 -19 15l-118 371c-3 10 3 24 19 24h85c9 0 16 -4 19 -15l55 -228c1 -4 3 -6 6 -6h2c3 0 5 2 6 6l185 678c3 11 10 15 19 15z" />
    <glyph glyph-name="florin" unicode="&#x192;" 
d="M191 -10v377c0 6 -4 10 -10 10h-110c-11 0 -20 9 -20 20v80c0 11 9 20 20 20h110c6 0 10 4 10 10v20c0 104 86 183 190 183h90c11 0 20 -9 20 -20v-90c0 -11 -9 -20 -20 -20h-90c-33 0 -60 -22 -60 -55v-18c0 -6 4 -10 10 -10h140c11 0 20 -9 20 -20v-80
c0 -11 -9 -20 -20 -20h-140c-6 0 -10 -4 -10 -10v-377c0 -125 -38 -190 -154 -190h-71c-11 0 -20 9 -20 20v90c0 11 8 20 19 20h53c27 0 43 17 43 60z" />
    <glyph glyph-name="Delta" unicode="&#x394;" 
d="M513 0h-476c-11 0 -20 9 -20 20v51c0 11 5 24 7 29l200 585c3 10 10 15 19 15h64c9 0 16 -5 19 -15l200 -585c2 -5 7 -18 7 -29v-51c0 -11 -9 -20 -20 -20zM159 118h232c6 0 6 5 4 10l-115 373c-1 2 -1 4 -4 4h-2c-3 0 -4 -2 -4 -4l-115 -373c-2 -5 -2 -10 4 -10z" />
    <glyph glyph-name="breve" unicode="&#x2d8;" 
d="M335 713c0 9 7 17 17 17h63c9 0 17 -8 17 -17c0 -77 -62 -146 -157 -146c-96 0 -158 69 -158 146c0 9 8 17 17 17h63c10 0 17 -8 17 -17c0 -31 30 -56 61 -56s60 25 60 56z" />
    <glyph glyph-name="hungarumlaut" unicode="&#x2dd;" 
d="M180 730h107c19 0 23 -15 12 -27l-115 -121c-6 -6 -12 -12 -30 -12h-69c-13 0 -25 14 -13 30l82 114c5 7 11 16 26 16zM387 730h107c19 0 23 -15 12 -27l-115 -121c-6 -6 -12 -12 -30 -12h-69c-13 0 -25 14 -13 30l82 114c5 7 11 16 26 16z" />
    <glyph glyph-name="Dcroat" unicode="&#x110;" 
d="M44 430v250c0 11 9 20 20 20h210c123 0 209 -101 223 -221c10 -84 10 -174 0 -258c-14 -120 -100 -221 -223 -221h-210c-11 0 -20 9 -20 20v250c0 6 -4 10 -10 10h-7c-11 0 -20 9 -20 20v100c0 11 9 20 20 20h7c6 0 10 4 10 10zM184 270v-120c0 -6 4 -10 10 -10h80
c46 0 77 37 82 81c10 84 10 174 0 258c-5 44 -36 81 -82 81h-80c-6 0 -10 -4 -10 -10v-120c0 -6 4 -10 10 -10h80c11 0 20 -9 20 -20v-100c0 -11 -9 -20 -20 -20h-80c-6 0 -10 -4 -10 -10z" />
    <glyph glyph-name="oslash" unicode="&#xf8;" 
d="M505 472l-46 -59c-4 -5 -2 -7 -1 -9c12 -24 20 -51 24 -79c5 -40 5 -110 0 -150c-13 -105 -85 -186 -207 -186c-48 0 -86 11 -118 32c-2 2 -7 5 -12 -1l-6 -7c-7 -9 -15 -13 -24 -13h-66c-13 0 -21 16 -11 28l48 59c6 8 3 12 2 14c-10 22 -18 48 -21 74
c-5 40 -5 110 0 150c13 105 85 186 207 186c46 0 85 -12 116 -31c2 -1 5 -4 10 1l4 4c8 9 15 15 24 15h64c13 0 23 -16 13 -28zM352 175c4 25 5 63 4 98c0 4 -2 9 -7 2l-113 -140c-6 -7 -1 -10 2 -11c10 -3 22 -5 36 -5c51 0 73 23 78 56zM197 325c-4 -24 -6 -59 -5 -92
c0 -4 3 -10 9 -2l109 137c5 6 0 8 -3 9c-9 3 -21 4 -33 4c-50 0 -71 -18 -77 -56z" />
    <glyph glyph-name="macron" unicode="&#xaf;" 
d="M394 596h-262c-11 0 -20 9 -20 20v58c0 11 9 20 20 20h262c11 0 20 -9 20 -20v-58c0 -11 -9 -20 -20 -20z" />
    <glyph glyph-name="ogonek" unicode="&#x2db;" 
d="M354 0c-33 0 -60 -27 -60 -60s27 -60 60 -60c11 0 20 -9 20 -20v-60c0 -11 -9 -20 -20 -20c-100 0 -174 50 -174 160c0 100 84 160 174 160c11 0 20 -9 20 -20v-60c0 -11 -9 -20 -20 -20z" />
    <glyph glyph-name="commaaccent" unicode="&#xf6c3;" 
d="M105 -185h-24c-11 0 -20 9 -20 20v100c0 11 9 20 20 20h100c11 0 20 -9 20 -20v-97c0 -26 -10 -51 -22 -69l-34 -54c-6 -9 -14 -20 -34 -20h-10c-20 0 -30 20 -21 38l34 69c4 7 -3 13 -9 13z" />
    <glyph glyph-name="commaturn" 
d="M297 700h24c11 0 20 -9 20 -20v-100c0 -11 -9 -20 -20 -20h-100c-11 0 -20 9 -20 20v97c0 26 10 51 22 69l34 54c6 9 14 20 34 20h10c20 0 30 -20 21 -38l-34 -69c-4 -7 3 -13 9 -13z" />
    <glyph glyph-name="apostrophemod" unicode="&#x2bc;" 
d="M242 540h-24c-11 0 -20 9 -20 20v120c0 11 9 20 20 20h120c11 0 20 -9 20 -20v-117c0 -26 -9 -52 -22 -69l-64 -84c-6 -9 -14 -20 -34 -20h-20c-20 0 -31 20 -21 38l54 99c4 7 -3 13 -9 13z" />
    <glyph glyph-name="currency" unicode="&#xa4;" 
d="M479 575l65 -65c7 -8 8 -20 0 -28l-78 -79c14 -29 23 -62 23 -96c0 -36 -9 -69 -24 -98l80 -80c8 -8 7 -20 -1 -27l-65 -65c-7 -8 -19 -9 -27 -1l-80 79c-30 -15 -63 -24 -99 -24c-35 0 -68 8 -97 23l-77 -77c-8 -8 -20 -7 -28 0l-65 65c-7 8 -8 20 0 28l76 76
c-16 30 -25 64 -25 101c0 35 8 69 24 98l-76 78c-8 8 -7 20 1 27l65 65c7 8 19 9 27 1l76 -77c29 15 63 24 99 24s71 -9 101 -25l77 77c8 8 20 7 28 0zM172 307c0 -55 46 -101 101 -101c56 0 102 46 102 101c0 56 -46 102 -102 102c-55 0 -101 -46 -101 -102z" />
    <glyph glyph-name="Aogonek" unicode="&#x104;" 
d="M539 20c2 -9 -4 -20 -20 -20c-35 0 -59 -30 -59 -61c0 -34 23 -59 61 -59c11 0 20 -9 20 -20v-60c0 -11 -9 -20 -20 -20c-120 0 -179 63 -179 155c0 37 21 71 47 98l-25 85c-2 8 -6 15 -15 15h-152c-9 0 -13 -6 -15 -15l-28 -103c-2 -9 -10 -15 -19 -15h-105
c-16 0 -22 11 -20 20l179 665c2 9 10 15 19 15h134c9 0 17 -6 19 -15zM328 284l-48 240c-1 3 -2 4 -5 4h-2c-3 0 -4 -1 -5 -4l-48 -240c-2 -8 2 -11 8 -11h92c6 0 10 3 8 11z" />
    <glyph glyph-name="Aringacute" unicode="&#x1fa;" 
d="M332 1080h107c19 0 23 -15 12 -27l-105 -110c29 -21 47 -55 47 -93c0 -64 -51 -116 -115 -116s-116 52 -116 116c0 55 38 100 90 112l54 102c4 8 11 16 26 16zM246 850c0 -19 13 -32 32 -32s32 13 32 32s-13 32 -32 32s-32 -13 -32 -32zM182 118l-28 -103
c-2 -9 -10 -15 -19 -15h-105c-16 0 -22 11 -20 20l179 665c2 9 10 15 19 15h134c9 0 17 -6 19 -15l178 -665c2 -9 -4 -20 -20 -20h-105c-9 0 -16 6 -19 15l-31 103c-2 8 -6 15 -15 15h-152c-9 0 -13 -6 -15 -15zM268 524l-48 -240c-2 -8 2 -11 8 -11h92c6 0 10 3 8 11
l-48 240c-1 3 -2 4 -5 4h-2c-3 0 -4 -1 -5 -4z" />
    <glyph glyph-name="Eogonek" unicode="&#x118;" 
d="M211 430c0 -6 4 -10 10 -10h225c11 0 20 -9 20 -20v-100c0 -11 -9 -20 -20 -20h-225c-6 0 -10 -4 -10 -10v-120c0 -6 4 -10 10 -10h237c11 0 20 -9 20 -20v-100c0 -11 -9 -20 -20 -20c-35 0 -65 -23 -65 -60c0 -33 27 -60 60 -60c11 0 20 -9 20 -20v-60
c0 -11 -9 -20 -20 -20c-100 0 -174 50 -174 160c0 24 7 46 17 60h-205c-11 0 -20 9 -20 20v660c0 11 9 20 20 20h363c11 0 20 -9 20 -20v-100c0 -11 -9 -20 -20 -20h-233c-6 0 -10 -4 -10 -10v-120z" />
    <glyph glyph-name="Hbar" unicode="&#x126;" 
d="M189 680v-60c0 -6 4 -10 10 -10h152c6 0 10 4 10 10v60c0 11 9 20 20 20h100c11 0 20 -9 20 -20v-660c0 -11 -9 -20 -20 -20h-100c-11 0 -20 9 -20 20v250c0 6 -4 10 -10 10h-152c-6 0 -10 -4 -10 -10v-250c0 -11 -14 -20 -25 -20h-95c-11 0 -20 9 -20 20v660
c0 11 9 20 20 20h100c11 0 20 -9 20 -20zM189 490v-70c0 -6 4 -10 10 -10h152c6 0 10 4 10 10v70c0 6 -4 10 -10 10h-152c-6 0 -10 -4 -10 -10z" />
    <glyph glyph-name="Tbar" unicode="&#x166;" 
d="M204 20v350c0 6 -4 10 -10 10h-123c-11 0 -20 9 -20 20v80c0 11 9 20 20 20h123c6 0 10 4 10 10v50c0 6 -4 10 -10 10h-135c-11 0 -20 9 -20 20v90c0 11 9 20 20 20h430c11 0 20 -9 20 -20v-90c0 -11 -9 -20 -20 -20h-135c-6 0 -10 -4 -10 -10v-50c0 -6 4 -10 10 -10h122
c11 0 20 -9 20 -20v-80c0 -11 -9 -20 -20 -20h-122c-6 0 -10 -4 -10 -10v-350c0 -11 -9 -20 -20 -20h-100c-11 0 -20 9 -20 20z" />
    <glyph glyph-name="Uogonek" unicode="&#x172;" 
d="M179 680v-470c0 -44 36 -80 95 -80c61 0 97 36 97 80v470c0 11 9 20 20 20h101c11 0 20 -9 20 -20v-470c0 -51 -16 -99 -48 -135c-52 -59 -78 -85 -78 -135c0 -33 27 -60 60 -60c11 0 20 -9 20 -20v-60c0 -11 -9 -20 -20 -20c-100 0 -174 50 -174 160c0 18 6 37 13 49
h-11c-136 0 -236 100 -236 221v470c0 11 9 20 20 20h101c11 0 20 -9 20 -20z" />
    <glyph glyph-name="Eng" unicode="&#x14a;" 
d="M357 30l-158 348c-3 6 -9 4 -9 -2v-356c0 -11 -9 -20 -20 -20h-100c-11 0 -20 9 -20 20v660c0 11 9 20 20 20h119c15 0 22 -9 25 -18l137 -340c2 -6 9 -4 9 2v336c0 11 9 20 20 20h100c11 0 20 -9 20 -20v-669c0 -122 -91 -221 -231 -221c-11 0 -20 9 -20 20v100
c0 11 9 20 20 20c47 0 88 26 88 70v30z" />
    <glyph glyph-name="aogonek" unicode="&#x105;" 
d="M275 397c-21 0 -69 -4 -69 -38c0 -17 -9 -19 -27 -19h-72c-11 0 -20 9 -20 20c0 79 73 151 193 151c121 0 200 -65 200 -181v-310c0 -11 -9 -20 -20 -20c-38 0 -60 -20 -60 -60c0 -33 23 -60 50 -60c11 0 20 -9 20 -20v-60c0 -11 -9 -20 -20 -20c-94 0 -164 52 -164 150
c0 24 9 50 20 64c-13 -3 -33 -5 -50 -5c-116 0 -188 60 -188 165c0 69 57 156 172 156h102c6 0 10 4 10 10v16c0 41 -33 61 -77 61zM347 204h-106c-43 0 -51 -35 -51 -50c0 -37 30 -53 66 -53c57 0 101 17 101 69v24c0 6 -4 10 -10 10z" />
    <glyph glyph-name="dcroat" unicode="&#x111;" 
d="M267 115c49 0 73 25 76 60c3 40 3 110 0 150c-3 38 -27 60 -76 60c-48 0 -73 -27 -75 -60c-3 -40 -3 -110 0 -150c2 -33 27 -60 75 -60zM342 520v27c0 6 -4 10 -10 10h-60c-11 0 -20 9 -20 20v50c0 11 9 20 20 20h60c6 0 10 4 10 10v33c0 11 9 20 20 20h90
c11 0 20 -9 20 -20v-33c0 -6 4 -10 10 -10h25c11 0 20 -9 20 -20v-50c0 -11 -9 -20 -20 -20h-25c-6 0 -10 -4 -10 -10v-527c0 -11 -9 -20 -20 -20h-50c-6 0 -10 3 -14 7c-6 7 -15 16 -25 16c-29 0 -37 -34 -111 -34c-105 0 -182 81 -190 186c-3 40 -3 110 0 150
c8 105 85 186 190 186c30 0 46 -6 60 -12c15 -6 30 -1 30 21z" />
    <glyph glyph-name="eogonek" unicode="&#x119;" 
d="M447 72c-26 -36 -63 -72 -63 -132c0 -33 27 -60 60 -60c11 0 20 -9 20 -20v-60c0 -11 -9 -20 -20 -20c-100 0 -174 54 -174 155c0 17 5 39 13 54h-5c-122 0 -194 81 -207 186c-5 40 -5 110 0 150c13 105 85 186 207 186c120 0 204 -71 204 -198v-83c0 -11 -9 -20 -20 -20
h-257c-9 0 -15 -6 -15 -15c0 -55 40 -85 88 -85c39 0 66 10 79 42c5 13 14 17 23 17h83c10 0 21 -6 17 -22c-7 -28 -13 -47 -33 -75zM191 330c0 -6 4 -9 10 -9h152c6 0 10 3 10 9c0 43 -42 63 -85 63c-57 0 -87 -25 -87 -63z" />
    <glyph glyph-name="hbar" unicode="&#x127;" 
d="M206 547v-27c0 -17 11 -28 30 -21c14 5 30 12 60 12c105 0 190 -81 190 -186v-305c0 -11 -9 -20 -20 -20h-90c-11 0 -20 9 -20 20v305c0 33 -27 60 -75 60s-75 -27 -75 -60v-305c0 -11 -9 -20 -20 -20h-90c-11 0 -20 9 -20 20v527c0 6 -4 10 -10 10h-25
c-11 0 -20 9 -20 20v50c0 11 9 20 20 20h25c6 0 10 4 10 10v33c0 11 9 20 20 20h90c11 0 20 -9 20 -20v-33c0 -6 4 -10 10 -10h60c11 0 20 -9 20 -20v-50c0 -11 -9 -20 -20 -20h-60c-6 0 -10 -4 -10 -10z" />
    <glyph glyph-name="uogonek" unicode="&#x173;" 
d="M200 480v-306c0 -33 27 -59 75 -59c47 0 75 25 75 55v310c0 11 9 20 20 20h90c11 0 20 -9 20 -20v-460c0 -11 -8 -20 -18 -20h-7c-31 0 -55 -28 -55 -60c0 -33 27 -60 60 -60c11 0 20 -9 20 -20v-60c0 -11 -9 -20 -20 -20c-100 0 -174 48 -174 152c0 22 6 49 17 64
c-12 -4 -25 -7 -43 -7c-105 0 -190 81 -190 186v305c0 11 9 20 20 20h90c11 0 20 -9 20 -20z" />
    <glyph glyph-name="eng" unicode="&#x14b;" 
d="M283 -96c37 0 67 22 67 66v356c0 33 -27 59 -75 59c-47 0 -75 -25 -75 -55v-310c0 -11 -9 -20 -20 -20h-90c-11 0 -20 9 -20 20v460c0 11 9 20 20 20h50c23 0 22 -24 45 -24c29 0 50 35 110 35c105 0 185 -81 185 -186v-355c0 -101 -84 -185 -197 -185
c-11 0 -20 9 -20 20v79c0 11 9 20 20 20z" />
    <glyph glyph-name="lozenge" unicode="&#x25ca;" 
d="M525 347l-204 -332c-5 -9 -13 -15 -32 -15h-29c-19 0 -27 6 -32 15l-203 332c-3 5 -3 12 0 16l203 332c5 9 13 15 32 15h29c19 0 27 -6 32 -15l204 -332c3 -5 4 -10 0 -16zM380 355l-101 172c-2 4 -6 4 -8 0l-101 -172l101 -172c2 -4 6 -4 8 0z" />
    <glyph glyph-name="Agrave" unicode="&#xc0;" 
d="M182 118l-28 -103c-2 -9 -10 -15 -19 -15h-105c-16 0 -22 11 -20 20l179 665c2 9 10 15 19 15h134c9 0 17 -6 19 -15l178 -665c2 -9 -4 -20 -20 -20h-105c-9 0 -16 6 -19 15l-31 103c-2 8 -6 15 -15 15h-152c-9 0 -13 -6 -15 -15zM268 524l-48 -240c-2 -8 2 -11 8 -11h92
c6 0 10 3 8 11l-48 240c-1 3 -2 4 -5 4h-2c-3 0 -4 -1 -5 -4zM113 910h107c15 0 21 -9 26 -16l82 -114c12 -16 0 -30 -13 -30h-69c-18 0 -24 6 -30 12l-115 121c-11 12 -7 27 12 27z" />
    <glyph glyph-name="Aacute" unicode="&#xc1;" 
d="M182 118l-28 -103c-2 -9 -10 -15 -19 -15h-105c-16 0 -22 11 -20 20l179 665c2 9 10 15 19 15h134c9 0 17 -6 19 -15l178 -665c2 -9 -4 -20 -20 -20h-105c-9 0 -16 6 -19 15l-31 103c-2 8 -6 15 -15 15h-152c-9 0 -13 -6 -15 -15zM268 524l-48 -240c-2 -8 2 -11 8 -11h92
c6 0 10 3 8 11l-48 240c-1 3 -2 4 -5 4h-2c-3 0 -4 -1 -5 -4zM320 910h107c19 0 23 -15 12 -27l-115 -121c-6 -6 -12 -12 -30 -12h-69c-13 0 -25 14 -13 30l82 114c5 7 11 16 26 16z" />
    <glyph glyph-name="Acircumflex" unicode="&#xc2;" 
d="M182 118l-28 -103c-2 -9 -10 -15 -19 -15h-105c-16 0 -22 11 -20 20l179 665c2 9 10 15 19 15h134c9 0 17 -6 19 -15l178 -665c2 -9 -4 -20 -20 -20h-105c-9 0 -16 6 -19 15l-31 103c-2 8 -6 15 -15 15h-152c-9 0 -13 -6 -15 -15zM268 524l-48 -240c-2 -8 2 -11 8 -11h92
c6 0 10 3 8 11l-48 240c-1 3 -2 4 -5 4h-2c-3 0 -4 -1 -5 -4zM270 810l-35 -44c-5 -7 -16 -16 -31 -16h-95c-17 0 -17 19 -11 25l119 123c6 6 12 12 30 12h62c17 0 23 -6 29 -12l119 -123c6 -6 5 -25 -13 -25h-94c-15 0 -26 9 -31 16l-35 44c-4 6 -10 6 -14 0z" />
    <glyph glyph-name="Atilde" unicode="&#xc3;" 
d="M182 118l-28 -103c-2 -9 -10 -15 -19 -15h-105c-16 0 -22 11 -20 20l179 665c2 9 10 15 19 15h134c9 0 17 -6 19 -15l178 -665c2 -9 -4 -20 -20 -20h-105c-9 0 -16 6 -19 15l-31 103c-2 8 -6 15 -15 15h-152c-9 0 -13 -6 -15 -15zM268 524l-48 -240c-2 -8 2 -11 8 -11h92
c6 0 10 3 8 11l-48 240c-1 3 -2 4 -5 4h-2c-3 0 -4 -1 -5 -4zM367 864c25 0 38 11 46 21s25 5 25 -14v-60c0 -26 -31 -51 -71 -51c-64 0 -112 25 -180 25c-22 0 -35 -8 -46 -21c-8 -9 -25 -5 -25 14v60c0 26 31 51 71 51c64 0 112 -25 180 -25z" />
    <glyph glyph-name="Adieresis" unicode="&#xc4;" 
d="M182 118l-28 -103c-2 -9 -10 -15 -19 -15h-105c-16 0 -22 11 -20 20l179 665c2 9 10 15 19 15h134c9 0 17 -6 19 -15l178 -665c2 -9 -4 -20 -20 -20h-105c-9 0 -16 6 -19 15l-31 103c-2 8 -6 15 -15 15h-152c-9 0 -13 -6 -15 -15zM268 524l-48 -240c-2 -8 2 -11 8 -11h92
c6 0 10 3 8 11l-48 240c-1 3 -2 4 -5 4h-2c-3 0 -4 -1 -5 -4zM240 870v-90c0 -11 -9 -20 -20 -20h-90c-11 0 -20 9 -20 20v90c0 11 9 20 20 20h90c11 0 20 -9 20 -20zM440 870v-90c0 -11 -9 -20 -20 -20h-90c-11 0 -20 9 -20 20v90c0 11 9 20 20 20h90c11 0 20 -9 20 -20z
" />
    <glyph glyph-name="Amacron" unicode="&#x100;" 
d="M182 118l-28 -103c-2 -9 -10 -15 -19 -15h-105c-16 0 -22 11 -20 20l179 665c2 9 10 15 19 15h134c9 0 17 -6 19 -15l178 -665c2 -9 -4 -20 -20 -20h-105c-9 0 -16 6 -19 15l-31 103c-2 8 -6 15 -15 15h-152c-9 0 -13 -6 -15 -15zM268 524l-48 -240c-2 -8 2 -11 8 -11h92
c6 0 10 3 8 11l-48 240c-1 3 -2 4 -5 4h-2c-3 0 -4 -1 -5 -4zM406 760h-262c-11 0 -20 9 -20 20v58c0 11 9 20 20 20h262c11 0 20 -9 20 -20v-58c0 -11 -9 -20 -20 -20z" />
    <glyph glyph-name="Abreve" unicode="&#x102;" 
d="M182 118l-28 -103c-2 -9 -10 -15 -19 -15h-105c-16 0 -22 11 -20 20l179 665c2 9 10 15 19 15h134c9 0 17 -6 19 -15l178 -665c2 -9 -4 -20 -20 -20h-105c-9 0 -16 6 -19 15l-31 103c-2 8 -6 15 -15 15h-152c-9 0 -13 -6 -15 -15zM268 524l-48 -240c-2 -8 2 -11 8 -11h92
c6 0 10 3 8 11l-48 240c-1 3 -2 4 -5 4h-2c-3 0 -4 -1 -5 -4zM335 886c0 9 7 17 17 17h63c9 0 17 -8 17 -17c0 -77 -62 -146 -157 -146c-96 0 -158 69 -158 146c0 9 8 17 17 17h63c10 0 17 -8 17 -17c0 -31 30 -56 61 -56s60 25 60 56z" />
    <glyph glyph-name="Aring" unicode="&#xc5;" 
d="M182 118l-28 -103c-2 -9 -10 -15 -19 -15h-105c-16 0 -22 11 -20 20l179 665c2 9 10 15 19 15h134c9 0 17 -6 19 -15l178 -665c2 -9 -4 -20 -20 -20h-105c-9 0 -16 6 -19 15l-31 103c-2 8 -6 15 -15 15h-152c-9 0 -13 -6 -15 -15zM268 524l-48 -240c-2 -8 2 -11 8 -11h92
c6 0 10 3 8 11l-48 240c-1 3 -2 4 -5 4h-2c-3 0 -4 -1 -5 -4zM159 850c0 64 52 115 116 115s115 -51 115 -115s-51 -116 -115 -116s-116 52 -116 116zM243 850c0 -19 13 -32 32 -32s32 13 32 32s-13 32 -32 32s-32 -13 -32 -32z" />
    <glyph glyph-name="Ccaron" unicode="&#x10c;" 
d="M279 130c57 0 94 36 98 88c1 11 9 20 20 20h100c11 0 20 -9 20 -20c0 -134 -100 -229 -238 -229s-224 101 -238 221c-10 84 -10 196 0 280c14 120 100 221 238 221s238 -95 238 -229c0 -11 -9 -20 -20 -20h-100c-11 0 -19 9 -20 20c-4 52 -41 88 -98 88
c-61 0 -92 -36 -97 -80c-10 -84 -10 -196 0 -280c5 -44 36 -80 97 -80zM232 894l35 -44c4 -6 10 -6 14 0l35 44c5 7 16 16 31 16h94c18 0 19 -19 13 -25l-119 -123c-6 -6 -12 -12 -29 -12h-62c-18 0 -24 6 -30 12l-119 123c-6 6 -6 25 11 25h95c15 0 26 -9 31 -16z" />
    <glyph glyph-name="Cdotaccent" unicode="&#x10a;" 
d="M279 130c57 0 94 36 98 88c1 11 9 20 20 20h100c11 0 20 -9 20 -20c0 -134 -100 -229 -238 -229s-224 101 -238 221c-10 84 -10 196 0 280c14 120 100 221 238 221s238 -95 238 -229c0 -11 -9 -20 -20 -20h-100c-11 0 -19 9 -20 20c-4 52 -41 88 -98 88
c-61 0 -92 -36 -97 -80c-10 -84 -10 -196 0 -280c5 -44 36 -80 97 -80zM355 874v-108c0 -9 -7 -16 -16 -16h-108c-9 0 -16 7 -16 16v108c0 8 7 16 16 16h108c9 0 16 -8 16 -16z" />
    <glyph glyph-name="Ohungarumlaut" unicode="&#x150;" 
d="M275 570c-61 0 -92 -36 -97 -80c-10 -84 -10 -196 0 -280c5 -44 36 -80 97 -80s92 36 97 80c10 84 10 196 0 280c-5 44 -36 80 -97 80zM275 711c138 0 224 -101 238 -221c10 -84 10 -196 0 -280c-14 -120 -100 -221 -238 -221s-224 101 -238 221c-10 84 -10 196 0 280
c14 120 100 221 238 221zM227 910h107c19 0 23 -15 12 -27l-115 -121c-6 -6 -12 -12 -30 -12h-69c-13 0 -25 14 -13 30l82 114c5 7 11 16 26 16zM434 910h107c19 0 23 -15 12 -27l-115 -121c-6 -6 -12 -12 -30 -12h-69c-13 0 -25 14 -13 30l82 114c5 7 11 16 26 16z" />
    <glyph glyph-name="tbar" unicode="&#x167;" 
d="M279 225v-55c0 -33 27 -51 60 -51s60 18 60 51c0 11 9 20 20 20h90c11 0 20 -9 20 -20c0 -104 -86 -181 -190 -181s-190 75 -190 179v57c0 6 -4 10 -10 10h-88c-11 0 -20 9 -20 20v70c0 11 9 20 20 20h88c6 0 10 4 10 10v22c0 6 -4 10 -10 10h-98c-11 0 -20 9 -20 20v70
c0 11 9 20 20 20h98c6 0 10 4 10 10v153c0 11 9 20 20 20h90c11 0 20 -9 20 -20v-153c0 -6 4 -10 10 -10h170c11 0 20 -9 20 -20v-70c0 -11 -9 -20 -20 -20h-170c-6 0 -10 -4 -10 -10v-22c0 -6 4 -10 10 -10h130c11 0 20 -9 20 -20v-70c0 -11 -9 -20 -20 -20h-130
c-6 0 -10 -4 -10 -10z" />
    <glyph glyph-name="arrowup" unicode="&#x2191;" 
d="M214 20v352l-62 -67c-8 -8 -13 -15 -23 -15h-82c-16 0 -26 19 -14 31l225 225c10 10 19 9 27 1l233 -233c10 -10 2 -24 -10 -24h-85c-8 0 -17 3 -25 12l-67 72v-354c0 -10 -10 -20 -20 -20h-77c-10 0 -20 10 -20 20z" />
    <glyph glyph-name="afii61289" unicode="&#x2113;" 
d="M128 270h-48c-11 0 -20 9 -20 20v70c0 11 9 20 20 20h48v120c0 106 80 200 185 200c117 0 180 -85 180 -190c0 -122 -83 -241 -240 -241v-44c0 -104 47 -115 126 -115h36c11 0 20 -9 20 -20v-80c0 -11 -9 -20 -20 -20h-36c-181 0 -251 79 -251 233v47zM253 500v-120
c77 0 115 44 115 130c0 40 -18 70 -55 70s-60 -27 -60 -80z" />
    <glyph glyph-name="estimated" unicode="&#x212e;" 
d="M286 100c44 0 72 10 98 43c9 10 14 17 23 17h76c10 0 18 -6 17 -20c-9 -87 -98 -150 -214 -150c-198 0 -264 174 -233 371c25 134 94 219 233 219c108 0 223 -55 223 -246v-63c0 -11 -9 -20 -20 -20h-309c-6 0 -10 -4 -10 -10c10 -102 48 -141 116 -141zM173 362
c0 -6 4 -10 10 -10h196c6 0 10 4 10 10c0 67 -32 108 -105 108c-59 0 -100 -31 -109 -84c-1 -8 -2 -16 -2 -24z" />
    <glyph glyph-name="AEacute" unicode="&#x1fc;" 
d="M284 20v98c0 8 -6 15 -15 15h-87c-9 0 -13 -6 -15 -15l-28 -103c-2 -9 -10 -15 -19 -15h-95c-16 0 -22 11 -20 20l176 654c2 9 13 26 34 26h311c11 0 20 -9 20 -20v-100c0 -11 -9 -20 -20 -20h-102c-6 0 -10 -4 -10 -10v-120c0 -6 4 -10 10 -10h94c11 0 20 -9 20 -20
v-100c0 -11 -9 -20 -20 -20h-94c-6 0 -10 -4 -10 -10v-120c0 -6 4 -10 10 -10h103c11 0 20 -9 20 -20v-100c0 -11 -9 -20 -20 -20h-223c-11 0 -20 9 -20 20zM213 273h61c6 0 10 3 10 11v266c0 6 -4 10 -10 10h-2c-9 0 -12 -6 -13 -10l-54 -266c-2 -8 2 -11 8 -11zM390 910
h107c19 0 23 -15 12 -27l-115 -121c-6 -6 -12 -12 -30 -12h-69c-13 0 -25 14 -13 30l82 114c5 7 11 16 26 16z" />
    <glyph glyph-name="Cacute" unicode="&#x106;" 
d="M279 130c57 0 94 36 98 88c1 11 9 20 20 20h100c11 0 20 -9 20 -20c0 -134 -100 -229 -238 -229s-224 101 -238 221c-10 84 -10 196 0 280c14 120 100 221 238 221s238 -95 238 -229c0 -11 -9 -20 -20 -20h-100c-11 0 -19 9 -20 20c-4 52 -41 88 -98 88
c-61 0 -92 -36 -97 -80c-10 -84 -10 -196 0 -280c5 -44 36 -80 97 -80zM350 910h107c19 0 23 -15 12 -27l-115 -121c-6 -6 -12 -12 -30 -12h-69c-13 0 -25 14 -13 30l82 114c5 7 11 16 26 16z" />
    <glyph glyph-name="Eacute" unicode="&#xc9;" 
d="M211 550v-120c0 -6 4 -10 10 -10h225c11 0 20 -9 20 -20v-100c0 -11 -9 -20 -20 -20h-225c-6 0 -10 -4 -10 -10v-120c0 -6 4 -10 10 -10h237c11 0 20 -9 20 -20v-100c0 -11 -9 -20 -20 -20h-367c-11 0 -20 9 -20 20v660c0 11 9 20 20 20h363c11 0 20 -9 20 -20v-100
c0 -11 -9 -20 -20 -20h-233c-6 0 -10 -4 -10 -10zM320 910h107c19 0 23 -15 12 -27l-115 -121c-6 -6 -12 -12 -30 -12h-69c-13 0 -25 14 -13 30l82 114c5 7 11 16 26 16z" />
    <glyph glyph-name="Iacute" unicode="&#xcd;" 
d="M205 145v410c0 6 -4 10 -10 10h-100c-11 0 -20 9 -20 20v95c0 11 9 20 20 20h360c11 0 20 -9 20 -20v-95c0 -11 -9 -20 -20 -20h-100c-6 0 -10 -4 -10 -10v-410c0 -6 4 -10 10 -10h110c11 0 20 -9 20 -20v-95c0 -11 -9 -20 -20 -20h-380c-11 0 -20 9 -20 20v95
c0 11 9 20 20 20h110c6 0 10 4 10 10zM320 910h107c19 0 23 -15 12 -27l-115 -121c-6 -6 -12 -12 -30 -12h-69c-13 0 -25 14 -13 30l82 114c5 7 11 16 26 16z" />
    <glyph glyph-name="Lacute" unicode="&#x139;" 
d="M235 680v-530c0 -6 4 -10 10 -10h250c11 0 20 -9 20 -20v-100c0 -11 -9 -20 -20 -20h-380c-11 0 -20 9 -20 20v660c0 11 9 20 20 20h100c11 0 20 -9 20 -20zM250 910h107c19 0 23 -15 12 -27l-115 -121c-6 -6 -12 -12 -30 -12h-69c-13 0 -25 14 -13 30l82 114
c5 7 11 16 26 16z" />
    <glyph glyph-name="Nacute" unicode="&#x143;" 
d="M500 680v-660c0 -11 -9 -20 -20 -20h-118c-17 0 -24 9 -27 17l-136 351c-2 6 -9 4 -9 -2v-346c0 -11 -9 -20 -20 -20h-100c-11 0 -20 9 -20 20v660c0 11 9 20 20 20h119c15 0 22 -9 25 -18l137 -380c2 -6 9 -4 9 2v376c0 11 9 20 20 20h100c11 0 20 -9 20 -20zM320 910
h107c19 0 23 -15 12 -27l-115 -121c-6 -6 -12 -12 -30 -12h-69c-13 0 -25 14 -13 30l82 114c5 7 11 16 26 16z" />
    <glyph glyph-name="Oacute" unicode="&#xd3;" 
d="M275 570c-61 0 -92 -36 -97 -80c-10 -84 -10 -196 0 -280c5 -44 36 -80 97 -80s92 36 97 80c10 84 10 196 0 280c-5 44 -36 80 -97 80zM275 711c138 0 224 -101 238 -221c10 -84 10 -196 0 -280c-14 -120 -100 -221 -238 -221s-224 101 -238 221c-10 84 -10 196 0 280
c14 120 100 221 238 221zM320 910h107c19 0 23 -15 12 -27l-115 -121c-6 -6 -12 -12 -30 -12h-69c-13 0 -25 14 -13 30l82 114c5 7 11 16 26 16z" />
    <glyph glyph-name="Racute" unicode="&#x154;" 
d="M298 560h-90c-6 0 -10 -4 -10 -10v-120c0 -6 4 -10 10 -10h90c38 0 70 31 70 70c0 38 -32 70 -70 70zM234 280h-26c-6 0 -10 -4 -10 -10v-250c0 -11 -9 -20 -20 -20h-100c-11 0 -20 9 -20 20v660c0 11 9 20 20 20h220c115 0 210 -95 210 -210c0 -77 -33 -129 -104 -177
c-14 -10 -13 -18 -6 -33l107 -250c7 -15 1 -30 -19 -30h-103c-16 0 -24 8 -29 20l-102 247c-2 5 -7 13 -18 13zM290 910h107c19 0 23 -15 12 -27l-115 -121c-6 -6 -12 -12 -30 -12h-69c-13 0 -25 14 -13 30l82 114c5 7 11 16 26 16z" />
    <glyph glyph-name="Sacute" unicode="&#x15a;" 
d="M371 208c0 43 -29 63 -104 80c-125 28 -224 83 -224 212c0 118 97 211 229 211c134 0 230 -93 230 -211v-15c0 -11 -9 -20 -20 -20h-101c-11 0 -20 9 -20 20v15c0 40 -32 75 -89 75c-56 0 -87 -30 -87 -70c0 -38 37 -62 89 -72c139 -28 242 -86 242 -225
c0 -130 -102 -219 -244 -219c-138 0 -238 97 -238 219v30c0 11 9 20 20 20h101c11 0 20 -9 20 -20v-30c0 -46 35 -82 97 -82c60 0 99 35 99 82zM320 910h107c19 0 23 -15 12 -27l-115 -121c-6 -6 -12 -12 -30 -12h-69c-13 0 -25 14 -13 30l82 114c5 7 11 16 26 16z" />
    <glyph glyph-name="Uacute" unicode="&#xda;" 
d="M178 680v-470c0 -44 36 -80 95 -80c61 0 97 36 97 80v470c0 11 9 20 20 20h101c11 0 20 -9 20 -20v-470c0 -121 -100 -221 -238 -221c-136 0 -236 100 -236 221v470c0 11 9 20 20 20h101c11 0 20 -9 20 -20zM320 910h107c19 0 23 -15 12 -27l-115 -121
c-6 -6 -12 -12 -30 -12h-69c-13 0 -25 14 -13 30l82 114c5 7 11 16 26 16z" />
    <glyph glyph-name="Wacute" unicode="&#x1e82;" 
d="M324 485l37 -200c2 -9 13 -9 14 0l38 400c1 11 10 15 19 15h93c16 0 21 -10 20 -20l-71 -665c-1 -10 -10 -15 -19 -15h-120c-9 0 -17 5 -19 15l-35 181c-1 6 -11 6 -12 0l-35 -181c-2 -10 -10 -15 -19 -15h-120c-9 0 -18 5 -19 15l-71 665c-1 10 4 20 20 20h93
c9 0 18 -4 19 -15l39 -400c1 -9 12 -9 14 0l36 200c2 10 10 15 19 15h60c9 0 17 -5 19 -15zM320 910h107c19 0 23 -15 12 -27l-115 -121c-6 -6 -12 -12 -30 -12h-69c-13 0 -25 14 -13 30l82 114c5 7 11 16 26 16z" />
    <glyph glyph-name="Yacute" unicode="&#xdd;" 
d="M281 408l96 277c4 11 10 15 19 15h110c13 0 22 -13 16 -28l-177 -446v-206c0 -11 -9 -20 -20 -20h-100c-11 0 -20 9 -20 20v206l-177 446c-6 15 3 28 16 28h110c9 0 15 -4 19 -15l96 -277c1 -3 2 -4 5 -4h2c3 0 4 1 5 4zM320 910h107c19 0 23 -15 12 -27l-115 -121
c-6 -6 -12 -12 -30 -12h-69c-13 0 -25 14 -13 30l82 114c5 7 11 16 26 16z" />
    <glyph glyph-name="Ccircumflex" unicode="&#x108;" 
d="M279 130c57 0 94 36 98 88c1 11 9 20 20 20h100c11 0 20 -9 20 -20c0 -134 -100 -229 -238 -229s-224 101 -238 221c-10 84 -10 196 0 280c14 120 100 221 238 221s238 -95 238 -229c0 -11 -9 -20 -20 -20h-100c-11 0 -19 9 -20 20c-4 52 -41 88 -98 88
c-61 0 -92 -36 -97 -80c-10 -84 -10 -196 0 -280c5 -44 36 -80 97 -80zM280 810l-35 -44c-5 -7 -16 -16 -31 -16h-95c-17 0 -17 19 -11 25l119 123c6 6 12 12 30 12h62c17 0 23 -6 29 -12l119 -123c6 -6 5 -25 -13 -25h-94c-15 0 -26 9 -31 16l-35 44c-4 6 -10 6 -14 0z" />
    <glyph glyph-name="Ecircumflex" unicode="&#xca;" 
d="M211 550v-120c0 -6 4 -10 10 -10h225c11 0 20 -9 20 -20v-100c0 -11 -9 -20 -20 -20h-225c-6 0 -10 -4 -10 -10v-120c0 -6 4 -10 10 -10h237c11 0 20 -9 20 -20v-100c0 -11 -9 -20 -20 -20h-367c-11 0 -20 9 -20 20v660c0 11 9 20 20 20h363c11 0 20 -9 20 -20v-100
c0 -11 -9 -20 -20 -20h-233c-6 0 -10 -4 -10 -10zM270 810l-35 -44c-5 -7 -16 -16 -31 -16h-95c-17 0 -17 19 -11 25l119 123c6 6 12 12 30 12h62c17 0 23 -6 29 -12l119 -123c6 -6 5 -25 -13 -25h-94c-15 0 -26 9 -31 16l-35 44c-4 6 -10 6 -14 0z" />
    <glyph glyph-name="Gcircumflex" unicode="&#x11c;" 
d="M377 482c-4 52 -41 88 -98 88c-61 0 -92 -36 -97 -80c-10 -84 -10 -196 0 -280c5 -44 36 -80 97 -80c60 0 101 33 101 78v43c0 6 -4 10 -10 10h-68c-11 0 -20 9 -20 20v95c0 11 9 20 20 20h195c11 0 20 -9 20 -20v-168c0 -120 -101 -219 -238 -219
c-138 0 -224 101 -238 221c-10 84 -10 196 0 280c14 120 100 221 238 221s238 -95 238 -229c0 -11 -9 -20 -20 -20h-100c-11 0 -19 9 -20 20zM280 810l-35 -44c-5 -7 -16 -16 -31 -16h-95c-17 0 -17 19 -11 25l119 123c6 6 12 12 30 12h62c17 0 23 -6 29 -12l119 -123
c6 -6 5 -25 -13 -25h-94c-15 0 -26 9 -31 16l-35 44c-4 6 -10 6 -14 0z" />
    <glyph glyph-name="Icircumflex" unicode="&#xce;" 
d="M205 145v410c0 6 -4 10 -10 10h-100c-11 0 -20 9 -20 20v95c0 11 9 20 20 20h360c11 0 20 -9 20 -20v-95c0 -11 -9 -20 -20 -20h-100c-6 0 -10 -4 -10 -10v-410c0 -6 4 -10 10 -10h110c11 0 20 -9 20 -20v-95c0 -11 -9 -20 -20 -20h-380c-11 0 -20 9 -20 20v95
c0 11 9 20 20 20h110c6 0 10 4 10 10zM270 810l-35 -44c-5 -7 -16 -16 -31 -16h-95c-17 0 -17 19 -11 25l119 123c6 6 12 12 30 12h62c17 0 23 -6 29 -12l119 -123c6 -6 5 -25 -13 -25h-94c-15 0 -26 9 -31 16l-35 44c-4 6 -10 6 -14 0z" />
    <glyph glyph-name="Jcircumflex" unicode="&#x134;" 
d="M164 239v-28c0 -45 36 -81 91 -81c54 0 90 35 90 91v459c0 11 9 20 20 20h101c11 0 20 -9 20 -20v-469c0 -122 -91 -222 -231 -222c-132 0 -232 100 -232 222v28c0 11 9 20 20 20h101c11 0 20 -9 20 -20zM290 810l-35 -44c-5 -7 -16 -16 -31 -16h-95c-17 0 -17 19 -11 25
l119 123c6 6 12 12 30 12h62c17 0 23 -6 29 -12l119 -123c6 -6 5 -25 -13 -25h-94c-15 0 -26 9 -31 16l-35 44c-4 6 -10 6 -14 0z" />
    <glyph glyph-name="Ocircumflex" unicode="&#xd4;" 
d="M275 570c-61 0 -92 -36 -97 -80c-10 -84 -10 -196 0 -280c5 -44 36 -80 97 -80s92 36 97 80c10 84 10 196 0 280c-5 44 -36 80 -97 80zM275 711c138 0 224 -101 238 -221c10 -84 10 -196 0 -280c-14 -120 -100 -221 -238 -221s-224 101 -238 221c-10 84 -10 196 0 280
c14 120 100 221 238 221zM270 810l-35 -44c-5 -7 -16 -16 -31 -16h-95c-17 0 -17 19 -11 25l119 123c6 6 12 12 30 12h62c17 0 23 -6 29 -12l119 -123c6 -6 5 -25 -13 -25h-94c-15 0 -26 9 -31 16l-35 44c-4 6 -10 6 -14 0z" />
    <glyph glyph-name="Scircumflex" unicode="&#x15c;" 
d="M371 208c0 43 -29 63 -104 80c-125 28 -224 83 -224 212c0 118 97 211 229 211c134 0 230 -93 230 -211v-15c0 -11 -9 -20 -20 -20h-101c-11 0 -20 9 -20 20v15c0 40 -32 75 -89 75c-56 0 -87 -30 -87 -70c0 -38 37 -62 89 -72c139 -28 242 -86 242 -225
c0 -130 -102 -219 -244 -219c-138 0 -238 97 -238 219v30c0 11 9 20 20 20h101c11 0 20 -9 20 -20v-30c0 -46 35 -82 97 -82c60 0 99 35 99 82zM270 810l-35 -44c-5 -7 -16 -16 -31 -16h-95c-17 0 -17 19 -11 25l119 123c6 6 12 12 30 12h62c17 0 23 -6 29 -12l119 -123
c6 -6 5 -25 -13 -25h-94c-15 0 -26 9 -31 16l-35 44c-4 6 -10 6 -14 0z" />
    <glyph glyph-name="Ucircumflex" unicode="&#xdb;" 
d="M178 680v-470c0 -44 36 -80 95 -80c61 0 97 36 97 80v470c0 11 9 20 20 20h101c11 0 20 -9 20 -20v-470c0 -121 -100 -221 -238 -221c-136 0 -236 100 -236 221v470c0 11 9 20 20 20h101c11 0 20 -9 20 -20zM270 810l-35 -44c-5 -7 -16 -16 -31 -16h-95
c-17 0 -17 19 -11 25l119 123c6 6 12 12 30 12h62c17 0 23 -6 29 -12l119 -123c6 -6 5 -25 -13 -25h-94c-15 0 -26 9 -31 16l-35 44c-4 6 -10 6 -14 0z" />
    <glyph glyph-name="Wcircumflex" unicode="&#x174;" 
d="M324 485l37 -200c2 -9 13 -9 14 0l38 400c1 11 10 15 19 15h93c16 0 21 -10 20 -20l-71 -665c-1 -10 -10 -15 -19 -15h-120c-9 0 -17 5 -19 15l-35 181c-1 6 -11 6 -12 0l-35 -181c-2 -10 -10 -15 -19 -15h-120c-9 0 -18 5 -19 15l-71 665c-1 10 4 20 20 20h93
c9 0 18 -4 19 -15l39 -400c1 -9 12 -9 14 0l36 200c2 10 10 15 19 15h60c9 0 17 -5 19 -15zM270 810l-35 -44c-5 -7 -16 -16 -31 -16h-95c-17 0 -17 19 -11 25l119 123c6 6 12 12 30 12h62c17 0 23 -6 29 -12l119 -123c6 -6 5 -25 -13 -25h-94c-15 0 -26 9 -31 16l-35 44
c-4 6 -10 6 -14 0z" />
    <glyph glyph-name="Ycircumflex" unicode="&#x176;" 
d="M281 408l96 277c4 11 10 15 19 15h110c13 0 22 -13 16 -28l-177 -446v-206c0 -11 -9 -20 -20 -20h-100c-11 0 -20 9 -20 20v206l-177 446c-6 15 3 28 16 28h110c9 0 15 -4 19 -15l96 -277c1 -3 2 -4 5 -4h2c3 0 4 1 5 4zM270 810l-35 -44c-5 -7 -16 -16 -31 -16h-95
c-17 0 -17 19 -11 25l119 123c6 6 12 12 30 12h62c17 0 23 -6 29 -12l119 -123c6 -6 5 -25 -13 -25h-94c-15 0 -26 9 -31 16l-35 44c-4 6 -10 6 -14 0z" />
    <glyph glyph-name="Ccedilla" unicode="&#xc7;" 
d="M279 130c57 0 94 36 98 88c1 11 9 20 20 20h100c11 0 20 -9 20 -20c0 -134 -100 -229 -238 -229s-224 101 -238 221c-10 84 -10 196 0 280c14 120 100 221 238 221s238 -95 238 -229c0 -11 -9 -20 -20 -20h-100c-11 0 -19 9 -20 20c-4 52 -41 88 -98 88
c-61 0 -92 -36 -97 -80c-10 -84 -10 -196 0 -280c5 -44 36 -80 97 -80zM338 -84l-21 -92c-4 -17 -15 -24 -32 -24h-62c-32 0 -35 24 -30 39l29 92c5 17 15 24 32 24h54c32 0 34 -23 30 -39z" />
    <glyph glyph-name="Dcaron" unicode="&#x10e;" 
d="M274 0h-210c-11 0 -20 9 -20 20v660c0 11 9 20 20 20h210c123 0 209 -101 223 -221c10 -84 10 -174 0 -258c-14 -120 -100 -221 -223 -221zM194 140h80c46 0 77 37 82 81c10 84 10 174 0 258c-5 44 -36 81 -82 81h-80c-6 0 -10 -4 -10 -10v-400c0 -6 4 -10 10 -10z
M202 894l35 -44c4 -6 10 -6 14 0l35 44c5 7 16 16 31 16h94c18 0 19 -19 13 -25l-119 -123c-6 -6 -12 -12 -29 -12h-62c-18 0 -24 6 -30 12l-119 123c-6 6 -6 25 11 25h95c15 0 26 -9 31 -16z" />
    <glyph glyph-name="Ecaron" unicode="&#x11a;" 
d="M211 550v-120c0 -6 4 -10 10 -10h225c11 0 20 -9 20 -20v-100c0 -11 -9 -20 -20 -20h-225c-6 0 -10 -4 -10 -10v-120c0 -6 4 -10 10 -10h237c11 0 20 -9 20 -20v-100c0 -11 -9 -20 -20 -20h-367c-11 0 -20 9 -20 20v660c0 11 9 20 20 20h363c11 0 20 -9 20 -20v-100
c0 -11 -9 -20 -20 -20h-233c-6 0 -10 -4 -10 -10zM232 894l35 -44c4 -6 10 -6 14 0l35 44c5 7 16 16 31 16h94c18 0 19 -19 13 -25l-119 -123c-6 -6 -12 -12 -29 -12h-62c-18 0 -24 6 -30 12l-119 123c-6 6 -6 25 11 25h95c15 0 26 -9 31 -16z" />
    <glyph glyph-name="Hcircumflex" unicode="&#x124;" 
d="M189 680v-250c0 -6 4 -10 10 -10h152c6 0 10 4 10 10v250c0 11 9 20 20 20h100c11 0 20 -9 20 -20v-660c0 -11 -9 -20 -20 -20h-100c-11 0 -20 9 -20 20v250c0 6 -4 10 -10 10h-152c-6 0 -10 -4 -10 -10v-250c0 -11 -14 -20 -25 -20h-95c-11 0 -20 9 -20 20v660
c0 11 9 20 20 20h100c11 0 20 -9 20 -20zM270 810l-35 -44c-5 -7 -16 -16 -31 -16h-95c-17 0 -17 19 -11 25l119 123c6 6 12 12 30 12h62c17 0 23 -6 29 -12l119 -123c6 -6 5 -25 -13 -25h-94c-15 0 -26 9 -31 16l-35 44c-4 6 -10 6 -14 0z" />
    <glyph glyph-name="Ncaron" unicode="&#x147;" 
d="M500 680v-660c0 -11 -9 -20 -20 -20h-118c-17 0 -24 9 -27 17l-136 351c-2 6 -9 4 -9 -2v-346c0 -11 -9 -20 -20 -20h-100c-11 0 -20 9 -20 20v660c0 11 9 20 20 20h119c15 0 22 -9 25 -18l137 -380c2 -6 9 -4 9 2v376c0 11 9 20 20 20h100c11 0 20 -9 20 -20zM232 894
l35 -44c4 -6 10 -6 14 0l35 44c5 7 16 16 31 16h94c18 0 19 -19 13 -25l-119 -123c-6 -6 -12 -12 -29 -12h-62c-18 0 -24 6 -30 12l-119 123c-6 6 -6 25 11 25h95c15 0 26 -9 31 -16z" />
    <glyph glyph-name="Rcaron" unicode="&#x158;" 
d="M298 560h-90c-6 0 -10 -4 -10 -10v-120c0 -6 4 -10 10 -10h90c38 0 70 31 70 70c0 38 -32 70 -70 70zM234 280h-26c-6 0 -10 -4 -10 -10v-250c0 -11 -9 -20 -20 -20h-100c-11 0 -20 9 -20 20v660c0 11 9 20 20 20h220c115 0 210 -95 210 -210c0 -77 -33 -129 -104 -177
c-14 -10 -13 -18 -6 -33l107 -250c7 -15 1 -30 -19 -30h-103c-16 0 -24 8 -29 20l-102 247c-2 5 -7 13 -18 13zM212 894l35 -44c4 -6 10 -6 14 0l35 44c5 7 16 16 31 16h94c18 0 19 -19 13 -25l-119 -123c-6 -6 -12 -12 -29 -12h-62c-18 0 -24 6 -30 12l-119 123
c-6 6 -6 25 11 25h95c15 0 26 -9 31 -16z" />
    <glyph glyph-name="Scaron" unicode="&#x160;" 
d="M371 208c0 43 -29 63 -104 80c-125 28 -224 83 -224 212c0 118 97 211 229 211c134 0 230 -93 230 -211v-15c0 -11 -9 -20 -20 -20h-101c-11 0 -20 9 -20 20v15c0 40 -32 75 -89 75c-56 0 -87 -30 -87 -70c0 -38 37 -62 89 -72c139 -28 242 -86 242 -225
c0 -130 -102 -219 -244 -219c-138 0 -238 97 -238 219v30c0 11 9 20 20 20h101c11 0 20 -9 20 -20v-30c0 -46 35 -82 97 -82c60 0 99 35 99 82zM232 894l35 -44c4 -6 10 -6 14 0l35 44c5 7 16 16 31 16h94c18 0 19 -19 13 -25l-119 -123c-6 -6 -12 -12 -29 -12h-62
c-18 0 -24 6 -30 12l-119 123c-6 6 -6 25 11 25h95c15 0 26 -9 31 -16z" />
    <glyph glyph-name="Zcaron" unicode="&#x17d;" 
d="M487 548l-275 -401c-3 -5 -1 -10 6 -10h264c11 0 20 -9 20 -20v-97c0 -11 -9 -20 -20 -20h-414c-11 0 -20 9 -20 20v119c0 6 2 11 5 16l276 398c3 5 1 10 -6 10h-240c-11 0 -20 9 -20 20v97c0 11 9 20 20 20h389c11 0 20 -9 20 -20v-116c0 -6 -2 -11 -5 -16zM232 894
l35 -44c4 -6 10 -6 14 0l35 44c5 7 16 16 31 16h94c18 0 19 -19 13 -25l-119 -123c-6 -6 -12 -12 -29 -12h-62c-18 0 -24 6 -30 12l-119 123c-6 6 -6 25 11 25h95c15 0 26 -9 31 -16z" />
    <glyph glyph-name="Egrave" unicode="&#xc8;" 
d="M211 550v-120c0 -6 4 -10 10 -10h225c11 0 20 -9 20 -20v-100c0 -11 -9 -20 -20 -20h-225c-6 0 -10 -4 -10 -10v-120c0 -6 4 -10 10 -10h237c11 0 20 -9 20 -20v-100c0 -11 -9 -20 -20 -20h-367c-11 0 -20 9 -20 20v660c0 11 9 20 20 20h363c11 0 20 -9 20 -20v-100
c0 -11 -9 -20 -20 -20h-233c-6 0 -10 -4 -10 -10zM113 910h107c15 0 21 -9 26 -16l82 -114c12 -16 0 -30 -13 -30h-69c-18 0 -24 6 -30 12l-115 121c-11 12 -7 27 12 27z" />
    <glyph glyph-name="Igrave" unicode="&#xcc;" 
d="M205 145v410c0 6 -4 10 -10 10h-100c-11 0 -20 9 -20 20v95c0 11 9 20 20 20h360c11 0 20 -9 20 -20v-95c0 -11 -9 -20 -20 -20h-100c-6 0 -10 -4 -10 -10v-410c0 -6 4 -10 10 -10h110c11 0 20 -9 20 -20v-95c0 -11 -9 -20 -20 -20h-380c-11 0 -20 9 -20 20v95
c0 11 9 20 20 20h110c6 0 10 4 10 10zM113 910h107c15 0 21 -9 26 -16l82 -114c12 -16 0 -30 -13 -30h-69c-18 0 -24 6 -30 12l-115 121c-11 12 -7 27 12 27z" />
    <glyph glyph-name="Ograve" unicode="&#xd2;" 
d="M275 570c-61 0 -92 -36 -97 -80c-10 -84 -10 -196 0 -280c5 -44 36 -80 97 -80s92 36 97 80c10 84 10 196 0 280c-5 44 -36 80 -97 80zM275 711c138 0 224 -101 238 -221c10 -84 10 -196 0 -280c-14 -120 -100 -221 -238 -221s-224 101 -238 221c-10 84 -10 196 0 280
c14 120 100 221 238 221zM113 910h107c15 0 21 -9 26 -16l82 -114c12 -16 0 -30 -13 -30h-69c-18 0 -24 6 -30 12l-115 121c-11 12 -7 27 12 27z" />
    <glyph glyph-name="Ugrave" unicode="&#xd9;" 
d="M178 680v-470c0 -44 36 -80 95 -80c61 0 97 36 97 80v470c0 11 9 20 20 20h101c11 0 20 -9 20 -20v-470c0 -121 -100 -221 -238 -221c-136 0 -236 100 -236 221v470c0 11 9 20 20 20h101c11 0 20 -9 20 -20zM113 910h107c15 0 21 -9 26 -16l82 -114c12 -16 0 -30 -13 -30
h-69c-18 0 -24 6 -30 12l-115 121c-11 12 -7 27 12 27z" />
    <glyph glyph-name="Wgrave" unicode="&#x1e80;" 
d="M324 485l37 -200c2 -9 13 -9 14 0l38 400c1 11 10 15 19 15h93c16 0 21 -10 20 -20l-71 -665c-1 -10 -10 -15 -19 -15h-120c-9 0 -17 5 -19 15l-35 181c-1 6 -11 6 -12 0l-35 -181c-2 -10 -10 -15 -19 -15h-120c-9 0 -18 5 -19 15l-71 665c-1 10 4 20 20 20h93
c9 0 18 -4 19 -15l39 -400c1 -9 12 -9 14 0l36 200c2 10 10 15 19 15h60c9 0 17 -5 19 -15zM113 910h107c15 0 21 -9 26 -16l82 -114c12 -16 0 -30 -13 -30h-69c-18 0 -24 6 -30 12l-115 121c-11 12 -7 27 12 27z" />
    <glyph glyph-name="Ygrave" unicode="&#x1ef2;" 
d="M281 408l96 277c4 11 10 15 19 15h110c13 0 22 -13 16 -28l-177 -446v-206c0 -11 -9 -20 -20 -20h-100c-11 0 -20 9 -20 20v206l-177 446c-6 15 3 28 16 28h110c9 0 15 -4 19 -15l96 -277c1 -3 2 -4 5 -4h2c3 0 4 1 5 4zM113 910h107c15 0 21 -9 26 -16l82 -114
c12 -16 0 -30 -13 -30h-69c-18 0 -24 6 -30 12l-115 121c-11 12 -7 27 12 27z" />
    <glyph glyph-name="Zacute" unicode="&#x179;" 
d="M487 548l-275 -401c-3 -5 -1 -10 6 -10h264c11 0 20 -9 20 -20v-97c0 -11 -9 -20 -20 -20h-414c-11 0 -20 9 -20 20v119c0 6 2 11 5 16l276 398c3 5 1 10 -6 10h-240c-11 0 -20 9 -20 20v97c0 11 9 20 20 20h389c11 0 20 -9 20 -20v-116c0 -6 -2 -11 -5 -16zM320 910h107
c19 0 23 -15 12 -27l-115 -121c-6 -6 -12 -12 -30 -12h-69c-13 0 -25 14 -13 30l82 114c5 7 11 16 26 16z" />
    <glyph glyph-name="Oslashacute" unicode="&#x1fe;" 
d="M320 910h107c19 0 23 -15 12 -27l-115 -121c-6 -6 -12 -12 -30 -12h-69c-13 0 -25 14 -13 30l82 114c5 7 11 16 26 16zM134 24l-5 -9c-6 -10 -12 -15 -21 -15h-64c-13 0 -24 14 -16 28l41 68c6 9 2 13 1 15c-17 30 -27 64 -31 99c-10 84 -10 196 0 280
c14 120 100 221 238 221c49 0 92 -13 127 -35c4 -2 9 -7 15 2l5 7c6 10 10 15 19 15h64c13 0 24 -15 16 -28l-40 -66c-6 -10 -1 -13 0 -16c17 -30 27 -64 32 -100c10 -84 10 -196 0 -280c-14 -120 -100 -221 -238 -221c-52 0 -97 13 -133 37c-2 1 -6 5 -10 -2zM277 130
c61 0 92 36 97 80c7 62 9 139 6 208c0 5 -3 10 -7 3l-160 -265c-3 -5 0 -8 2 -9c16 -11 36 -17 62 -17zM277 570c-61 0 -92 -36 -97 -80c-8 -62 -10 -139 -7 -208c0 -4 3 -8 7 -1l157 260c5 9 1 12 -1 13c-15 10 -35 16 -59 16z" />
    <glyph glyph-name="Itilde" unicode="&#x128;" 
d="M205 145v410c0 6 -4 10 -10 10h-100c-11 0 -20 9 -20 20v95c0 11 9 20 20 20h360c11 0 20 -9 20 -20v-95c0 -11 -9 -20 -20 -20h-100c-6 0 -10 -4 -10 -10v-410c0 -6 4 -10 10 -10h110c11 0 20 -9 20 -20v-95c0 -11 -9 -20 -20 -20h-380c-11 0 -20 9 -20 20v95
c0 11 9 20 20 20h110c6 0 10 4 10 10zM367 864c25 0 38 11 46 21s25 5 25 -14v-60c0 -26 -31 -51 -71 -51c-64 0 -112 25 -180 25c-22 0 -35 -8 -46 -21c-8 -9 -25 -5 -25 14v60c0 26 31 51 71 51c64 0 112 -25 180 -25z" />
    <glyph glyph-name="Ntilde" unicode="&#xd1;" 
d="M500 680v-660c0 -11 -9 -20 -20 -20h-118c-17 0 -24 9 -27 17l-136 351c-2 6 -9 4 -9 -2v-346c0 -11 -9 -20 -20 -20h-100c-11 0 -20 9 -20 20v660c0 11 9 20 20 20h119c15 0 22 -9 25 -18l137 -380c2 -6 9 -4 9 2v376c0 11 9 20 20 20h100c11 0 20 -9 20 -20zM367 864
c25 0 38 11 46 21s25 5 25 -14v-60c0 -26 -31 -51 -71 -51c-64 0 -112 25 -180 25c-22 0 -35 -8 -46 -21c-8 -9 -25 -5 -25 14v60c0 26 31 51 71 51c64 0 112 -25 180 -25z" />
    <glyph glyph-name="Otilde" unicode="&#xd5;" 
d="M275 570c-61 0 -92 -36 -97 -80c-10 -84 -10 -196 0 -280c5 -44 36 -80 97 -80s92 36 97 80c10 84 10 196 0 280c-5 44 -36 80 -97 80zM275 711c138 0 224 -101 238 -221c10 -84 10 -196 0 -280c-14 -120 -100 -221 -238 -221s-224 101 -238 221c-10 84 -10 196 0 280
c14 120 100 221 238 221zM367 864c25 0 38 11 46 21s25 5 25 -14v-60c0 -26 -31 -51 -71 -51c-64 0 -112 25 -180 25c-22 0 -35 -8 -46 -21c-8 -9 -25 -5 -25 14v60c0 26 31 51 71 51c64 0 112 -25 180 -25z" />
    <glyph glyph-name="Utilde" unicode="&#x168;" 
d="M178 680v-470c0 -44 36 -80 95 -80c61 0 97 36 97 80v470c0 11 9 20 20 20h101c11 0 20 -9 20 -20v-470c0 -121 -100 -221 -238 -221c-136 0 -236 100 -236 221v470c0 11 9 20 20 20h101c11 0 20 -9 20 -20zM367 864c25 0 38 11 46 21s25 5 25 -14v-60
c0 -26 -31 -51 -71 -51c-64 0 -112 25 -180 25c-22 0 -35 -8 -46 -21c-8 -9 -25 -5 -25 14v60c0 26 31 51 71 51c64 0 112 -25 180 -25z" />
    <glyph glyph-name="Edieresis" unicode="&#xcb;" 
d="M211 550v-120c0 -6 4 -10 10 -10h225c11 0 20 -9 20 -20v-100c0 -11 -9 -20 -20 -20h-225c-6 0 -10 -4 -10 -10v-120c0 -6 4 -10 10 -10h237c11 0 20 -9 20 -20v-100c0 -11 -9 -20 -20 -20h-367c-11 0 -20 9 -20 20v660c0 11 9 20 20 20h363c11 0 20 -9 20 -20v-100
c0 -11 -9 -20 -20 -20h-233c-6 0 -10 -4 -10 -10zM240 870v-90c0 -11 -9 -20 -20 -20h-90c-11 0 -20 9 -20 20v90c0 11 9 20 20 20h90c11 0 20 -9 20 -20zM440 870v-90c0 -11 -9 -20 -20 -20h-90c-11 0 -20 9 -20 20v90c0 11 9 20 20 20h90c11 0 20 -9 20 -20z" />
    <glyph glyph-name="Idieresis" unicode="&#xcf;" 
d="M205 145v410c0 6 -4 10 -10 10h-100c-11 0 -20 9 -20 20v95c0 11 9 20 20 20h360c11 0 20 -9 20 -20v-95c0 -11 -9 -20 -20 -20h-100c-6 0 -10 -4 -10 -10v-410c0 -6 4 -10 10 -10h110c11 0 20 -9 20 -20v-95c0 -11 -9 -20 -20 -20h-380c-11 0 -20 9 -20 20v95
c0 11 9 20 20 20h110c6 0 10 4 10 10zM240 870v-90c0 -11 -9 -20 -20 -20h-90c-11 0 -20 9 -20 20v90c0 11 9 20 20 20h90c11 0 20 -9 20 -20zM440 870v-90c0 -11 -9 -20 -20 -20h-90c-11 0 -20 9 -20 20v90c0 11 9 20 20 20h90c11 0 20 -9 20 -20z" />
    <glyph glyph-name="Odieresis" unicode="&#xd6;" 
d="M275 570c-61 0 -92 -36 -97 -80c-10 -84 -10 -196 0 -280c5 -44 36 -80 97 -80s92 36 97 80c10 84 10 196 0 280c-5 44 -36 80 -97 80zM275 711c138 0 224 -101 238 -221c10 -84 10 -196 0 -280c-14 -120 -100 -221 -238 -221s-224 101 -238 221c-10 84 -10 196 0 280
c14 120 100 221 238 221zM240 870v-90c0 -11 -9 -20 -20 -20h-90c-11 0 -20 9 -20 20v90c0 11 9 20 20 20h90c11 0 20 -9 20 -20zM440 870v-90c0 -11 -9 -20 -20 -20h-90c-11 0 -20 9 -20 20v90c0 11 9 20 20 20h90c11 0 20 -9 20 -20z" />
    <glyph glyph-name="Udieresis" unicode="&#xdc;" 
d="M178 680v-470c0 -44 36 -80 95 -80c61 0 97 36 97 80v470c0 11 9 20 20 20h101c11 0 20 -9 20 -20v-470c0 -121 -100 -221 -238 -221c-136 0 -236 100 -236 221v470c0 11 9 20 20 20h101c11 0 20 -9 20 -20zM240 870v-90c0 -11 -9 -20 -20 -20h-90c-11 0 -20 9 -20 20v90
c0 11 9 20 20 20h90c11 0 20 -9 20 -20zM440 870v-90c0 -11 -9 -20 -20 -20h-90c-11 0 -20 9 -20 20v90c0 11 9 20 20 20h90c11 0 20 -9 20 -20z" />
    <glyph glyph-name="Wdieresis" unicode="&#x1e84;" 
d="M324 485l37 -200c2 -9 13 -9 14 0l38 400c1 11 10 15 19 15h93c16 0 21 -10 20 -20l-71 -665c-1 -10 -10 -15 -19 -15h-120c-9 0 -17 5 -19 15l-35 181c-1 6 -11 6 -12 0l-35 -181c-2 -10 -10 -15 -19 -15h-120c-9 0 -18 5 -19 15l-71 665c-1 10 4 20 20 20h93
c9 0 18 -4 19 -15l39 -400c1 -9 12 -9 14 0l36 200c2 10 10 15 19 15h60c9 0 17 -5 19 -15zM240 870v-90c0 -11 -9 -20 -20 -20h-90c-11 0 -20 9 -20 20v90c0 11 9 20 20 20h90c11 0 20 -9 20 -20zM440 870v-90c0 -11 -9 -20 -20 -20h-90c-11 0 -20 9 -20 20v90
c0 11 9 20 20 20h90c11 0 20 -9 20 -20z" />
    <glyph glyph-name="Ydieresis" unicode="&#x178;" 
d="M281 408l96 277c4 11 10 15 19 15h110c13 0 22 -13 16 -28l-177 -446v-206c0 -11 -9 -20 -20 -20h-100c-11 0 -20 9 -20 20v206l-177 446c-6 15 3 28 16 28h110c9 0 15 -4 19 -15l96 -277c1 -3 2 -4 5 -4h2c3 0 4 1 5 4zM240 870v-90c0 -11 -9 -20 -20 -20h-90
c-11 0 -20 9 -20 20v90c0 11 9 20 20 20h90c11 0 20 -9 20 -20zM440 870v-90c0 -11 -9 -20 -20 -20h-90c-11 0 -20 9 -20 20v90c0 11 9 20 20 20h90c11 0 20 -9 20 -20z" />
    <glyph glyph-name="Edotaccent" unicode="&#x116;" 
d="M211 550v-120c0 -6 4 -10 10 -10h225c11 0 20 -9 20 -20v-100c0 -11 -9 -20 -20 -20h-225c-6 0 -10 -4 -10 -10v-120c0 -6 4 -10 10 -10h237c11 0 20 -9 20 -20v-100c0 -11 -9 -20 -20 -20h-367c-11 0 -20 9 -20 20v660c0 11 9 20 20 20h363c11 0 20 -9 20 -20v-100
c0 -11 -9 -20 -20 -20h-233c-6 0 -10 -4 -10 -10zM355 874v-108c0 -9 -7 -16 -16 -16h-108c-9 0 -16 7 -16 16v108c0 8 7 16 16 16h108c9 0 16 -8 16 -16z" />
    <glyph glyph-name="Zdotaccent" unicode="&#x17b;" 
d="M487 548l-275 -401c-3 -5 -1 -10 6 -10h264c11 0 20 -9 20 -20v-97c0 -11 -9 -20 -20 -20h-414c-11 0 -20 9 -20 20v119c0 6 2 11 5 16l276 398c3 5 1 10 -6 10h-240c-11 0 -20 9 -20 20v97c0 11 9 20 20 20h389c11 0 20 -9 20 -20v-116c0 -6 -2 -11 -5 -16zM355 874
v-108c0 -9 -7 -16 -16 -16h-108c-9 0 -16 7 -16 16v108c0 8 7 16 16 16h108c9 0 16 -8 16 -16z" />
    <glyph glyph-name="Gdotaccent" unicode="&#x120;" 
d="M377 482c-4 52 -41 88 -98 88c-61 0 -92 -36 -97 -80c-10 -84 -10 -196 0 -280c5 -44 36 -80 97 -80c60 0 101 33 101 78v43c0 6 -4 10 -10 10h-68c-11 0 -20 9 -20 20v95c0 11 9 20 20 20h195c11 0 20 -9 20 -20v-168c0 -120 -101 -219 -238 -219
c-138 0 -224 101 -238 221c-10 84 -10 196 0 280c14 120 100 221 238 221s238 -95 238 -229c0 -11 -9 -20 -20 -20h-100c-11 0 -19 9 -20 20zM355 874v-108c0 -9 -7 -16 -16 -16h-108c-9 0 -16 7 -16 16v108c0 8 7 16 16 16h108c9 0 16 -8 16 -16z" />
    <glyph glyph-name="Idotaccent" unicode="&#x130;" 
d="M205 145v410c0 6 -4 10 -10 10h-100c-11 0 -20 9 -20 20v95c0 11 9 20 20 20h360c11 0 20 -9 20 -20v-95c0 -11 -9 -20 -20 -20h-100c-6 0 -10 -4 -10 -10v-410c0 -6 4 -10 10 -10h110c11 0 20 -9 20 -20v-95c0 -11 -9 -20 -20 -20h-380c-11 0 -20 9 -20 20v95
c0 11 9 20 20 20h110c6 0 10 4 10 10zM346 874v-108c0 -9 -7 -16 -16 -16h-108c-9 0 -16 7 -16 16v108c0 8 7 16 16 16h108c9 0 16 -8 16 -16z" />
    <glyph glyph-name="Ldot" unicode="&#x13f;" 
d="M235 680v-530c0 -6 4 -10 10 -10h250c11 0 20 -9 20 -20v-100c0 -11 -9 -20 -20 -20h-380c-11 0 -20 9 -20 20v660c0 11 9 20 20 20h100c11 0 20 -9 20 -20zM465 364v-108c0 -9 -7 -16 -16 -16h-108c-9 0 -16 7 -16 16v108c0 8 7 16 16 16h108c9 0 16 -8 16 -16z" />
    <glyph glyph-name="Emacron" unicode="&#x112;" 
d="M211 550v-120c0 -6 4 -10 10 -10h225c11 0 20 -9 20 -20v-100c0 -11 -9 -20 -20 -20h-225c-6 0 -10 -4 -10 -10v-120c0 -6 4 -10 10 -10h237c11 0 20 -9 20 -20v-100c0 -11 -9 -20 -20 -20h-367c-11 0 -20 9 -20 20v660c0 11 9 20 20 20h363c11 0 20 -9 20 -20v-100
c0 -11 -9 -20 -20 -20h-233c-6 0 -10 -4 -10 -10zM406 760h-262c-11 0 -20 9 -20 20v58c0 11 9 20 20 20h262c11 0 20 -9 20 -20v-58c0 -11 -9 -20 -20 -20z" />
    <glyph glyph-name="Imacron" unicode="&#x12a;" 
d="M205 145v410c0 6 -4 10 -10 10h-100c-11 0 -20 9 -20 20v95c0 11 9 20 20 20h360c11 0 20 -9 20 -20v-95c0 -11 -9 -20 -20 -20h-100c-6 0 -10 -4 -10 -10v-410c0 -6 4 -10 10 -10h110c11 0 20 -9 20 -20v-95c0 -11 -9 -20 -20 -20h-380c-11 0 -20 9 -20 20v95
c0 11 9 20 20 20h110c6 0 10 4 10 10zM406 760h-262c-11 0 -20 9 -20 20v58c0 11 9 20 20 20h262c11 0 20 -9 20 -20v-58c0 -11 -9 -20 -20 -20z" />
    <glyph glyph-name="Omacron" unicode="&#x14c;" 
d="M275 570c-61 0 -92 -36 -97 -80c-10 -84 -10 -196 0 -280c5 -44 36 -80 97 -80s92 36 97 80c10 84 10 196 0 280c-5 44 -36 80 -97 80zM275 711c138 0 224 -101 238 -221c10 -84 10 -196 0 -280c-14 -120 -100 -221 -238 -221s-224 101 -238 221c-10 84 -10 196 0 280
c14 120 100 221 238 221zM406 760h-262c-11 0 -20 9 -20 20v58c0 11 9 20 20 20h262c11 0 20 -9 20 -20v-58c0 -11 -9 -20 -20 -20z" />
    <glyph glyph-name="Umacron" unicode="&#x16a;" 
d="M178 680v-470c0 -44 36 -80 95 -80c61 0 97 36 97 80v470c0 11 9 20 20 20h101c11 0 20 -9 20 -20v-470c0 -121 -100 -221 -238 -221c-136 0 -236 100 -236 221v470c0 11 9 20 20 20h101c11 0 20 -9 20 -20zM406 760h-262c-11 0 -20 9 -20 20v58c0 11 9 20 20 20h262
c11 0 20 -9 20 -20v-58c0 -11 -9 -20 -20 -20z" />
    <glyph glyph-name="Ebreve" unicode="&#x114;" 
d="M211 550v-120c0 -6 4 -10 10 -10h225c11 0 20 -9 20 -20v-100c0 -11 -9 -20 -20 -20h-225c-6 0 -10 -4 -10 -10v-120c0 -6 4 -10 10 -10h237c11 0 20 -9 20 -20v-100c0 -11 -9 -20 -20 -20h-367c-11 0 -20 9 -20 20v660c0 11 9 20 20 20h363c11 0 20 -9 20 -20v-100
c0 -11 -9 -20 -20 -20h-233c-6 0 -10 -4 -10 -10zM335 886c0 9 7 17 17 17h63c9 0 17 -8 17 -17c0 -77 -62 -146 -157 -146c-96 0 -158 69 -158 146c0 9 8 17 17 17h63c10 0 17 -8 17 -17c0 -31 30 -56 61 -56s60 25 60 56z" />
    <glyph glyph-name="Gbreve" unicode="&#x11e;" 
d="M377 482c-4 52 -41 88 -98 88c-61 0 -92 -36 -97 -80c-10 -84 -10 -196 0 -280c5 -44 36 -80 97 -80c60 0 101 33 101 78v43c0 6 -4 10 -10 10h-68c-11 0 -20 9 -20 20v95c0 11 9 20 20 20h195c11 0 20 -9 20 -20v-168c0 -120 -101 -219 -238 -219
c-138 0 -224 101 -238 221c-10 84 -10 196 0 280c14 120 100 221 238 221s238 -95 238 -229c0 -11 -9 -20 -20 -20h-100c-11 0 -19 9 -20 20zM335 886c0 9 7 17 17 17h63c9 0 17 -8 17 -17c0 -77 -62 -146 -157 -146c-96 0 -158 69 -158 146c0 9 8 17 17 17h63
c10 0 17 -8 17 -17c0 -31 30 -56 61 -56s60 25 60 56z" />
    <glyph glyph-name="Ibreve" unicode="&#x12c;" 
d="M205 145v410c0 6 -4 10 -10 10h-100c-11 0 -20 9 -20 20v95c0 11 9 20 20 20h360c11 0 20 -9 20 -20v-95c0 -11 -9 -20 -20 -20h-100c-6 0 -10 -4 -10 -10v-410c0 -6 4 -10 10 -10h110c11 0 20 -9 20 -20v-95c0 -11 -9 -20 -20 -20h-380c-11 0 -20 9 -20 20v95
c0 11 9 20 20 20h110c6 0 10 4 10 10zM335 886c0 9 7 17 17 17h63c9 0 17 -8 17 -17c0 -77 -62 -146 -157 -146c-96 0 -158 69 -158 146c0 9 8 17 17 17h63c10 0 17 -8 17 -17c0 -31 30 -56 61 -56s60 25 60 56z" />
    <glyph glyph-name="Obreve" unicode="&#x14e;" 
d="M275 570c-61 0 -92 -36 -97 -80c-10 -84 -10 -196 0 -280c5 -44 36 -80 97 -80s92 36 97 80c10 84 10 196 0 280c-5 44 -36 80 -97 80zM275 711c138 0 224 -101 238 -221c10 -84 10 -196 0 -280c-14 -120 -100 -221 -238 -221s-224 101 -238 221c-10 84 -10 196 0 280
c14 120 100 221 238 221zM335 886c0 9 7 17 17 17h63c9 0 17 -8 17 -17c0 -77 -62 -146 -157 -146c-96 0 -158 69 -158 146c0 9 8 17 17 17h63c10 0 17 -8 17 -17c0 -31 30 -56 61 -56s60 25 60 56z" />
    <glyph glyph-name="Ubreve" unicode="&#x16c;" 
d="M178 680v-470c0 -44 36 -80 95 -80c61 0 97 36 97 80v470c0 11 9 20 20 20h101c11 0 20 -9 20 -20v-470c0 -121 -100 -221 -238 -221c-136 0 -236 100 -236 221v470c0 11 9 20 20 20h101c11 0 20 -9 20 -20zM335 886c0 9 7 17 17 17h63c9 0 17 -8 17 -17
c0 -77 -62 -146 -157 -146c-96 0 -158 69 -158 146c0 9 8 17 17 17h63c10 0 17 -8 17 -17c0 -31 30 -56 61 -56s60 25 60 56z" />
    <glyph glyph-name="Uring" unicode="&#x16e;" 
d="M178 680v-470c0 -44 36 -80 95 -80c61 0 97 36 97 80v470c0 11 9 20 20 20h101c11 0 20 -9 20 -20v-470c0 -121 -100 -221 -238 -221c-136 0 -236 100 -236 221v470c0 11 9 20 20 20h101c11 0 20 -9 20 -20zM159 850c0 64 52 115 116 115s115 -51 115 -115
s-51 -116 -115 -116s-116 52 -116 116zM243 850c0 -19 13 -32 32 -32s32 13 32 32s-13 32 -32 32s-32 -13 -32 -32z" />
    <glyph glyph-name="Uhungarumlaut" unicode="&#x170;" 
d="M178 680v-470c0 -44 36 -80 95 -80c61 0 97 36 97 80v470c0 11 9 20 20 20h101c11 0 20 -9 20 -20v-470c0 -121 -100 -221 -238 -221c-136 0 -236 100 -236 221v470c0 11 9 20 20 20h101c11 0 20 -9 20 -20zM207 910h107c19 0 23 -15 12 -27l-115 -121
c-6 -6 -12 -12 -30 -12h-69c-13 0 -25 14 -13 30l82 114c5 7 11 16 26 16zM414 910h107c19 0 23 -15 12 -27l-115 -121c-6 -6 -12 -12 -30 -12h-69c-13 0 -25 14 -13 30l82 114c5 7 11 16 26 16z" />
    <glyph glyph-name="Tcaron" unicode="&#x164;" 
d="M194 560h-135c-11 0 -20 9 -20 20v100c0 11 9 20 20 20h430c11 0 20 -9 20 -20v-100c0 -11 -9 -20 -20 -20h-135c-6 0 -10 -4 -10 -10v-530c0 -11 -9 -20 -20 -20h-100c-11 0 -20 9 -20 20v530c0 6 -4 10 -10 10zM232 894l35 -44c4 -6 10 -6 14 0l35 44c5 7 16 16 31 16
h94c18 0 19 -19 13 -25l-119 -123c-6 -6 -12 -12 -29 -12h-62c-18 0 -24 6 -30 12l-119 123c-6 6 -6 25 11 25h95c15 0 26 -9 31 -16z" />
    <glyph glyph-name="Gcommaaccent" unicode="&#x122;" 
d="M377 482c-4 52 -41 88 -98 88c-61 0 -92 -36 -97 -80c-10 -84 -10 -196 0 -280c5 -44 36 -80 97 -80c60 0 101 33 101 78v43c0 6 -4 10 -10 10h-68c-11 0 -20 9 -20 20v95c0 11 9 20 20 20h195c11 0 20 -9 20 -20v-168c0 -120 -101 -219 -238 -219
c-138 0 -224 101 -238 221c-10 84 -10 196 0 280c14 120 100 221 238 221s238 -95 238 -229c0 -11 -9 -20 -20 -20h-100c-11 0 -19 9 -20 20zM249 -185h-24c-11 0 -20 9 -20 20v100c0 11 9 20 20 20h100c11 0 20 -9 20 -20v-97c0 -26 -10 -51 -22 -69l-34 -54
c-6 -9 -14 -20 -34 -20h-10c-20 0 -30 20 -21 38l34 69c4 7 -3 13 -9 13z" />
    <glyph glyph-name="Rcommaaccent" unicode="&#x156;" 
d="M298 560h-90c-6 0 -10 -4 -10 -10v-120c0 -6 4 -10 10 -10h90c38 0 70 31 70 70c0 38 -32 70 -70 70zM234 280h-26c-6 0 -10 -4 -10 -10v-250c0 -11 -9 -20 -20 -20h-100c-11 0 -20 9 -20 20v660c0 11 9 20 20 20h220c115 0 210 -95 210 -210c0 -77 -33 -129 -104 -177
c-14 -10 -13 -18 -6 -33l107 -250c7 -15 1 -30 -19 -30h-103c-16 0 -24 8 -29 20l-102 247c-2 5 -7 13 -18 13zM249 -185h-24c-11 0 -20 9 -20 20v100c0 11 9 20 20 20h100c11 0 20 -9 20 -20v-97c0 -26 -10 -51 -22 -69l-34 -54c-6 -9 -14 -20 -34 -20h-10
c-20 0 -30 20 -21 38l34 69c4 7 -3 13 -9 13z" />
    <glyph glyph-name="Kcommaaccent" unicode="&#x136;" 
d="M206 447l165 243c3 4 7 10 22 10h101c19 0 27 -21 17 -36l-187 -276c-9 -13 -8 -21 0 -33l205 -317c9 -14 1 -38 -21 -38h-108c-15 0 -20 7 -23 12l-171 273c-3 4 -10 3 -10 -3v-262c0 -11 -9 -20 -20 -20h-99c-11 0 -20 9 -20 20v660c0 11 9 20 20 20h99
c11 0 20 -9 20 -20v-230c0 -6 7 -7 10 -3zM249 -185h-24c-11 0 -20 9 -20 20v100c0 11 9 20 20 20h100c11 0 20 -9 20 -20v-97c0 -26 -10 -51 -22 -69l-34 -54c-6 -9 -14 -20 -34 -20h-10c-20 0 -30 20 -21 38l34 69c4 7 -3 13 -9 13z" />
    <glyph glyph-name="Lcommaaccent" unicode="&#x13b;" 
d="M235 680v-530c0 -6 4 -10 10 -10h250c11 0 20 -9 20 -20v-100c0 -11 -9 -20 -20 -20h-380c-11 0 -20 9 -20 20v660c0 11 9 20 20 20h100c11 0 20 -9 20 -20zM249 -185h-24c-11 0 -20 9 -20 20v100c0 11 9 20 20 20h100c11 0 20 -9 20 -20v-97c0 -26 -10 -51 -22 -69
l-34 -54c-6 -9 -14 -20 -34 -20h-10c-20 0 -30 20 -21 38l34 69c4 7 -3 13 -9 13z" />
    <glyph glyph-name="Ncommaaccent" unicode="&#x145;" 
d="M500 680v-660c0 -11 -9 -20 -20 -20h-118c-17 0 -24 9 -27 17l-136 351c-2 6 -9 4 -9 -2v-346c0 -11 -9 -20 -20 -20h-100c-11 0 -20 9 -20 20v660c0 11 9 20 20 20h119c15 0 22 -9 25 -18l137 -380c2 -6 9 -4 9 2v376c0 11 9 20 20 20h100c11 0 20 -9 20 -20zM249 -185
h-24c-11 0 -20 9 -20 20v100c0 11 9 20 20 20h100c11 0 20 -9 20 -20v-97c0 -26 -10 -51 -22 -69l-34 -54c-6 -9 -14 -20 -34 -20h-10c-20 0 -30 20 -21 38l34 69c4 7 -3 13 -9 13z" />
    <glyph glyph-name="Scedilla" unicode="&#x15e;" 
d="M371 208c0 43 -29 63 -104 80c-125 28 -224 83 -224 212c0 118 97 211 229 211c134 0 230 -93 230 -211v-15c0 -11 -9 -20 -20 -20h-101c-11 0 -20 9 -20 20v15c0 40 -32 75 -89 75c-56 0 -87 -30 -87 -70c0 -38 37 -62 89 -72c139 -28 242 -86 242 -225
c0 -130 -102 -219 -244 -219c-138 0 -238 97 -238 219v30c0 11 9 20 20 20h101c11 0 20 -9 20 -20v-30c0 -46 35 -82 97 -82c60 0 99 35 99 82zM338 -84l-21 -92c-4 -17 -15 -24 -32 -24h-62c-32 0 -35 24 -30 39l29 92c5 17 15 24 32 24h54c32 0 34 -23 30 -39z" />
    <glyph glyph-name="Scommaaccent" unicode="&#x218;" 
d="M371 208c0 43 -29 63 -104 80c-125 28 -224 83 -224 212c0 118 97 211 229 211c134 0 230 -93 230 -211v-15c0 -11 -9 -20 -20 -20h-101c-11 0 -20 9 -20 20v15c0 40 -32 75 -89 75c-56 0 -87 -30 -87 -70c0 -38 37 -62 89 -72c139 -28 242 -86 242 -225
c0 -130 -102 -219 -244 -219c-138 0 -238 97 -238 219v30c0 11 9 20 20 20h101c11 0 20 -9 20 -20v-30c0 -46 35 -82 97 -82c60 0 99 35 99 82zM249 -185h-24c-11 0 -20 9 -20 20v100c0 11 9 20 20 20h100c11 0 20 -9 20 -20v-97c0 -26 -10 -51 -22 -69l-34 -54
c-6 -9 -14 -20 -34 -20h-10c-20 0 -30 20 -21 38l34 69c4 7 -3 13 -9 13z" />
    <glyph glyph-name="Tcommaaccent" unicode="&#x162;" 
d="M194 560h-135c-11 0 -20 9 -20 20v100c0 11 9 20 20 20h430c11 0 20 -9 20 -20v-100c0 -11 -9 -20 -20 -20h-135c-6 0 -10 -4 -10 -10v-530c0 -11 -9 -20 -20 -20h-100c-11 0 -20 9 -20 20v530c0 6 -4 10 -10 10zM249 -185h-24c-11 0 -20 9 -20 20v100c0 11 9 20 20 20
h100c11 0 20 -9 20 -20v-97c0 -26 -10 -51 -22 -69l-34 -54c-6 -9 -14 -20 -34 -20h-10c-20 0 -30 20 -21 38l34 69c4 7 -3 13 -9 13z" />
    <glyph glyph-name="uni021A" unicode="&#x21a;" 
d="M194 560h-135c-11 0 -20 9 -20 20v100c0 11 9 20 20 20h430c11 0 20 -9 20 -20v-100c0 -11 -9 -20 -20 -20h-135c-6 0 -10 -4 -10 -10v-530c0 -11 -9 -20 -20 -20h-100c-11 0 -20 9 -20 20v530c0 6 -4 10 -10 10zM249 -185h-24c-11 0 -20 9 -20 20v100c0 11 9 20 20 20
h100c11 0 20 -9 20 -20v-97c0 -26 -10 -51 -22 -69l-34 -54c-6 -9 -14 -20 -34 -20h-10c-20 0 -30 20 -21 38l34 69c4 7 -3 13 -9 13z" />
    <glyph glyph-name="Iogonek" unicode="&#x12e;" 
d="M333 -220h-94c-100 0 -174 50 -174 160v175c0 11 9 20 20 20h110c6 0 10 4 10 10v410c0 6 -4 10 -10 10h-100c-11 0 -20 9 -20 20v95c0 11 9 20 20 20h360c11 0 20 -9 20 -20v-95c0 -11 -9 -20 -20 -20h-100c-6 0 -10 -4 -10 -10v-410c0 -6 4 -10 10 -10h110
c11 0 20 -9 20 -20v-95c0 -11 -9 -20 -20 -20h-286v-60c0 -33 27 -60 60 -60h94c11 0 20 -9 20 -20v-60c0 -11 -9 -20 -20 -20z" />
    <glyph glyph-name="Lcaron" unicode="&#x13d;" 
d="M235 680v-530c0 -6 4 -10 10 -10h250c11 0 20 -9 20 -20v-100c0 -11 -9 -20 -20 -20h-380c-11 0 -20 9 -20 20v660c0 11 9 20 20 20h100c11 0 20 -9 20 -20zM369 560h-24c-11 0 -20 9 -20 20v100c0 11 9 20 20 20h100c11 0 20 -9 20 -20v-97c0 -26 -10 -51 -22 -69
l-34 -54c-6 -9 -14 -20 -34 -20h-10c-20 0 -30 20 -21 38l34 69c4 7 -3 13 -9 13z" />
    <glyph glyph-name="agrave" unicode="&#xe0;" 
d="M348 204h-106c-43 0 -51 -35 -51 -50c0 -37 30 -53 66 -53c57 0 101 17 101 69v24c0 6 -4 10 -10 10zM276 397c-21 0 -69 -6 -69 -38c0 -17 -9 -19 -27 -19h-72c-11 0 -20 9 -20 20c0 79 73 151 193 151c121 0 200 -65 200 -181v-310c0 -11 -9 -20 -20 -20h-50
c-6 0 -10 2 -14 7c-6 8 -7 20 -20 20c-18 0 -46 -38 -120 -38c-116 0 -188 60 -188 165c0 69 57 156 172 156h102c6 0 10 4 10 10v16c0 41 -33 61 -77 61zM153 730h107c15 0 21 -9 26 -16l82 -114c12 -16 0 -30 -13 -30h-69c-18 0 -24 6 -30 12l-115 121c-11 12 -7 27 12 27
z" />
    <glyph glyph-name="aacute" unicode="&#xe1;" 
d="M348 204h-106c-43 0 -51 -35 -51 -50c0 -37 30 -53 66 -53c57 0 101 17 101 69v24c0 6 -4 10 -10 10zM276 397c-21 0 -69 -6 -69 -38c0 -17 -9 -19 -27 -19h-72c-11 0 -20 9 -20 20c0 79 73 151 193 151c121 0 200 -65 200 -181v-310c0 -11 -9 -20 -20 -20h-50
c-6 0 -10 2 -14 7c-6 8 -7 20 -20 20c-18 0 -46 -38 -120 -38c-116 0 -188 60 -188 165c0 69 57 156 172 156h102c6 0 10 4 10 10v16c0 41 -33 61 -77 61zM320 730h107c19 0 23 -15 12 -27l-115 -121c-6 -6 -12 -12 -30 -12h-69c-13 0 -25 14 -13 30l82 114c5 7 11 16 26 16
z" />
    <glyph glyph-name="acircumflex" unicode="&#xe2;" 
d="M348 204h-106c-43 0 -51 -35 -51 -50c0 -37 30 -53 66 -53c57 0 101 17 101 69v24c0 6 -4 10 -10 10zM276 397c-21 0 -69 -6 -69 -38c0 -17 -9 -19 -27 -19h-72c-11 0 -20 9 -20 20c0 79 73 151 193 151c121 0 200 -65 200 -181v-310c0 -11 -9 -20 -20 -20h-50
c-6 0 -10 2 -14 7c-6 8 -7 20 -20 20c-18 0 -46 -38 -120 -38c-116 0 -188 60 -188 165c0 69 57 156 172 156h102c6 0 10 4 10 10v16c0 41 -33 61 -77 61zM277 630l-35 -44c-5 -7 -16 -16 -31 -16h-95c-17 0 -17 19 -11 25l119 123c6 6 12 12 30 12h62c17 0 23 -6 29 -12
l119 -123c6 -6 5 -25 -13 -25h-94c-15 0 -26 9 -31 16l-35 44c-4 6 -10 6 -14 0z" />
    <glyph glyph-name="atilde" unicode="&#xe3;" 
d="M348 204h-106c-43 0 -51 -35 -51 -50c0 -37 30 -53 66 -53c57 0 101 17 101 69v24c0 6 -4 10 -10 10zM276 397c-21 0 -69 -6 -69 -38c0 -17 -9 -19 -27 -19h-72c-11 0 -20 9 -20 20c0 79 73 151 193 151c121 0 200 -65 200 -181v-310c0 -11 -9 -20 -20 -20h-50
c-6 0 -10 2 -14 7c-6 8 -7 20 -20 20c-18 0 -46 -38 -120 -38c-116 0 -188 60 -188 165c0 69 57 156 172 156h102c6 0 10 4 10 10v16c0 41 -33 61 -77 61zM375 684c25 0 38 11 46 21s25 5 25 -14v-60c0 -26 -31 -51 -71 -51c-64 0 -112 25 -180 25c-22 0 -35 -8 -46 -21
c-8 -9 -25 -5 -25 14v60c0 26 31 51 71 51c64 0 112 -25 180 -25z" />
    <glyph glyph-name="adieresis" unicode="&#xe4;" 
d="M348 204h-106c-43 0 -51 -35 -51 -50c0 -37 30 -53 66 -53c57 0 101 17 101 69v24c0 6 -4 10 -10 10zM276 397c-21 0 -69 -6 -69 -38c0 -17 -9 -19 -27 -19h-72c-11 0 -20 9 -20 20c0 79 73 151 193 151c121 0 200 -65 200 -181v-310c0 -11 -9 -20 -20 -20h-50
c-6 0 -10 2 -14 7c-6 8 -7 20 -20 20c-18 0 -46 -38 -120 -38c-116 0 -188 60 -188 165c0 69 57 156 172 156h102c6 0 10 4 10 10v16c0 41 -33 61 -77 61zM250 690v-90c0 -11 -9 -20 -20 -20h-90c-11 0 -20 9 -20 20v90c0 11 9 20 20 20h90c11 0 20 -9 20 -20zM450 690v-90
c0 -11 -9 -20 -20 -20h-90c-11 0 -20 9 -20 20v90c0 11 9 20 20 20h90c11 0 20 -9 20 -20z" />
    <glyph glyph-name="amacron" unicode="&#x101;" 
d="M348 204h-106c-43 0 -51 -35 -51 -50c0 -37 30 -53 66 -53c57 0 101 17 101 69v24c0 6 -4 10 -10 10zM276 397c-21 0 -69 -6 -69 -38c0 -17 -9 -19 -27 -19h-72c-11 0 -20 9 -20 20c0 79 73 151 193 151c121 0 200 -65 200 -181v-310c0 -11 -9 -20 -20 -20h-50
c-6 0 -10 2 -14 7c-6 8 -7 20 -20 20c-18 0 -46 -38 -120 -38c-116 0 -188 60 -188 165c0 69 57 156 172 156h102c6 0 10 4 10 10v16c0 41 -33 61 -77 61zM416 596h-262c-11 0 -20 9 -20 20v58c0 11 9 20 20 20h262c11 0 20 -9 20 -20v-58c0 -11 -9 -20 -20 -20z" />
    <glyph glyph-name="abreve" unicode="&#x103;" 
d="M348 204h-106c-43 0 -51 -35 -51 -50c0 -37 30 -53 66 -53c57 0 101 17 101 69v24c0 6 -4 10 -10 10zM276 397c-21 0 -69 -6 -69 -38c0 -17 -9 -19 -27 -19h-72c-11 0 -20 9 -20 20c0 79 73 151 193 151c121 0 200 -65 200 -181v-310c0 -11 -9 -20 -20 -20h-50
c-6 0 -10 2 -14 7c-6 8 -7 20 -20 20c-18 0 -46 -38 -120 -38c-116 0 -188 60 -188 165c0 69 57 156 172 156h102c6 0 10 4 10 10v16c0 41 -33 61 -77 61zM345 713c0 9 7 17 17 17h63c9 0 17 -8 17 -17c0 -77 -62 -146 -157 -146c-96 0 -158 69 -158 146c0 9 8 17 17 17h63
c10 0 17 -8 17 -17c0 -31 30 -56 61 -56s60 25 60 56z" />
    <glyph glyph-name="aring" unicode="&#xe5;" 
d="M348 204h-106c-43 0 -51 -35 -51 -50c0 -37 30 -53 66 -53c57 0 101 17 101 69v24c0 6 -4 10 -10 10zM276 397c-21 0 -69 -6 -69 -38c0 -17 -9 -19 -27 -19h-72c-11 0 -20 9 -20 20c0 79 73 151 193 151c121 0 200 -65 200 -181v-310c0 -11 -9 -20 -20 -20h-50
c-6 0 -10 2 -14 7c-6 8 -7 20 -20 20c-18 0 -46 -38 -120 -38c-116 0 -188 60 -188 165c0 69 57 156 172 156h102c6 0 10 4 10 10v16c0 41 -33 61 -77 61zM169 670c0 64 52 115 116 115s115 -51 115 -115s-51 -116 -115 -116s-116 52 -116 116zM253 670c0 -19 13 -32 32 -32
s32 13 32 32s-13 32 -32 32s-32 -13 -32 -32z" />
    <glyph glyph-name="aringacute" unicode="&#x1fb;" 
d="M339 900h107c19 0 23 -15 12 -27l-105 -110c29 -21 47 -55 47 -93c0 -64 -51 -116 -115 -116s-116 52 -116 116c0 55 38 100 90 112l54 102c4 8 11 16 26 16zM253 670c0 -19 13 -32 32 -32s32 13 32 32s-13 32 -32 32s-32 -13 -32 -32zM348 204h-106
c-43 0 -51 -35 -51 -50c0 -37 30 -53 66 -53c57 0 101 17 101 69v24c0 6 -4 10 -10 10zM276 397c-21 0 -69 -5 -69 -38c0 -17 -9 -19 -27 -19h-72c-11 0 -20 9 -20 20c0 79 73 151 193 151c121 0 200 -65 200 -181v-310c0 -11 -9 -20 -20 -20h-50c-6 0 -10 2 -14 7
c-6 8 -7 20 -20 20c-18 0 -46 -38 -120 -38c-116 0 -188 60 -188 165c0 69 57 156 172 156h102c6 0 10 4 10 10v16c0 41 -33 61 -77 61z" />
    <glyph glyph-name="aeacute" unicode="&#x1fd;" 
d="M294 24c-13 11 -27 10 -38 0c-26 -23 -64 -35 -102 -35c-86 0 -151 66 -151 165c0 69 56 156 159 156h36c6 0 10 4 10 10v16c-1 41 -21 61 -48 61c-17 0 -33 -12 -38 -38c-4 -17 -9 -19 -27 -19h-62c-11 0 -20 9 -20 20c0 73 50 151 149 151c42 0 68 -13 99 -38
c8 -7 20 -9 30 0c25 21 58 38 96 38c108 0 160 -96 160 -251v-30c-1 -11 -9 -20 -20 -20h-183c-9 0 -15 -6 -15 -15c0 -55 22 -89 61 -89c27 0 45 14 52 46c3 13 14 17 23 17h63c10 0 17 -6 17 -20c0 -69 -55 -160 -148 -160c-49 0 -87 21 -103 35zM310 730h107
c19 0 23 -15 12 -27l-115 -121c-6 -6 -12 -12 -30 -12h-69c-13 0 -25 14 -13 30l82 114c5 7 11 16 26 16zM203 204h-46c-29 0 -42 -32 -42 -50c0 -37 20 -52 47 -52c35 0 51 28 51 78v14c0 6 -4 10 -10 10zM324 319c0 -6 4 -9 10 -9h101c6 0 10 3 10 9c0 48 -24 74 -58 74
c-42 0 -63 -36 -63 -74z" />
    <glyph glyph-name="cacute" unicode="&#x107;" 
d="M279 119c44 0 71 16 79 70c2 11 10 16 19 16h89c11 0 17 -9 17 -20c0 -122 -94 -196 -204 -196c-123 0 -195 81 -208 186c-5 40 -5 110 0 150c13 105 85 186 208 186c110 0 204 -72 204 -196c0 -11 -6 -20 -17 -20h-89c-9 0 -18 5 -19 16c-3 49 -34 70 -80 70
c-50 0 -72 -18 -77 -56c-5 -40 -5 -110 0 -150c4 -35 27 -56 78 -56zM310 730h107c19 0 23 -15 12 -27l-115 -121c-6 -6 -12 -12 -30 -12h-69c-13 0 -25 14 -13 30l82 114c5 7 11 16 26 16z" />
    <glyph glyph-name="ccircumflex" unicode="&#x109;" 
d="M279 119c44 0 71 16 79 70c2 11 10 16 19 16h89c11 0 17 -9 17 -20c0 -122 -94 -196 -204 -196c-123 0 -195 81 -208 186c-5 40 -5 110 0 150c13 105 85 186 208 186c110 0 204 -72 204 -196c0 -11 -6 -20 -17 -20h-89c-9 0 -18 5 -19 16c-3 49 -34 70 -80 70
c-50 0 -72 -18 -77 -56c-5 -40 -5 -110 0 -150c4 -35 27 -56 78 -56zM277 630l-35 -44c-5 -7 -16 -16 -31 -16h-95c-17 0 -17 19 -11 25l119 123c6 6 12 12 30 12h62c17 0 23 -6 29 -12l119 -123c6 -6 5 -25 -13 -25h-94c-15 0 -26 9 -31 16l-35 44c-4 6 -10 6 -14 0z" />
    <glyph glyph-name="ccaron" unicode="&#x10d;" 
d="M279 119c44 0 71 16 79 70c2 11 10 16 19 16h89c11 0 17 -9 17 -20c0 -122 -94 -196 -204 -196c-123 0 -195 81 -208 186c-5 40 -5 110 0 150c13 105 85 186 208 186c110 0 204 -72 204 -196c0 -11 -6 -20 -17 -20h-89c-9 0 -18 5 -19 16c-3 49 -34 70 -80 70
c-50 0 -72 -18 -77 -56c-5 -40 -5 -110 0 -150c4 -35 27 -56 78 -56zM242 714l35 -44c4 -6 10 -6 14 0l35 44c5 7 16 16 31 16h94c18 0 19 -19 13 -25l-119 -123c-6 -6 -12 -12 -29 -12h-62c-18 0 -24 6 -30 12l-119 123c-6 6 -6 25 11 25h95c15 0 26 -9 31 -16z" />
    <glyph glyph-name="cdotaccent" unicode="&#x10b;" 
d="M279 119c44 0 71 16 79 70c2 11 10 16 19 16h89c11 0 17 -9 17 -20c0 -122 -94 -196 -204 -196c-123 0 -195 81 -208 186c-5 40 -5 110 0 150c13 105 85 186 208 186c110 0 204 -72 204 -196c0 -11 -6 -20 -17 -20h-89c-9 0 -18 5 -19 16c-3 49 -34 70 -80 70
c-50 0 -72 -18 -77 -56c-5 -40 -5 -110 0 -150c4 -35 27 -56 78 -56zM350 694v-108c0 -9 -7 -16 -16 -16h-108c-9 0 -16 7 -16 16v108c0 8 7 16 16 16h108c9 0 16 -8 16 -16z" />
    <glyph glyph-name="ccedilla" unicode="&#xe7;" 
d="M279 119c44 0 71 16 79 70c2 11 10 16 19 16h89c11 0 17 -9 17 -20c0 -122 -94 -196 -204 -196c-123 0 -195 81 -208 186c-5 40 -5 110 0 150c13 105 85 186 208 186c110 0 204 -72 204 -196c0 -11 -6 -20 -17 -20h-89c-9 0 -18 5 -19 16c-3 49 -34 70 -80 70
c-50 0 -72 -18 -77 -56c-5 -40 -5 -110 0 -150c4 -35 27 -56 78 -56zM348 -84l-21 -92c-4 -17 -15 -24 -32 -24h-62c-32 0 -35 24 -30 39l29 92c5 17 15 24 32 24h54c32 0 34 -23 30 -39z" />
    <glyph glyph-name="dcaron" unicode="&#x10f;" 
d="M256 115c49 0 73 25 76 60c3 40 3 110 0 150c-3 38 -27 60 -76 60c-48 0 -73 -27 -75 -60c-3 -40 -3 -110 0 -150c2 -33 27 -60 75 -60zM241 -11c-105 0 -182 81 -190 186c-3 40 -3 110 0 150c8 105 85 186 190 186c30 0 46 -6 60 -12c15 -6 30 -1 30 21v170
c0 11 9 20 20 20h90c11 0 20 -9 20 -20v-670c0 -11 -9 -20 -20 -20h-50c-6 0 -10 3 -14 7c-6 7 -15 16 -25 16c-29 0 -37 -34 -111 -34zM538 560h-24c-11 0 -20 9 -20 20v100c0 11 9 20 20 20h100c11 0 20 -9 20 -20v-97c0 -26 -10 -51 -22 -69l-34 -54
c-6 -9 -14 -20 -34 -20h-10c-20 0 -30 20 -21 38l34 69c4 7 -3 13 -9 13z" />
    <glyph glyph-name="egrave" unicode="&#xe8;" 
d="M190 195c0 -55 40 -85 88 -85c39 0 66 10 79 42c5 13 14 17 23 17h83c10 0 21 -6 17 -22c-23 -93 -91 -158 -202 -158c-122 0 -194 81 -207 186c-5 40 -5 110 0 150c13 105 85 186 207 186c120 0 204 -71 204 -198v-83c0 -11 -9 -20 -20 -20h-257c-9 0 -15 -6 -15 -15z
M191 330c0 -6 4 -9 10 -9h152c6 0 10 3 10 9c0 43 -42 63 -85 63c-57 0 -87 -25 -87 -63zM143 730h107c15 0 21 -9 26 -16l82 -114c12 -16 0 -30 -13 -30h-69c-18 0 -24 6 -30 12l-115 121c-11 12 -7 27 12 27z" />
    <glyph glyph-name="eacute" unicode="&#xe9;" 
d="M190 195c0 -55 40 -85 88 -85c39 0 66 10 79 42c5 13 14 17 23 17h83c10 0 21 -6 17 -22c-23 -93 -91 -158 -202 -158c-122 0 -194 81 -207 186c-5 40 -5 110 0 150c13 105 85 186 207 186c120 0 204 -71 204 -198v-83c0 -11 -9 -20 -20 -20h-257c-9 0 -15 -6 -15 -15z
M191 330c0 -6 4 -9 10 -9h152c6 0 10 3 10 9c0 43 -42 63 -85 63c-57 0 -87 -25 -87 -63zM310 730h107c19 0 23 -15 12 -27l-115 -121c-6 -6 -12 -12 -30 -12h-69c-13 0 -25 14 -13 30l82 114c5 7 11 16 26 16z" />
    <glyph glyph-name="ecircumflex" unicode="&#xea;" 
d="M190 195c0 -55 40 -85 88 -85c39 0 66 10 79 42c5 13 14 17 23 17h83c10 0 21 -6 17 -22c-23 -93 -91 -158 -202 -158c-122 0 -194 81 -207 186c-5 40 -5 110 0 150c13 105 85 186 207 186c120 0 204 -71 204 -198v-83c0 -11 -9 -20 -20 -20h-257c-9 0 -15 -6 -15 -15z
M191 330c0 -6 4 -9 10 -9h152c6 0 10 3 10 9c0 43 -42 63 -85 63c-57 0 -87 -25 -87 -63zM277 630l-35 -44c-5 -7 -16 -16 -31 -16h-95c-17 0 -17 19 -11 25l119 123c6 6 12 12 30 12h62c17 0 23 -6 29 -12l119 -123c6 -6 5 -25 -13 -25h-94c-15 0 -26 9 -31 16l-35 44
c-4 6 -10 6 -14 0z" />
    <glyph glyph-name="ecaron" unicode="&#x11b;" 
d="M190 195c0 -55 40 -85 88 -85c39 0 66 10 79 42c5 13 14 17 23 17h83c10 0 21 -6 17 -22c-23 -93 -91 -158 -202 -158c-122 0 -194 81 -207 186c-5 40 -5 110 0 150c13 105 85 186 207 186c120 0 204 -71 204 -198v-83c0 -11 -9 -20 -20 -20h-257c-9 0 -15 -6 -15 -15z
M191 330c0 -6 4 -9 10 -9h152c6 0 10 3 10 9c0 43 -42 63 -85 63c-57 0 -87 -25 -87 -63zM242 714l35 -44c4 -6 10 -6 14 0l35 44c5 7 16 16 31 16h94c18 0 19 -19 13 -25l-119 -123c-6 -6 -12 -12 -29 -12h-62c-18 0 -24 6 -30 12l-119 123c-6 6 -6 25 11 25h95
c15 0 26 -9 31 -16z" />
    <glyph glyph-name="edieresis" unicode="&#xeb;" 
d="M190 195c0 -55 40 -85 88 -85c39 0 66 10 79 42c5 13 14 17 23 17h83c10 0 21 -6 17 -22c-23 -93 -91 -158 -202 -158c-122 0 -194 81 -207 186c-5 40 -5 110 0 150c13 105 85 186 207 186c120 0 204 -71 204 -198v-83c0 -11 -9 -20 -20 -20h-257c-9 0 -15 -6 -15 -15z
M191 330c0 -6 4 -9 10 -9h152c6 0 10 3 10 9c0 43 -42 63 -85 63c-57 0 -87 -25 -87 -63zM250 690v-90c0 -11 -9 -20 -20 -20h-90c-11 0 -20 9 -20 20v90c0 11 9 20 20 20h90c11 0 20 -9 20 -20zM450 690v-90c0 -11 -9 -20 -20 -20h-90c-11 0 -20 9 -20 20v90
c0 11 9 20 20 20h90c11 0 20 -9 20 -20z" />
    <glyph glyph-name="emacron" unicode="&#x113;" 
d="M190 195c0 -55 40 -85 88 -85c39 0 66 10 79 42c5 13 14 17 23 17h83c10 0 21 -6 17 -22c-23 -93 -91 -158 -202 -158c-122 0 -194 81 -207 186c-5 40 -5 110 0 150c13 105 85 186 207 186c120 0 204 -71 204 -198v-83c0 -11 -9 -20 -20 -20h-257c-9 0 -15 -6 -15 -15z
M191 330c0 -6 4 -9 10 -9h152c6 0 10 3 10 9c0 43 -42 63 -85 63c-57 0 -87 -25 -87 -63zM416 596h-262c-11 0 -20 9 -20 20v58c0 11 9 20 20 20h262c11 0 20 -9 20 -20v-58c0 -11 -9 -20 -20 -20z" />
    <glyph glyph-name="ebreve" unicode="&#x115;" 
d="M190 195c0 -55 40 -85 88 -85c39 0 66 10 79 42c5 13 14 17 23 17h83c10 0 21 -6 17 -22c-23 -93 -91 -158 -202 -158c-122 0 -194 81 -207 186c-5 40 -5 110 0 150c13 105 85 186 207 186c120 0 204 -71 204 -198v-83c0 -11 -9 -20 -20 -20h-257c-9 0 -15 -6 -15 -15z
M191 330c0 -6 4 -9 10 -9h152c6 0 10 3 10 9c0 43 -42 63 -85 63c-57 0 -87 -25 -87 -63zM345 713c0 9 7 17 17 17h63c9 0 17 -8 17 -17c0 -77 -62 -146 -157 -146c-96 0 -158 69 -158 146c0 9 8 17 17 17h63c10 0 17 -8 17 -17c0 -31 30 -56 61 -56s60 25 60 56z" />
    <glyph glyph-name="edotaccent" unicode="&#x117;" 
d="M190 195c0 -55 40 -85 88 -85c39 0 66 10 79 42c5 13 14 17 23 17h83c10 0 21 -6 17 -22c-23 -93 -91 -158 -202 -158c-122 0 -194 81 -207 186c-5 40 -5 110 0 150c13 105 85 186 207 186c120 0 204 -71 204 -198v-83c0 -11 -9 -20 -20 -20h-257c-9 0 -15 -6 -15 -15z
M191 330c0 -6 4 -9 10 -9h152c6 0 10 3 10 9c0 43 -42 63 -85 63c-57 0 -87 -25 -87 -63zM355 694v-108c0 -9 -7 -16 -16 -16h-108c-9 0 -16 7 -16 16v108c0 8 7 16 16 16h108c9 0 16 -8 16 -16z" />
    <glyph glyph-name="gcircumflex" unicode="&#x11d;" 
d="M411 500h50c11 0 20 -9 20 -20v-510c0 -101 -84 -185 -197 -185c-106 0 -197 68 -197 165c0 11 9 20 20 20h75c24 0 23 -9 26 -23c5 -24 30 -43 70 -43c37 0 73 22 73 66v10c0 20 -11 28 -30 21c-14 -5 -30 -12 -60 -12c-105 0 -182 81 -190 186c-3 40 -3 110 0 150
c8 105 85 186 190 186c74 0 82 -34 111 -34c10 0 19 9 25 16c4 4 8 7 14 7zM276 385c-48 0 -73 -27 -75 -60c-3 -40 -3 -110 0 -150c2 -33 27 -60 75 -60c49 0 73 25 76 60c3 40 3 110 0 150c-3 38 -27 60 -76 60zM277 630l-35 -44c-5 -7 -16 -16 -31 -16h-95
c-17 0 -17 19 -11 25l119 123c6 6 12 12 30 12h62c17 0 23 -6 29 -12l119 -123c6 -6 5 -25 -13 -25h-94c-15 0 -26 9 -31 16l-35 44c-4 6 -10 6 -14 0z" />
    <glyph glyph-name="gbreve" unicode="&#x11f;" 
d="M411 500h50c11 0 20 -9 20 -20v-510c0 -101 -84 -185 -197 -185c-106 0 -197 68 -197 165c0 11 9 20 20 20h75c24 0 23 -9 26 -23c5 -24 30 -43 70 -43c37 0 73 22 73 66v10c0 20 -11 28 -30 21c-14 -5 -30 -12 -60 -12c-105 0 -182 81 -190 186c-3 40 -3 110 0 150
c8 105 85 186 190 186c74 0 82 -34 111 -34c10 0 19 9 25 16c4 4 8 7 14 7zM276 385c-48 0 -73 -27 -75 -60c-3 -40 -3 -110 0 -150c2 -33 27 -60 75 -60c49 0 73 25 76 60c3 40 3 110 0 150c-3 38 -27 60 -76 60zM345 713c0 9 7 17 17 17h63c9 0 17 -8 17 -17
c0 -77 -62 -146 -157 -146c-96 0 -158 69 -158 146c0 9 8 17 17 17h63c10 0 17 -8 17 -17c0 -31 30 -56 61 -56s60 25 60 56z" />
    <glyph glyph-name="gdotaccent" unicode="&#x121;" 
d="M411 500h50c11 0 20 -9 20 -20v-510c0 -101 -84 -185 -197 -185c-106 0 -197 68 -197 165c0 11 9 20 20 20h75c24 0 23 -9 26 -23c5 -24 30 -43 70 -43c37 0 73 22 73 66v10c0 20 -11 28 -30 21c-14 -5 -30 -12 -60 -12c-105 0 -182 81 -190 186c-3 40 -3 110 0 150
c8 105 85 186 190 186c74 0 82 -34 111 -34c10 0 19 9 25 16c4 4 8 7 14 7zM276 385c-48 0 -73 -27 -75 -60c-3 -40 -3 -110 0 -150c2 -33 27 -60 75 -60c49 0 73 25 76 60c3 40 3 110 0 150c-3 38 -27 60 -76 60zM355 694v-108c0 -9 -7 -16 -16 -16h-108c-9 0 -16 7 -16 16
v108c0 8 7 16 16 16h108c9 0 16 -8 16 -16z" />
    <glyph glyph-name="gcommaaccent" unicode="&#x123;" 
d="M411 500h50c11 0 20 -9 20 -20v-510c0 -101 -84 -185 -197 -185c-106 0 -197 68 -197 165c0 11 9 20 20 20h75c24 0 23 -9 26 -23c5 -24 30 -43 70 -43c37 0 73 22 73 66v10c0 20 -11 28 -30 21c-14 -5 -30 -12 -60 -12c-105 0 -182 81 -190 186c-3 40 -3 110 0 150
c8 105 85 186 190 186c74 0 82 -34 111 -34c10 0 19 9 25 16c4 4 8 7 14 7zM276 385c-48 0 -73 -27 -75 -60c-3 -40 -3 -110 0 -150c2 -33 27 -60 75 -60c49 0 73 25 76 60c3 40 3 110 0 150c-3 38 -27 60 -76 60zM312 716h24c11 0 20 -9 20 -20v-100c0 -11 -9 -20 -20 -20
h-100c-11 0 -20 9 -20 20v97c0 26 10 51 22 69l34 54c6 9 14 20 34 20h10c20 0 30 -20 21 -38l-34 -69c-4 -7 3 -13 9 -13z" />
    <glyph glyph-name="hcircumflex" unicode="&#x125;" 
d="M185 0h-90c-11 0 -20 9 -20 20v670c0 11 9 20 20 20h90c11 0 20 -9 20 -20v-170c0 -17 11 -28 30 -21c14 5 30 12 60 12c105 0 190 -81 190 -186v-305c0 -11 -9 -20 -20 -20h-90c-11 0 -20 9 -20 20v305c0 33 -27 60 -75 60s-75 -27 -75 -60v-305c0 -11 -9 -20 -20 -20z
M260 810l-35 -44c-5 -7 -16 -16 -31 -16h-95c-17 0 -17 19 -11 25l119 123c6 6 12 12 30 12h62c17 0 23 -6 29 -12l119 -123c6 -6 5 -25 -13 -25h-94c-15 0 -26 9 -31 16l-35 44c-4 6 -10 6 -14 0z" />
    <glyph glyph-name="igrave" unicode="&#xec;" 
d="M153 730h107c15 0 21 -9 26 -16l82 -114c12 -16 0 -30 -13 -30h-69c-18 0 -24 6 -30 12l-115 121c-11 12 -7 27 12 27zM220 373h-100c-11 0 -20 9 -20 20v87c0 11 9 20 20 20h224c9 0 16 -8 16 -16v-344c0 -6 4 -10 10 -10h110c11 0 20 -9 20 -20v-90
c0 -11 -9 -20 -20 -20h-370c-11 0 -20 9 -20 20v90c0 11 9 20 20 20h110c6 0 10 4 10 10v223c0 6 -4 10 -10 10z" />
    <glyph glyph-name="iacute" unicode="&#xed;" 
d="M320 730h107c19 0 23 -15 12 -27l-115 -121c-6 -6 -12 -12 -30 -12h-69c-13 0 -25 14 -13 30l82 114c5 7 11 16 26 16zM220 373h-100c-11 0 -20 9 -20 20v87c0 11 9 20 20 20h224c9 0 16 -8 16 -16v-344c0 -6 4 -10 10 -10h110c11 0 20 -9 20 -20v-90
c0 -11 -9 -20 -20 -20h-370c-11 0 -20 9 -20 20v90c0 11 9 20 20 20h110c6 0 10 4 10 10v223c0 6 -4 10 -10 10z" />
    <glyph glyph-name="icircumflex" unicode="&#xee;" 
d="M220 373h-100c-11 0 -20 9 -20 20v87c0 11 9 20 20 20h224c9 0 16 -8 16 -16v-344c0 -6 4 -10 10 -10h110c11 0 20 -9 20 -20v-90c0 -11 -9 -20 -20 -20h-370c-11 0 -20 9 -20 20v90c0 11 9 20 20 20h110c6 0 10 4 10 10v223c0 6 -4 10 -10 10zM267 630l-35 -44
c-5 -7 -16 -16 -31 -16h-95c-17 0 -17 19 -11 25l119 123c6 6 12 12 30 12h62c17 0 23 -6 29 -12l119 -123c6 -6 5 -25 -13 -25h-94c-15 0 -26 9 -31 16l-35 44c-4 6 -10 6 -14 0z" />
    <glyph glyph-name="itilde" unicode="&#x129;" 
d="M365 684c25 0 38 11 46 21s25 5 25 -14v-60c0 -26 -31 -51 -71 -51c-64 0 -112 25 -180 25c-22 0 -35 -8 -46 -21c-8 -9 -25 -5 -25 14v60c0 26 31 51 71 51c64 0 112 -25 180 -25zM220 373h-100c-11 0 -20 9 -20 20v87c0 11 9 20 20 20h224c9 0 16 -8 16 -16v-344
c0 -6 4 -10 10 -10h110c11 0 20 -9 20 -20v-90c0 -11 -9 -20 -20 -20h-370c-11 0 -20 9 -20 20v90c0 11 9 20 20 20h110c6 0 10 4 10 10v223c0 6 -4 10 -10 10z" />
    <glyph glyph-name="idieresis" unicode="&#xef;" 
d="M240 690v-90c0 -11 -9 -20 -20 -20h-90c-11 0 -20 9 -20 20v90c0 11 9 20 20 20h90c11 0 20 -9 20 -20zM440 690v-90c0 -11 -9 -20 -20 -20h-90c-11 0 -20 9 -20 20v90c0 11 9 20 20 20h90c11 0 20 -9 20 -20zM220 373h-100c-11 0 -20 9 -20 20v87c0 11 9 20 20 20h224
c9 0 16 -8 16 -16v-344c0 -6 4 -10 10 -10h110c11 0 20 -9 20 -20v-90c0 -11 -9 -20 -20 -20h-370c-11 0 -20 9 -20 20v90c0 11 9 20 20 20h110c6 0 10 4 10 10v223c0 6 -4 10 -10 10z" />
    <glyph glyph-name="imacron" unicode="&#x12b;" 
d="M406 596h-262c-11 0 -20 9 -20 20v58c0 11 9 20 20 20h262c11 0 20 -9 20 -20v-58c0 -11 -9 -20 -20 -20zM220 373h-100c-11 0 -20 9 -20 20v87c0 11 9 20 20 20h224c9 0 16 -8 16 -16v-344c0 -6 4 -10 10 -10h110c11 0 20 -9 20 -20v-90c0 -11 -9 -20 -20 -20h-370
c-11 0 -20 9 -20 20v90c0 11 9 20 20 20h110c6 0 10 4 10 10v223c0 6 -4 10 -10 10z" />
    <glyph glyph-name="ibreve" unicode="&#x12d;" 
d="M335 713c0 9 7 17 17 17h63c9 0 17 -8 17 -17c0 -77 -62 -146 -157 -146c-96 0 -158 69 -158 146c0 9 8 17 17 17h63c10 0 17 -8 17 -17c0 -31 30 -56 61 -56s60 25 60 56zM220 373h-100c-11 0 -20 9 -20 20v87c0 11 9 20 20 20h224c9 0 16 -8 16 -16v-344
c0 -6 4 -10 10 -10h110c11 0 20 -9 20 -20v-90c0 -11 -9 -20 -20 -20h-370c-11 0 -20 9 -20 20v90c0 11 9 20 20 20h110c6 0 10 4 10 10v223c0 6 -4 10 -10 10z" />
    <glyph glyph-name="iogonek" unicode="&#x12f;" 
d="M366 694v-108c0 -9 -7 -16 -16 -16h-108c-9 0 -16 7 -16 16v108c0 8 7 16 16 16h108c9 0 16 -8 16 -16zM204 0v-60c0 -33 27 -60 60 -60h94c11 0 20 -9 20 -20v-60c0 -11 -9 -20 -20 -20h-94c-100 0 -174 50 -174 160v170c0 11 9 20 20 20h110c6 0 10 4 10 10v223
c0 6 -4 10 -10 10h-100c-11 0 -20 9 -20 20v87c0 11 9 20 20 20h224c9 0 16 -8 16 -16v-344c0 -6 4 -10 10 -10h110c11 0 20 -9 20 -20v-90c0 -11 -9 -20 -20 -20h-276z" />
    <glyph glyph-name="jcircumflex" unicode="&#x135;" 
d="M432 484v-516c0 -104 -86 -179 -190 -179s-190 77 -190 181c0 11 9 20 20 20h90c11 0 20 -9 20 -20c0 -33 27 -51 60 -51s60 18 60 51v391c0 6 -4 10 -10 10h-120c-11 0 -20 9 -20 20v89c0 11 9 20 20 20h244c9 0 16 -8 16 -16zM287 630l-35 -44c-5 -7 -16 -16 -31 -16
h-95c-17 0 -17 19 -11 25l119 123c6 6 12 12 30 12h62c17 0 23 -6 29 -12l119 -123c6 -6 5 -25 -13 -25h-94c-15 0 -26 9 -31 16l-35 44c-4 6 -10 6 -14 0z" />
    <glyph glyph-name="kcommaaccent" unicode="&#x137;" 
d="M382 15l-155 173c-3 4 -10 3 -10 -3v-165c0 -11 -9 -20 -20 -20h-90c-11 0 -20 9 -20 20v670c0 11 9 20 20 20h90c11 0 20 -9 20 -20v-349c0 -6 7 -7 10 -3l146 149c5 5 10 13 25 13h99c21 0 26 -23 16 -33l-179 -185c-10 -10 -10 -18 1 -30l193 -219
c12 -13 3 -33 -16 -33h-104c-15 0 -21 10 -26 15zM249 -185h-24c-11 0 -20 9 -20 20v100c0 11 9 20 20 20h100c11 0 20 -9 20 -20v-97c0 -26 -10 -51 -22 -69l-34 -54c-6 -9 -14 -20 -34 -20h-10c-20 0 -30 20 -21 38l34 69c4 7 -3 13 -9 13z" />
    <glyph glyph-name="lacute" unicode="&#x13a;" 
d="M210 583h-100c-11 0 -20 9 -20 20v87c0 11 9 20 20 20h224c9 0 16 -8 16 -16v-554c0 -6 4 -10 10 -10h120c11 0 20 -9 20 -20v-90c0 -11 -9 -20 -20 -20h-380c-11 0 -20 9 -20 20v90c0 11 9 20 20 20h110c6 0 10 4 10 10v433c0 6 -4 10 -10 10zM320 910h107
c19 0 23 -15 12 -27l-115 -121c-6 -6 -12 -12 -30 -12h-69c-13 0 -25 14 -13 30l82 114c5 7 11 16 26 16z" />
    <glyph glyph-name="lcaron" unicode="&#x13e;" 
d="M210 583h-100c-11 0 -20 9 -20 20v87c0 11 9 20 20 20h224c9 0 16 -8 16 -16v-554c0 -6 4 -10 10 -10h120c11 0 20 -9 20 -20v-90c0 -11 -9 -20 -20 -20h-380c-11 0 -20 9 -20 20v90c0 11 9 20 20 20h110c6 0 10 4 10 10v433c0 6 -4 10 -10 10zM453 560h-24
c-11 0 -20 9 -20 20v100c0 11 9 20 20 20h100c11 0 20 -9 20 -20v-97c0 -26 -10 -51 -22 -69l-34 -54c-6 -9 -14 -20 -34 -20h-10c-20 0 -30 20 -21 38l34 69c4 7 -3 13 -9 13z" />
    <glyph glyph-name="lcommaaccent" unicode="&#x13c;" 
d="M210 583h-100c-11 0 -20 9 -20 20v87c0 11 9 20 20 20h224c9 0 16 -8 16 -16v-554c0 -6 4 -10 10 -10h120c11 0 20 -9 20 -20v-90c0 -11 -9 -20 -20 -20h-380c-11 0 -20 9 -20 20v90c0 11 9 20 20 20h110c6 0 10 4 10 10v433c0 6 -4 10 -10 10zM249 -185h-24
c-11 0 -20 9 -20 20v100c0 11 9 20 20 20h100c11 0 20 -9 20 -20v-97c0 -26 -10 -51 -22 -69l-34 -54c-6 -9 -14 -20 -34 -20h-10c-20 0 -30 20 -21 38l34 69c4 7 -3 13 -9 13z" />
    <glyph glyph-name="ldot" unicode="&#x140;" 
d="M210 583h-100c-11 0 -20 9 -20 20v87c0 11 9 20 20 20h224c9 0 16 -8 16 -16v-554c0 -6 4 -10 10 -10h120c11 0 20 -9 20 -20v-90c0 -11 -9 -20 -20 -20h-380c-11 0 -20 9 -20 20v90c0 11 9 20 20 20h110c6 0 10 4 10 10v433c0 6 -4 10 -10 10zM535 364v-108
c0 -9 -7 -16 -16 -16h-108c-9 0 -16 7 -16 16v108c0 8 7 16 16 16h108c9 0 16 -8 16 -16z" />
    <glyph glyph-name="nacute" unicode="&#x144;" 
d="M185 476c29 0 50 35 110 35c105 0 185 -81 185 -186v-305c0 -11 -9 -20 -20 -20h-90c-11 0 -20 9 -20 20v306c0 33 -27 59 -75 59c-47 0 -75 -25 -75 -55v-310c0 -11 -9 -20 -20 -20h-90c-11 0 -20 9 -20 20v460c0 11 9 20 20 20h50c12 0 18 -6 23 -12
c6 -6 11 -12 22 -12zM310 730h107c19 0 23 -15 12 -27l-115 -121c-6 -6 -12 -12 -30 -12h-69c-13 0 -25 14 -13 30l82 114c5 7 11 16 26 16z" />
    <glyph glyph-name="ncaron" unicode="&#x148;" 
d="M185 476c29 0 50 35 110 35c105 0 185 -81 185 -186v-305c0 -11 -9 -20 -20 -20h-90c-11 0 -20 9 -20 20v306c0 33 -27 59 -75 59c-47 0 -75 -25 -75 -55v-310c0 -11 -9 -20 -20 -20h-90c-11 0 -20 9 -20 20v460c0 11 9 20 20 20h50c12 0 18 -6 23 -12
c6 -6 11 -12 22 -12zM232 714l35 -44c4 -6 10 -6 14 0l35 44c5 7 16 16 31 16h94c18 0 19 -19 13 -25l-119 -123c-6 -6 -12 -12 -29 -12h-62c-18 0 -24 6 -30 12l-119 123c-6 6 -6 25 11 25h95c15 0 26 -9 31 -16z" />
    <glyph glyph-name="ntilde" unicode="&#xf1;" 
d="M185 476c29 0 50 35 110 35c105 0 185 -81 185 -186v-305c0 -11 -9 -20 -20 -20h-90c-11 0 -20 9 -20 20v306c0 33 -27 59 -75 59c-47 0 -75 -25 -75 -55v-310c0 -11 -9 -20 -20 -20h-90c-11 0 -20 9 -20 20v460c0 11 9 20 20 20h50c12 0 18 -6 23 -12
c6 -6 11 -12 22 -12zM365 684c25 0 38 11 46 21s25 5 25 -14v-60c0 -26 -31 -51 -71 -51c-64 0 -112 25 -180 25c-22 0 -35 -8 -46 -21c-8 -9 -25 -5 -25 14v60c0 26 31 51 71 51c64 0 112 -25 180 -25z" />
    <glyph glyph-name="ncommaaccent" unicode="&#x146;" 
d="M185 476c29 0 50 35 110 35c105 0 185 -81 185 -186v-305c0 -11 -9 -20 -20 -20h-90c-11 0 -20 9 -20 20v306c0 33 -27 59 -75 59c-47 0 -75 -25 -75 -55v-310c0 -11 -9 -20 -20 -20h-90c-11 0 -20 9 -20 20v460c0 11 9 20 20 20h50c12 0 18 -6 23 -12
c6 -6 11 -12 22 -12zM249 -185h-24c-11 0 -20 9 -20 20v100c0 11 9 20 20 20h100c11 0 20 -9 20 -20v-97c0 -26 -10 -51 -22 -69l-34 -54c-6 -9 -14 -20 -34 -20h-10c-20 0 -30 20 -21 38l34 69c4 7 -3 13 -9 13z" />
    <glyph glyph-name="ograve" unicode="&#xf2;" 
d="M274 511c123 0 195 -81 208 -186c5 -40 5 -110 0 -150c-13 -105 -85 -186 -207 -186c-123 0 -195 81 -208 186c-5 40 -5 110 0 150c13 105 85 186 207 186zM274 119c51 0 73 23 78 56c6 40 6 110 0 150c-5 33 -27 56 -78 56c-50 0 -71 -18 -77 -56c-6 -40 -6 -110 0 -150
c5 -35 27 -56 77 -56zM133 730h107c15 0 21 -9 26 -16l82 -114c12 -16 0 -30 -13 -30h-69c-18 0 -24 6 -30 12l-115 121c-11 12 -7 27 12 27z" />
    <glyph glyph-name="oacute" unicode="&#xf3;" 
d="M274 511c123 0 195 -81 208 -186c5 -40 5 -110 0 -150c-13 -105 -85 -186 -207 -186c-123 0 -195 81 -208 186c-5 40 -5 110 0 150c13 105 85 186 207 186zM274 119c51 0 73 23 78 56c6 40 6 110 0 150c-5 33 -27 56 -78 56c-50 0 -71 -18 -77 -56c-6 -40 -6 -110 0 -150
c5 -35 27 -56 77 -56zM310 730h107c19 0 23 -15 12 -27l-115 -121c-6 -6 -12 -12 -30 -12h-69c-13 0 -25 14 -13 30l82 114c5 7 11 16 26 16z" />
    <glyph glyph-name="ocircumflex" unicode="&#xf4;" 
d="M274 511c123 0 195 -81 208 -186c5 -40 5 -110 0 -150c-13 -105 -85 -186 -207 -186c-123 0 -195 81 -208 186c-5 40 -5 110 0 150c13 105 85 186 207 186zM274 119c51 0 73 23 78 56c6 40 6 110 0 150c-5 33 -27 56 -78 56c-50 0 -71 -18 -77 -56c-6 -40 -6 -110 0 -150
c5 -35 27 -56 77 -56zM267 630l-35 -44c-5 -7 -16 -16 -31 -16h-95c-17 0 -17 19 -11 25l119 123c6 6 12 12 30 12h62c17 0 23 -6 29 -12l119 -123c6 -6 5 -25 -13 -25h-94c-15 0 -26 9 -31 16l-35 44c-4 6 -10 6 -14 0z" />
    <glyph glyph-name="otilde" unicode="&#xf5;" 
d="M274 511c123 0 195 -81 208 -186c5 -40 5 -110 0 -150c-13 -105 -85 -186 -207 -186c-123 0 -195 81 -208 186c-5 40 -5 110 0 150c13 105 85 186 207 186zM274 119c51 0 73 23 78 56c6 40 6 110 0 150c-5 33 -27 56 -78 56c-50 0 -71 -18 -77 -56c-6 -40 -6 -110 0 -150
c5 -35 27 -56 77 -56zM365 684c25 0 38 11 46 21s25 5 25 -14v-60c0 -26 -31 -51 -71 -51c-64 0 -112 25 -180 25c-22 0 -35 -8 -46 -21c-8 -9 -25 -5 -25 14v60c0 26 31 51 71 51c64 0 112 -25 180 -25z" />
    <glyph glyph-name="odieresis" unicode="&#xf6;" 
d="M274 511c123 0 195 -81 208 -186c5 -40 5 -110 0 -150c-13 -105 -85 -186 -207 -186c-123 0 -195 81 -208 186c-5 40 -5 110 0 150c13 105 85 186 207 186zM274 119c51 0 73 23 78 56c6 40 6 110 0 150c-5 33 -27 56 -78 56c-50 0 -71 -18 -77 -56c-6 -40 -6 -110 0 -150
c5 -35 27 -56 77 -56zM240 690v-90c0 -11 -9 -20 -20 -20h-90c-11 0 -20 9 -20 20v90c0 11 9 20 20 20h90c11 0 20 -9 20 -20zM440 690v-90c0 -11 -9 -20 -20 -20h-90c-11 0 -20 9 -20 20v90c0 11 9 20 20 20h90c11 0 20 -9 20 -20z" />
    <glyph glyph-name="omacron" unicode="&#x14d;" 
d="M274 511c123 0 195 -81 208 -186c5 -40 5 -110 0 -150c-13 -105 -85 -186 -207 -186c-123 0 -195 81 -208 186c-5 40 -5 110 0 150c13 105 85 186 207 186zM274 119c51 0 73 23 78 56c6 40 6 110 0 150c-5 33 -27 56 -78 56c-50 0 -71 -18 -77 -56c-6 -40 -6 -110 0 -150
c5 -35 27 -56 77 -56zM406 596h-262c-11 0 -20 9 -20 20v58c0 11 9 20 20 20h262c11 0 20 -9 20 -20v-58c0 -11 -9 -20 -20 -20z" />
    <glyph glyph-name="obreve" unicode="&#x14f;" 
d="M274 511c123 0 195 -81 208 -186c5 -40 5 -110 0 -150c-13 -105 -85 -186 -207 -186c-123 0 -195 81 -208 186c-5 40 -5 110 0 150c13 105 85 186 207 186zM274 119c51 0 73 23 78 56c6 40 6 110 0 150c-5 33 -27 56 -78 56c-50 0 -71 -18 -77 -56c-6 -40 -6 -110 0 -150
c5 -35 27 -56 77 -56zM335 713c0 9 7 17 17 17h63c9 0 17 -8 17 -17c0 -77 -62 -146 -157 -146c-96 0 -158 69 -158 146c0 9 8 17 17 17h63c10 0 17 -8 17 -17c0 -31 30 -56 61 -56s60 25 60 56z" />
    <glyph glyph-name="ohungarumlaut" unicode="&#x151;" 
d="M274 511c123 0 195 -81 208 -186c5 -40 5 -110 0 -150c-13 -105 -85 -186 -207 -186c-123 0 -195 81 -208 186c-5 40 -5 110 0 150c13 105 85 186 207 186zM274 119c51 0 73 23 78 56c6 40 6 110 0 150c-5 33 -27 56 -78 56c-50 0 -71 -18 -77 -56c-6 -40 -6 -110 0 -150
c5 -35 27 -56 77 -56zM227 730h107c19 0 23 -15 12 -27l-115 -121c-6 -6 -12 -12 -30 -12h-69c-13 0 -25 14 -13 30l82 114c5 7 11 16 26 16zM434 730h107c19 0 23 -15 12 -27l-115 -121c-6 -6 -12 -12 -30 -12h-69c-13 0 -25 14 -13 30l82 114c5 7 11 16 26 16z" />
    <glyph glyph-name="oslashacute" unicode="&#x1ff;" 
d="M310 730h107c19 0 23 -15 12 -27l-115 -121c-6 -6 -12 -12 -30 -12h-69c-13 0 -25 14 -13 30l82 114c5 7 11 16 26 16zM505 472l-46 -59c-4 -5 -2 -7 -1 -9c12 -24 20 -51 24 -79c5 -40 5 -110 0 -150c-13 -105 -85 -186 -207 -186c-48 0 -86 11 -118 32
c-2 2 -7 5 -12 -1l-6 -7c-7 -9 -15 -13 -24 -13h-66c-13 0 -21 16 -11 28l48 59c6 8 3 12 2 14c-10 22 -18 48 -21 74c-5 40 -5 110 0 150c13 105 85 186 207 186c46 0 85 -12 116 -31c2 -1 5 -4 10 1l4 4c8 9 15 15 24 15h64c13 0 23 -16 13 -28zM352 175c4 25 5 63 4 98
c0 4 -2 9 -7 2l-113 -140c-6 -7 -1 -10 2 -11c10 -3 22 -5 36 -5c51 0 73 23 78 56zM197 325c-4 -24 -6 -59 -5 -92c0 -4 3 -10 9 -2l109 137c5 6 0 8 -3 9c-9 3 -21 4 -33 4c-50 0 -71 -18 -77 -56z" />
    <glyph glyph-name="racute" unicode="&#x155;" 
d="M372 336c0 33 -32 51 -75 51c-42 0 -80 -17 -80 -60v-307c0 -11 -9 -20 -20 -20h-90c-11 0 -20 9 -20 20v460c0 11 9 20 20 20h50c12 0 19 -6 25 -11c6 -6 12 -12 23 -12c31 0 43 34 117 34c105 0 180 -70 180 -175c0 -11 -9 -20 -20 -20h-90c-11 0 -20 9 -20 20z
M300 730h107c19 0 23 -15 12 -27l-115 -121c-6 -6 -12 -12 -30 -12h-69c-13 0 -25 14 -13 30l82 114c5 7 11 16 26 16z" />
    <glyph glyph-name="rcaron" unicode="&#x159;" 
d="M372 336c0 33 -32 51 -75 51c-42 0 -80 -17 -80 -60v-307c0 -11 -9 -20 -20 -20h-90c-11 0 -20 9 -20 20v460c0 11 9 20 20 20h50c12 0 19 -6 25 -11c6 -6 12 -12 23 -12c31 0 43 34 117 34c105 0 180 -70 180 -175c0 -11 -9 -20 -20 -20h-90c-11 0 -20 9 -20 20z
M232 714l35 -44c4 -6 10 -6 14 0l35 44c5 7 16 16 31 16h94c18 0 19 -19 13 -25l-119 -123c-6 -6 -12 -12 -29 -12h-62c-18 0 -24 6 -30 12l-119 123c-6 6 -6 25 11 25h95c15 0 26 -9 31 -16z" />
    <glyph glyph-name="rcommaaccent" unicode="&#x157;" 
d="M372 336c0 33 -32 51 -75 51c-42 0 -80 -17 -80 -60v-307c0 -11 -9 -20 -20 -20h-90c-11 0 -20 9 -20 20v460c0 11 9 20 20 20h50c12 0 19 -6 25 -11c6 -6 12 -12 23 -12c31 0 43 34 117 34c105 0 180 -70 180 -175c0 -11 -9 -20 -20 -20h-90c-11 0 -20 9 -20 20z
M123 -185h-24c-11 0 -20 9 -20 20v100c0 11 9 20 20 20h100c11 0 20 -9 20 -20v-97c0 -26 -10 -51 -22 -69l-34 -54c-6 -9 -14 -20 -34 -20h-10c-20 0 -30 20 -21 38l34 69c4 7 -3 13 -9 13z" />
    <glyph glyph-name="sacute" unicode="&#x15b;" 
d="M62 164c0 11 9 20 20 20h76c24 0 28 -8 30 -25c4 -39 42 -52 88 -52c54 0 92 16 92 47c0 34 -46 41 -92 46c-82 9 -201 43 -201 160c0 89 104 151 201 151c100 0 198 -53 198 -156c0 -19 -9 -25 -20 -25h-75c-10 0 -20 4 -23 25c-5 33 -43 46 -80 46
c-45 0 -80 -13 -80 -41c0 -30 39 -36 80 -43c88 -16 212 -28 212 -165c0 -99 -98 -163 -212 -163c-110 0 -214 49 -214 175zM310 730h107c19 0 23 -15 12 -27l-115 -121c-6 -6 -12 -12 -30 -12h-69c-13 0 -25 14 -13 30l82 114c5 7 11 16 26 16z" />
    <glyph glyph-name="scircumflex" unicode="&#x15d;" 
d="M62 164c0 11 9 20 20 20h76c24 0 28 -8 30 -25c4 -39 42 -52 88 -52c54 0 92 16 92 47c0 34 -46 41 -92 46c-82 9 -201 43 -201 160c0 89 104 151 201 151c100 0 198 -53 198 -156c0 -19 -9 -25 -20 -25h-75c-10 0 -20 4 -23 25c-5 33 -43 46 -80 46
c-45 0 -80 -13 -80 -41c0 -30 39 -36 80 -43c88 -16 212 -28 212 -165c0 -99 -98 -163 -212 -163c-110 0 -214 49 -214 175zM277 630l-35 -44c-5 -7 -16 -16 -31 -16h-95c-17 0 -17 19 -11 25l119 123c6 6 12 12 30 12h62c17 0 23 -6 29 -12l119 -123c6 -6 5 -25 -13 -25
h-94c-15 0 -26 9 -31 16l-35 44c-4 6 -10 6 -14 0z" />
    <glyph glyph-name="scaron" unicode="&#x161;" 
d="M62 164c0 11 9 20 20 20h76c24 0 28 -8 30 -25c4 -39 42 -52 88 -52c54 0 92 16 92 47c0 34 -46 41 -92 46c-82 9 -201 43 -201 160c0 89 104 151 201 151c100 0 198 -53 198 -156c0 -19 -9 -25 -20 -25h-75c-10 0 -20 4 -23 25c-5 33 -43 46 -80 46
c-45 0 -80 -13 -80 -41c0 -30 39 -36 80 -43c88 -16 212 -28 212 -165c0 -99 -98 -163 -212 -163c-110 0 -214 49 -214 175zM232 714l35 -44c4 -6 10 -6 14 0l35 44c5 7 16 16 31 16h94c18 0 19 -19 13 -25l-119 -123c-6 -6 -12 -12 -29 -12h-62c-18 0 -24 6 -30 12
l-119 123c-6 6 -6 25 11 25h95c15 0 26 -9 31 -16z" />
    <glyph glyph-name="scedilla" unicode="&#x15f;" 
d="M62 164c0 11 9 20 20 20h76c24 0 28 -8 30 -25c4 -39 42 -52 88 -52c54 0 92 16 92 47c0 34 -46 41 -92 46c-82 9 -201 43 -201 160c0 89 104 151 201 151c100 0 198 -53 198 -156c0 -19 -9 -25 -20 -25h-75c-10 0 -20 4 -23 25c-5 33 -43 46 -80 46
c-45 0 -80 -13 -80 -41c0 -30 39 -36 80 -43c88 -16 212 -28 212 -165c0 -99 -98 -163 -212 -163c-110 0 -214 49 -214 175zM338 -84l-21 -92c-4 -17 -15 -24 -32 -24h-62c-32 0 -35 24 -30 39l29 92c5 17 15 24 32 24h54c32 0 34 -23 30 -39z" />
    <glyph glyph-name="scommaaccent" unicode="&#x219;" 
d="M62 164c0 11 9 20 20 20h76c24 0 28 -8 30 -25c4 -39 42 -52 88 -52c54 0 92 16 92 47c0 34 -46 41 -92 46c-82 9 -201 43 -201 160c0 89 104 151 201 151c100 0 198 -53 198 -156c0 -19 -9 -25 -20 -25h-75c-10 0 -20 4 -23 25c-5 33 -43 46 -80 46
c-45 0 -80 -13 -80 -41c0 -30 39 -36 80 -43c88 -16 212 -28 212 -165c0 -99 -98 -163 -212 -163c-110 0 -214 49 -214 175zM249 -185h-24c-11 0 -20 9 -20 20v100c0 11 9 20 20 20h100c11 0 20 -9 20 -20v-97c0 -26 -10 -51 -22 -69l-34 -54c-6 -9 -14 -20 -34 -20h-10
c-20 0 -30 20 -21 38l34 69c4 7 -3 13 -9 13z" />
    <glyph glyph-name="tcaron" unicode="&#x165;" 
d="M279 367v-197c0 -33 27 -51 60 -51s60 18 60 51c0 11 9 20 20 20h90c11 0 20 -9 20 -20c0 -104 -86 -181 -190 -181s-190 75 -190 179v199c0 6 -4 10 -10 10h-98c-11 0 -20 9 -20 20v80c0 11 9 20 20 20h98c6 0 10 4 10 10v153c0 11 9 20 20 20h90c11 0 20 -9 20 -20
v-153c0 -6 4 -10 10 -10h80c11 0 20 -9 20 -20v-80c0 -11 -9 -20 -20 -20h-80c-6 0 -10 -4 -10 -10zM443 560h-24c-11 0 -20 9 -20 20v100c0 11 9 20 20 20h100c11 0 20 -9 20 -20v-97c0 -26 -10 -51 -22 -69l-34 -54c-6 -9 -14 -20 -34 -20h-10c-20 0 -30 20 -21 38l34 69
c4 7 -3 13 -9 13z" />
    <glyph glyph-name="tcommaaccent" unicode="&#x163;" 
d="M279 367v-197c0 -33 27 -51 60 -51s60 18 60 51c0 11 9 20 20 20h90c11 0 20 -9 20 -20c0 -104 -86 -181 -190 -181s-190 75 -190 179v199c0 6 -4 10 -10 10h-98c-11 0 -20 9 -20 20v80c0 11 9 20 20 20h98c6 0 10 4 10 10v153c0 11 9 20 20 20h90c11 0 20 -9 20 -20
v-153c0 -6 4 -10 10 -10h170c11 0 20 -9 20 -20v-80c0 -11 -9 -20 -20 -20h-170c-6 0 -10 -4 -10 -10zM249 -185h-24c-11 0 -20 9 -20 20v100c0 11 9 20 20 20h100c11 0 20 -9 20 -20v-97c0 -26 -10 -51 -22 -69l-34 -54c-6 -9 -14 -20 -34 -20h-10c-20 0 -30 20 -21 38
l34 69c4 7 -3 13 -9 13z" />
    <glyph glyph-name="uni021B" unicode="&#x21b;" 
d="M279 367v-197c0 -33 27 -51 60 -51s60 18 60 51c0 11 9 20 20 20h90c11 0 20 -9 20 -20c0 -104 -86 -181 -190 -181s-190 75 -190 179v199c0 6 -4 10 -10 10h-98c-11 0 -20 9 -20 20v80c0 11 9 20 20 20h98c6 0 10 4 10 10v153c0 11 9 20 20 20h90c11 0 20 -9 20 -20
v-153c0 -6 4 -10 10 -10h170c11 0 20 -9 20 -20v-80c0 -11 -9 -20 -20 -20h-170c-6 0 -10 -4 -10 -10zM249 -185h-24c-11 0 -20 9 -20 20v100c0 11 9 20 20 20h100c11 0 20 -9 20 -20v-97c0 -26 -10 -51 -22 -69l-34 -54c-6 -9 -14 -20 -34 -20h-10c-20 0 -30 20 -21 38
l34 69c4 7 -3 13 -9 13z" />
    <glyph glyph-name="ugrave" unicode="&#xf9;" 
d="M365 20c-29 0 -45 -31 -105 -31c-105 0 -190 81 -190 186v305c0 11 9 20 20 20h90c11 0 20 -9 20 -20v-306c0 -33 27 -59 75 -59c47 0 75 25 75 55v310c0 11 9 20 20 20h90c11 0 20 -9 20 -20v-460c0 -11 -9 -20 -20 -20h-50c-12 0 -18 5 -23 10c-6 5 -11 10 -22 10z
M133 730h107c15 0 21 -9 26 -16l82 -114c12 -16 0 -30 -13 -30h-69c-18 0 -24 6 -30 12l-115 121c-11 12 -7 27 12 27z" />
    <glyph glyph-name="uacute" unicode="&#xfa;" 
d="M365 20c-29 0 -45 -31 -105 -31c-105 0 -190 81 -190 186v305c0 11 9 20 20 20h90c11 0 20 -9 20 -20v-306c0 -33 27 -59 75 -59c47 0 75 25 75 55v310c0 11 9 20 20 20h90c11 0 20 -9 20 -20v-460c0 -11 -9 -20 -20 -20h-50c-12 0 -18 5 -23 10c-6 5 -11 10 -22 10z
M310 730h107c19 0 23 -15 12 -27l-115 -121c-6 -6 -12 -12 -30 -12h-69c-13 0 -25 14 -13 30l82 114c5 7 11 16 26 16z" />
    <glyph glyph-name="ucircumflex" unicode="&#xfb;" 
d="M365 20c-29 0 -45 -31 -105 -31c-105 0 -190 81 -190 186v305c0 11 9 20 20 20h90c11 0 20 -9 20 -20v-306c0 -33 27 -59 75 -59c47 0 75 25 75 55v310c0 11 9 20 20 20h90c11 0 20 -9 20 -20v-460c0 -11 -9 -20 -20 -20h-50c-12 0 -18 5 -23 10c-6 5 -11 10 -22 10z
M267 630l-35 -44c-5 -7 -16 -16 -31 -16h-95c-17 0 -17 19 -11 25l119 123c6 6 12 12 30 12h62c17 0 23 -6 29 -12l119 -123c6 -6 5 -25 -13 -25h-94c-15 0 -26 9 -31 16l-35 44c-4 6 -10 6 -14 0z" />
    <glyph glyph-name="utilde" unicode="&#x169;" 
d="M365 20c-29 0 -45 -31 -105 -31c-105 0 -190 81 -190 186v305c0 11 9 20 20 20h90c11 0 20 -9 20 -20v-306c0 -33 27 -59 75 -59c47 0 75 25 75 55v310c0 11 9 20 20 20h90c11 0 20 -9 20 -20v-460c0 -11 -9 -20 -20 -20h-50c-12 0 -18 5 -23 10c-6 5 -11 10 -22 10z
M365 684c25 0 38 11 46 21s25 5 25 -14v-60c0 -26 -31 -51 -71 -51c-64 0 -112 25 -180 25c-22 0 -35 -8 -46 -21c-8 -9 -25 -5 -25 14v60c0 26 31 51 71 51c64 0 112 -25 180 -25z" />
    <glyph glyph-name="udieresis" unicode="&#xfc;" 
d="M365 20c-29 0 -45 -31 -105 -31c-105 0 -190 81 -190 186v305c0 11 9 20 20 20h90c11 0 20 -9 20 -20v-306c0 -33 27 -59 75 -59c47 0 75 25 75 55v310c0 11 9 20 20 20h90c11 0 20 -9 20 -20v-460c0 -11 -9 -20 -20 -20h-50c-12 0 -18 5 -23 10c-6 5 -11 10 -22 10z
M240 690v-90c0 -11 -9 -20 -20 -20h-90c-11 0 -20 9 -20 20v90c0 11 9 20 20 20h90c11 0 20 -9 20 -20zM440 690v-90c0 -11 -9 -20 -20 -20h-90c-11 0 -20 9 -20 20v90c0 11 9 20 20 20h90c11 0 20 -9 20 -20z" />
    <glyph glyph-name="umacron" unicode="&#x16b;" 
d="M365 20c-29 0 -45 -31 -105 -31c-105 0 -190 81 -190 186v305c0 11 9 20 20 20h90c11 0 20 -9 20 -20v-306c0 -33 27 -59 75 -59c47 0 75 25 75 55v310c0 11 9 20 20 20h90c11 0 20 -9 20 -20v-460c0 -11 -9 -20 -20 -20h-50c-12 0 -18 5 -23 10c-6 5 -11 10 -22 10z
M406 596h-262c-11 0 -20 9 -20 20v58c0 11 9 20 20 20h262c11 0 20 -9 20 -20v-58c0 -11 -9 -20 -20 -20z" />
    <glyph glyph-name="ubreve" unicode="&#x16d;" 
d="M365 20c-29 0 -45 -31 -105 -31c-105 0 -190 81 -190 186v305c0 11 9 20 20 20h90c11 0 20 -9 20 -20v-306c0 -33 27 -59 75 -59c47 0 75 25 75 55v310c0 11 9 20 20 20h90c11 0 20 -9 20 -20v-460c0 -11 -9 -20 -20 -20h-50c-12 0 -18 5 -23 10c-6 5 -11 10 -22 10z
M335 713c0 9 7 17 17 17h63c9 0 17 -8 17 -17c0 -77 -62 -146 -157 -146c-96 0 -158 69 -158 146c0 9 8 17 17 17h63c10 0 17 -8 17 -17c0 -31 30 -56 61 -56s60 25 60 56z" />
    <glyph glyph-name="uring" unicode="&#x16f;" 
d="M365 20c-29 0 -45 -31 -105 -31c-105 0 -190 81 -190 186v305c0 11 9 20 20 20h90c11 0 20 -9 20 -20v-306c0 -33 27 -59 75 -59c47 0 75 25 75 55v310c0 11 9 20 20 20h90c11 0 20 -9 20 -20v-460c0 -11 -9 -20 -20 -20h-50c-12 0 -18 5 -23 10c-6 5 -11 10 -22 10z
M159 670c0 64 52 115 116 115s115 -51 115 -115s-51 -116 -115 -116s-116 52 -116 116zM243 670c0 -19 13 -32 32 -32s32 13 32 32s-13 32 -32 32s-32 -13 -32 -32z" />
    <glyph glyph-name="uhungarumlaut" unicode="&#x171;" 
d="M365 20c-29 0 -45 -31 -105 -31c-105 0 -190 81 -190 186v305c0 11 9 20 20 20h90c11 0 20 -9 20 -20v-306c0 -33 27 -59 75 -59c47 0 75 25 75 55v310c0 11 9 20 20 20h90c11 0 20 -9 20 -20v-460c0 -11 -9 -20 -20 -20h-50c-12 0 -18 5 -23 10c-6 5 -11 10 -22 10z
M217 730h107c19 0 23 -15 12 -27l-115 -121c-6 -6 -12 -12 -30 -12h-69c-13 0 -25 14 -13 30l82 114c5 7 11 16 26 16zM424 730h107c19 0 23 -15 12 -27l-115 -121c-6 -6 -12 -12 -30 -12h-69c-13 0 -25 14 -13 30l82 114c5 7 11 16 26 16z" />
    <glyph glyph-name="wgrave" unicode="&#x1e81;" 
d="M238 390h68c9 0 16 -4 19 -15l37 -150c2 -6 11 -5 12 0l33 260c1 11 10 15 19 15h94c16 0 21 -13 19 -23l-79 -462c-2 -10 -10 -15 -19 -15h-109c-9 0 -17 5 -19 15l-33 153c-2 7 -13 7 -14 0l-28 -153c-2 -10 -10 -15 -19 -15h-109c-9 0 -17 5 -19 15l-81 462
c-2 10 3 23 19 23h94c9 0 18 -4 19 -15l33 -260c1 -6 11 -5 12 0l32 150c2 11 10 15 19 15zM133 730h107c15 0 21 -9 26 -16l82 -114c12 -16 0 -30 -13 -30h-69c-18 0 -24 6 -30 12l-115 121c-11 12 -7 27 12 27z" />
    <glyph glyph-name="wacute" unicode="&#x1e83;" 
d="M238 390h68c9 0 16 -4 19 -15l37 -150c2 -6 11 -5 12 0l33 260c1 11 10 15 19 15h94c16 0 21 -13 19 -23l-79 -462c-2 -10 -10 -15 -19 -15h-109c-9 0 -17 5 -19 15l-33 153c-2 7 -13 7 -14 0l-28 -153c-2 -10 -10 -15 -19 -15h-109c-9 0 -17 5 -19 15l-81 462
c-2 10 3 23 19 23h94c9 0 18 -4 19 -15l33 -260c1 -6 11 -5 12 0l32 150c2 11 10 15 19 15zM310 730h107c19 0 23 -15 12 -27l-115 -121c-6 -6 -12 -12 -30 -12h-69c-13 0 -25 14 -13 30l82 114c5 7 11 16 26 16z" />
    <glyph glyph-name="wcircumflex" unicode="&#x175;" 
d="M238 390h68c9 0 16 -4 19 -15l37 -150c2 -6 11 -5 12 0l33 260c1 11 10 15 19 15h94c16 0 21 -13 19 -23l-79 -462c-2 -10 -10 -15 -19 -15h-109c-9 0 -17 5 -19 15l-33 153c-2 7 -13 7 -14 0l-28 -153c-2 -10 -10 -15 -19 -15h-109c-9 0 -17 5 -19 15l-81 462
c-2 10 3 23 19 23h94c9 0 18 -4 19 -15l33 -260c1 -6 11 -5 12 0l32 150c2 11 10 15 19 15zM267 630l-35 -44c-5 -7 -16 -16 -31 -16h-95c-17 0 -17 19 -11 25l119 123c6 6 12 12 30 12h62c17 0 23 -6 29 -12l119 -123c6 -6 5 -25 -13 -25h-94c-15 0 -26 9 -31 16l-35 44
c-4 6 -10 6 -14 0z" />
    <glyph glyph-name="wdieresis" unicode="&#x1e85;" 
d="M238 390h68c9 0 16 -4 19 -15l37 -150c2 -6 11 -5 12 0l33 260c1 11 10 15 19 15h94c16 0 21 -13 19 -23l-79 -462c-2 -10 -10 -15 -19 -15h-109c-9 0 -17 5 -19 15l-33 153c-2 7 -13 7 -14 0l-28 -153c-2 -10 -10 -15 -19 -15h-109c-9 0 -17 5 -19 15l-81 462
c-2 10 3 23 19 23h94c9 0 18 -4 19 -15l33 -260c1 -6 11 -5 12 0l32 150c2 11 10 15 19 15zM240 690v-90c0 -11 -9 -20 -20 -20h-90c-11 0 -20 9 -20 20v90c0 11 9 20 20 20h90c11 0 20 -9 20 -20zM440 690v-90c0 -11 -9 -20 -20 -20h-90c-11 0 -20 9 -20 20v90
c0 11 9 20 20 20h90c11 0 20 -9 20 -20z" />
    <glyph glyph-name="ygrave" unicode="&#x1ef3;" 
d="M185 485l88 -284c3 -8 10 -8 12 0l81 284c3 11 10 15 19 15h101c16 0 23 -13 19 -23l-235 -662c-4 -11 -10 -15 -19 -15h-92c-16 0 -23 13 -19 23l70 187c3 9 4 12 0 22l-166 445c-4 10 3 23 19 23h103c9 0 15 -4 19 -15zM133 730h107c15 0 21 -9 26 -16l82 -114
c12 -16 0 -30 -13 -30h-69c-18 0 -24 6 -30 12l-115 121c-11 12 -7 27 12 27z" />
    <glyph glyph-name="yacute" unicode="&#xfd;" 
d="M185 485l88 -284c3 -8 10 -8 12 0l81 284c3 11 10 15 19 15h101c16 0 23 -13 19 -23l-235 -662c-4 -11 -10 -15 -19 -15h-92c-16 0 -23 13 -19 23l70 187c3 9 4 12 0 22l-166 445c-4 10 3 23 19 23h103c9 0 15 -4 19 -15zM310 730h107c19 0 23 -15 12 -27l-115 -121
c-6 -6 -12 -12 -30 -12h-69c-13 0 -25 14 -13 30l82 114c5 7 11 16 26 16z" />
    <glyph glyph-name="ycircumflex" unicode="&#x177;" 
d="M185 485l88 -284c3 -8 10 -8 12 0l81 284c3 11 10 15 19 15h101c16 0 23 -13 19 -23l-235 -662c-4 -11 -10 -15 -19 -15h-92c-16 0 -23 13 -19 23l70 187c3 9 4 12 0 22l-166 445c-4 10 3 23 19 23h103c9 0 15 -4 19 -15zM267 630l-35 -44c-5 -7 -16 -16 -31 -16h-95
c-17 0 -17 19 -11 25l119 123c6 6 12 12 30 12h62c17 0 23 -6 29 -12l119 -123c6 -6 5 -25 -13 -25h-94c-15 0 -26 9 -31 16l-35 44c-4 6 -10 6 -14 0z" />
    <glyph glyph-name="ydieresis" unicode="&#xff;" 
d="M185 485l88 -284c3 -8 10 -8 12 0l81 284c3 11 10 15 19 15h101c16 0 23 -13 19 -23l-235 -662c-4 -11 -10 -15 -19 -15h-92c-16 0 -23 13 -19 23l70 187c3 9 4 12 0 22l-166 445c-4 10 3 23 19 23h103c9 0 15 -4 19 -15zM240 690v-90c0 -11 -9 -20 -20 -20h-90
c-11 0 -20 9 -20 20v90c0 11 9 20 20 20h90c11 0 20 -9 20 -20zM440 690v-90c0 -11 -9 -20 -20 -20h-90c-11 0 -20 9 -20 20v90c0 11 9 20 20 20h90c11 0 20 -9 20 -20z" />
    <glyph glyph-name="zacute" unicode="&#x17a;" 
d="M83 141l227 229c4 5 1 10 -5 10h-205c-11 0 -20 9 -20 20v80c0 11 9 20 20 20h348c11 0 20 -9 20 -20v-87c0 -18 -10 -31 -20 -41l-214 -222c-4 -5 -1 -10 5 -10h219c11 0 20 -9 20 -20v-80c0 -11 -9 -20 -20 -20h-368c-11 0 -20 9 -20 20v90c0 13 0 18 13 31zM310 730
h107c19 0 23 -15 12 -27l-115 -121c-6 -6 -12 -12 -30 -12h-69c-13 0 -25 14 -13 30l82 114c5 7 11 16 26 16z" />
    <glyph glyph-name="zcaron" unicode="&#x17e;" 
d="M83 141l227 229c4 5 1 10 -5 10h-205c-11 0 -20 9 -20 20v80c0 11 9 20 20 20h348c11 0 20 -9 20 -20v-87c0 -18 -10 -31 -20 -41l-214 -222c-4 -5 -1 -10 5 -10h219c11 0 20 -9 20 -20v-80c0 -11 -9 -20 -20 -20h-368c-11 0 -20 9 -20 20v90c0 13 0 18 13 31zM232 714
l35 -44c4 -6 10 -6 14 0l35 44c5 7 16 16 31 16h94c18 0 19 -19 13 -25l-119 -123c-6 -6 -12 -12 -29 -12h-62c-18 0 -24 6 -30 12l-119 123c-6 6 -6 25 11 25h95c15 0 26 -9 31 -16z" />
    <glyph glyph-name="zdotaccent" unicode="&#x17c;" 
d="M83 141l227 229c4 5 1 10 -5 10h-205c-11 0 -20 9 -20 20v80c0 11 9 20 20 20h348c11 0 20 -9 20 -20v-87c0 -18 -10 -31 -20 -41l-214 -222c-4 -5 -1 -10 5 -10h219c11 0 20 -9 20 -20v-80c0 -11 -9 -20 -20 -20h-368c-11 0 -20 9 -20 20v90c0 13 0 18 13 31zM345 694
v-108c0 -9 -7 -16 -16 -16h-108c-9 0 -16 7 -16 16v108c0 8 7 16 16 16h108c9 0 16 -8 16 -16z" />
    <glyph glyph-name="longs" unicode="&#x17f;" 
d="M320 525v-505c0 -11 -9 -20 -20 -20h-90c-11 0 -20 9 -20 20v347c0 6 -4 10 -10 10h-110c-11 0 -20 9 -20 20v80c0 11 9 20 20 20h110c6 0 10 4 10 10v20c0 104 86 183 190 183h90c11 0 20 -9 20 -20v-90c0 -11 -9 -20 -20 -20h-90c-33 0 -60 -22 -60 -55z" />
    <glyph glyph-name="f_f" unicode="&#xfb00;" 
d="M500 590c-46 0 -70 -32 -70 -65v-18c0 -6 4 -10 10 -10h60c11 0 20 -9 20 -20v-80c0 -11 -9 -20 -20 -20h-60c-6 0 -10 -4 -10 -10v-347c0 -11 -9 -20 -20 -20h-80c-11 0 -20 9 -20 20v347c0 6 -4 10 -10 10h-78c-6 0 -10 -4 -10 -10v-347c0 -11 -9 -20 -20 -20h-80
c-11 0 -20 9 -20 20v347c0 6 -4 10 -10 10h-30c-11 0 -20 9 -20 20v80c0 11 9 20 20 20h30c6 0 10 4 10 10v20c0 104 86 183 190 183c11 0 20 -9 20 -20v-80c0 -11 -9 -20 -20 -20c-48 0 -70 -32 -70 -65v-18c0 -5 3 -10 7 -10h83c5 0 8 5 8 10v20c0 104 86 183 190 183
c11 0 20 -9 20 -20v-80c0 -11 -9 -20 -20 -20z" />
    <glyph glyph-name="arrowright" unicode="&#x2192;" 
d="M48 312h294l-72 67c-9 8 -12 17 -12 25v85c0 12 14 20 24 10l233 -233c8 -8 9 -17 -1 -27l-225 -225c-12 -12 -31 -2 -31 14v82c0 10 7 15 15 23l67 62h-292c-10 0 -20 10 -20 20v77c0 10 10 20 20 20z" />
    <glyph glyph-name="arrowleft" unicode="&#x2190;" 
d="M208 312h294c10 0 20 -10 20 -20v-77c0 -10 -10 -20 -20 -20h-292l67 -62c8 -8 15 -13 15 -23v-82c0 -16 -19 -26 -31 -14l-225 225c-10 10 -9 19 -1 27l233 233c10 10 24 2 24 -10v-85c0 -8 -3 -17 -12 -25z" />
    <glyph glyph-name="arrowdown" unicode="&#x2193;" 
d="M214 159v352c0 10 10 20 20 20h77c10 0 20 -10 20 -20v-354l67 72c8 9 17 12 25 12h85c12 0 20 -14 10 -24l-233 -233c-8 -8 -17 -9 -27 1l-225 225c-12 12 -2 31 14 31h82c10 0 15 -7 23 -15z" />
    <glyph glyph-name="uni2196" unicode="&#x2196;" 
d="M233 367l250 -249c7 -7 7 -21 0 -28l-54 -55c-7 -7 -21 -7 -29 0l-248 248l4 -91c0 -12 1 -20 -6 -27l-58 -58c-11 -11 -32 -5 -32 12v318c0 14 7 20 18 20h330c14 0 18 -16 10 -24l-60 -60c-6 -6 -14 -10 -26 -9z" />
    <glyph glyph-name="uni2197" unicode="&#x2197;" 
d="M66 118l250 249l-99 -3c-12 0 -20 3 -26 9l-60 60c-8 8 -4 24 10 24h330c11 0 18 -6 18 -20v-318c0 -17 -21 -23 -32 -12l-58 58c-7 7 -6 15 -6 27l4 91l-248 -248c-8 -7 -22 -7 -29 0l-54 55c-7 7 -7 21 0 28z" />
    <glyph glyph-name="uni2198" unicode="&#x2198;" 
d="M316 137l-250 249c-7 7 -7 21 0 28l54 55c7 7 21 8 29 0l248 -248l-4 91c0 12 -1 20 6 27l58 58c11 11 32 5 32 -12v-318c0 -14 -7 -20 -18 -20h-330c-14 0 -18 16 -10 24l60 60c6 6 14 9 26 9z" />
    <glyph glyph-name="uni2199" unicode="&#x2199;" 
d="M483 386l-250 -249l99 3c12 0 20 -3 26 -9l60 -60c8 -8 4 -24 -10 -24h-330c-11 0 -18 6 -18 20v318c0 17 21 23 32 12l58 -58c7 -7 6 -15 6 -27l-4 -91l248 248c8 7 22 7 29 0l54 -55c7 -7 7 -21 0 -28z" />
    <glyph glyph-name="afii61352" unicode="&#x2116;" 
d="M129 683l57 -323c1 -4 8 -3 8 2v318c0 11 9 20 20 20h51c11 0 20 -9 20 -20v-660c0 -11 -9 -20 -20 -20h-73c-11 0 -19 2 -21 17l-57 335c-1 4 -8 3 -8 -2v-330c0 -11 -9 -20 -20 -20h-51c-11 0 -20 9 -20 20v660c0 11 9 20 20 20h73c11 0 18 -2 21 -17zM500 0h-154
c-11 0 -20 9 -20 20v63c0 11 9 20 20 20h154c11 0 20 -9 20 -20v-63c0 -11 -9 -20 -20 -20zM421 321c-20 0 -30 -7 -35 -26c-3 -10 -2 -40 0 -50c4 -17 16 -24 35 -24s31 7 35 24c2 10 3 40 0 50c-5 19 -15 26 -35 26zM421 409c63 0 104 -25 113 -98c3 -20 2 -63 0 -81
c-8 -69 -62 -97 -113 -97s-105 28 -113 97c-2 18 -3 61 0 81c9 73 50 98 113 98z" />
    <glyph glyph-name="kgreenlandic" unicode="&#x138;" 
d="M382 15l-155 173c-3 4 -10 3 -10 -3v-165c0 -11 -9 -20 -20 -20h-90c-11 0 -20 9 -20 20v460c0 11 9 20 20 20h90c11 0 20 -9 20 -20v-139c0 -6 7 -7 10 -3l146 149c5 5 10 13 25 13h99c21 0 26 -23 16 -33l-179 -185c-10 -10 -10 -18 1 -30l193 -219
c12 -13 3 -33 -16 -33h-104c-15 0 -21 10 -26 15z" />
    <glyph glyph-name="zero.slash" 
d="M275 575c-47 0 -79 -36 -84 -81c-6 -55 -9 -121 -8 -183c0 -9 5 -20 14 -5l136 226c15 25 -31 43 -58 43zM359 206c6 53 8 117 7 178c0 10 -5 22 -17 3l-130 -218c-18 -29 32 -44 56 -44c47 0 79 36 84 81zM52 490c14 120 100 221 223 221s209 -101 223 -221
c10 -84 10 -196 0 -280c-14 -120 -100 -221 -223 -221s-209 101 -223 221c-10 84 -10 196 0 280z" />
    <glyph glyph-name="uni00B5" unicode="&#xb5;" 
d="M70 -180c0 220 1 440 1 660c0 11 8 20 19 20h60c19 0 50 5 50 -20v-306c0 -33 27 -59 75 -59c47 0 75 25 75 55v310c0 11 9 20 20 20h90c11 0 20 -9 20 -20v-460c0 -11 -9 -20 -20 -20h-50c-24 0 -23 20 -45 20c-26 0 -36 -30 -93 -30c-19 0 -31 6 -42 11
c-15 6 -30 1 -30 -21v-160c0 -11 -9 -20 -20 -20h-90c-11 0 -20 9 -20 20z" />
    <glyph glyph-name="uni2206" unicode="&#x2206;" 
d="M513 0h-476c-11 0 -20 9 -20 20v51c0 11 5 24 7 29l200 585c3 10 10 15 19 15h64c9 0 16 -5 19 -15l200 -585c2 -5 7 -18 7 -29v-51c0 -11 -9 -20 -20 -20zM159 118h232c6 0 6 5 4 10l-115 373c-1 2 -1 4 -4 4h-2c-3 0 -4 -2 -4 -4l-115 -373c-2 -5 -2 -10 4 -10z" />
    <glyph glyph-name="uni2126" unicode="&#x2126;" 
d="M446 142c-11 -7 -8 -22 7 -22h57c11 0 20 -9 20 -20v-80c0 -11 -9 -20 -20 -20h-186c-11 0 -20 9 -20 20v109c0 9 1 30 25 46c45 33 85 95 85 226c0 101 -46 175 -139 175s-138 -74 -138 -175c0 -131 40 -193 85 -226c24 -16 25 -37 25 -46v-109c0 -11 -9 -20 -20 -20
h-186c-11 0 -20 9 -20 20v80c0 11 9 20 20 20h57c15 0 19 14 8 21c-69 51 -96 176 -96 261c0 160 93 301 265 301s266 -141 266 -301c0 -88 -26 -208 -95 -260z" />
    <glyph glyph-name="parenleft.case" 
d="M445 -65h66c14 0 25 -11 25 -25v-78c0 -13 -11 -25 -25 -25h-66c-150 0 -261 102 -281 263c-13 101 -13 388 -1 488c17 136 117 262 282 262h61c14 0 25 -11 25 -25v-77c0 -14 -11 -25 -25 -25h-61c-73 0 -136 -49 -151 -136c-18 -102 -18 -384 -1 -487
c11 -68 63 -135 152 -135z" />
    <glyph glyph-name="parenright.case" 
d="M39 -65h66c89 0 140 67 151 135c17 103 18 385 0 487c-15 87 -78 136 -151 136h-61c-14 0 -25 11 -25 25v77c0 14 11 25 25 25h61c165 0 265 -126 282 -262c12 -100 12 -387 -1 -488c-20 -161 -131 -263 -281 -263h-66c-14 0 -25 12 -25 25v78c0 14 11 25 25 25z" />
    <glyph glyph-name="bracketleft.case" 
d="M299 683v-739c0 -7 5 -12 13 -12h158c14 0 25 -12 25 -25v-75c0 -13 -11 -25 -25 -25h-270c-14 0 -25 12 -25 25v963c0 14 11 25 25 25h268c14 0 25 -11 25 -25v-74c0 -14 -11 -25 -25 -25h-156c-8 0 -13 -5 -13 -13z" />
    <glyph glyph-name="bracketright.case" 
d="M241 -56v739c0 8 -5 13 -13 13h-156c-14 0 -25 11 -25 25v74c0 14 11 25 25 25h268c14 0 25 -11 25 -25v-963c0 -13 -11 -25 -25 -25h-270c-14 0 -25 12 -25 25v75c0 13 11 25 25 25h158c8 0 13 5 13 12z" />
    <glyph glyph-name="braceleft.case" 
d="M173 70v169c0 12 -11 20 -23 25l-13 6c-12 5 -25 11 -25 25v50c0 14 13 20 25 25l14 6c11 5 22 12 22 25v157c0 137 100 262 265 262h66c14 0 25 -11 25 -25v-77c0 -14 -11 -25 -25 -25h-66c-72 0 -134 -47 -134 -136l-1 -156c0 -44 -35 -71 -51 -81
c16 -10 51 -39 51 -81v-169c0 -82 57 -135 135 -135h74c14 0 25 -11 25 -25v-78c0 -13 -11 -25 -25 -25h-74c-159 0 -265 117 -265 263z" />
    <glyph glyph-name="braceright.case" 
d="M386 239v-169c0 -146 -105 -263 -265 -263h-74c-14 0 -25 12 -25 25v78c0 14 11 25 25 25h74c78 0 135 53 135 135v169c0 42 35 71 51 81c-16 10 -51 37 -51 81l-1 156c0 89 -62 136 -134 136h-66c-14 0 -25 11 -25 25v77c0 14 11 25 25 25h66c165 0 265 -125 265 -262
v-157c0 -13 11 -20 22 -25l14 -6c12 -5 25 -11 25 -25v-50c0 -14 -13 -20 -25 -25l-13 -6c-12 -5 -23 -13 -23 -25z" />
    <glyph glyph-name="bar.case" 
d="M337 700v-750c0 -11 -9 -20 -20 -20h-85c-11 0 -20 9 -20 20v750c0 11 9 20 20 20h85c11 0 20 -9 20 -20z" />
    <glyph glyph-name="brokenbar.case" 
d="M333 687v-267c0 -11 -9 -20 -20 -20h-76c-11 0 -20 9 -20 20v267c0 11 9 20 20 20h76c11 0 20 -9 20 -20zM333 287v-267c0 -11 -9 -20 -20 -20h-76c-11 0 -20 9 -20 20v267c0 11 9 20 20 20h76c11 0 20 -9 20 -20z" />
    <glyph glyph-name="apple" unicode="&#xf8ff;" 
d="M184 120c-36 0 -16 -57 -68 -57c-28 0 -52 21 -52 45c0 48 42 37 42 97c0 23 -13 38 -28 38c-16 0 -15 -7 -30 -7c-20 0 -30 26 -30 52c0 18 14 39 33 39c13 0 17 -11 27 -11c20 0 27 27 27 40c0 16 -10 33 -10 49c0 26 18 37 40 37c6 0 9 3 9 8c0 7 -8 14 -8 24
c0 7 9 14 16 14c21 0 24 -35 42 -35c32 0 4 55 49 55c42 0 34 -48 72 -48c28 0 35 15 35 48c0 37 23 53 53 53c29 0 47 -19 47 -48c0 -43 -48 -47 -48 -69c0 -38 78 -32 78 -96c0 -38 -32 -38 -32 -72c0 -13 11 -26 44 -26c29 0 40 -20 40 -45c0 -29 -23 -52 -52 -52
c-31 0 -38 50 -72 50c-14 0 -25 -8 -25 -21c0 -22 20 -17 20 -49c0 -17 -11 -33 -35 -33s-44 30 -80 30c-12 0 -26 -8 -26 -31c0 -16 -9 -27 -24 -27c-25 0 -10 48 -54 48zM298 340c0 -22 18 -40 40 -40s43 18 43 40s-21 47 -43 47s-40 -25 -40 -47zM281 226
c-19 0 -35 8 -48 20c-6 5 -10 0 -5 -7c10 -16 25 -29 53 -29c26 0 38 19 44 34c3 6 -4 9 -6 4c-9 -16 -22 -22 -38 -22zM214 335c0 12 6 21 14 21s14 -9 14 -21s-6 -21 -14 -21s-14 9 -14 21zM310 340c0 12 6 21 14 21s14 -9 14 -21s-6 -21 -14 -21s-14 9 -14 21zM178 340
c0 -28 14 -50 36 -50s40 22 40 50s-18 50 -40 50s-36 -22 -36 -50zM85 520c0 19 13 34 29 34c13 0 24 -15 24 -34s-11 -34 -24 -34c-16 0 -29 15 -29 34z" />
    <glyph glyph-name="guillemotleft.case" 
d="M38 361l120 201c4 6 12 19 31 19h72c23 0 35 -16 20 -42l-107 -181c-7 -11 -7 -17 0 -30l106 -181c16 -26 4 -41 -19 -41h-72c-19 0 -27 12 -31 18l-120 201c-9 14 -9 22 0 36zM269 360l120 202c4 6 13 19 31 19h72c24 0 35 -16 20 -42l-107 -181c-7 -11 -7 -18 1 -30
l106 -182c15 -25 4 -40 -20 -40h-72c-18 0 -27 12 -31 18l-120 202c-8 13 -8 21 0 34z" />
    <glyph glyph-name="guillemotright.case" 
d="M392 562l120 -201c8 -14 8 -22 0 -36l-120 -201c-4 -6 -13 -18 -31 -18h-72c-24 0 -35 15 -20 41l107 181c7 12 7 18 0 30l-107 182c-15 25 -4 41 20 41h72c18 0 27 -13 31 -19zM161 561l120 -200c8 -14 8 -22 0 -36l-120 -200c-4 -7 -13 -19 -32 -19h-71
c-24 0 -35 15 -20 41l106 181c7 13 7 19 0 30l-106 182c-15 25 -4 41 20 41h71c19 0 28 -13 32 -20z" />
    <glyph glyph-name="guilsinglleft.case" 
d="M153 361l120 201c4 6 12 19 31 19h72c23 0 34 -16 19 -42l-106 -181c-7 -11 -7 -17 0 -30l107 -182c15 -25 3 -40 -20 -40h-72c-19 0 -27 12 -31 18l-120 201c-9 14 -9 22 0 36z" />
    <glyph glyph-name="guilsinglright.case" 
d="M277 562l120 -201c8 -14 8 -22 0 -36l-120 -201c-4 -6 -13 -18 -31 -18h-72c-24 0 -35 15 -20 41l106 181c8 13 8 18 1 30l-107 181c-15 26 -4 42 20 42h72c18 0 27 -13 31 -19z" />
    <glyph glyph-name="hyphen.case" 
d="M138 407h273c11 0 20 -9 20 -20v-99c0 -11 -9 -20 -20 -20h-273c-11 0 -20 9 -20 20v99c0 11 9 20 20 20z" />
    <glyph glyph-name="endash.case" 
d="M70 395h410c11 0 20 -9 20 -20v-89c0 -11 -9 -20 -20 -20h-410c-11 0 -20 9 -20 20v89c0 11 9 20 20 20z" />
    <glyph glyph-name="emdash.case" 
d="M-3 395h557c11 0 20 -9 20 -20v-89c0 -11 -9 -20 -20 -20h-557c-11 0 -20 9 -20 20v89c0 11 9 20 20 20z" />
    <glyph glyph-name="plus.case" 
d="M25 396h172c7 0 12 5 12 13v172c0 13 11 25 25 25h81c14 0 25 -12 25 -25v-172c0 -8 5 -13 13 -13h172c14 0 25 -11 25 -25v-81c0 -14 -11 -25 -25 -25h-172c-8 0 -13 -5 -13 -12v-172c0 -14 -11 -25 -25 -25h-81c-14 0 -25 11 -25 25v172c0 7 -5 12 -12 12h-172
c-14 0 -25 11 -25 25v81c0 14 11 25 25 25z" />
    <glyph glyph-name="equal.case" 
d="M525 384h-500c-14 0 -25 11 -25 25v80c0 14 11 25 25 25h500c14 0 25 -11 25 -25v-80c0 -14 -11 -25 -25 -25zM525 147h-500c-14 0 -25 11 -25 25v80c0 14 11 25 25 25h500c14 0 25 -11 25 -25v-80c0 -14 -11 -25 -25 -25z" />
    <glyph glyph-name="less.case" 
d="M201 325l305 -162c13 -7 19 -15 19 -27v-94c0 -20 -17 -30 -29 -24l-453 255c-11 6 -18 16 -18 32v52c0 16 8 26 19 32l453 254c11 6 28 -4 28 -24v-94c0 -12 -6 -19 -19 -27l-305 -162c-5 -2 -5 -9 0 -11z" />
    <glyph glyph-name="greater.case" 
d="M43 162l306 163c5 3 5 8 0 11l-306 163c-12 6 -18 14 -18 26v94c0 20 18 30 29 24l453 -254c11 -6 18 -16 18 -32v-52c0 -16 -8 -26 -19 -32l-453 -255c-11 -6 -28 4 -28 24v94c0 12 6 20 18 26z" />
    <glyph glyph-name="approxequal.case" 
d="M161 398c-22 0 -71 -12 -82 -26c-10 -13 -29 -11 -29 9v80c0 36 61 61 111 61c104 0 120 -45 228 -45c22 0 71 12 82 26c10 13 29 11 29 -9v-80c0 -36 -61 -61 -111 -61c-104 0 -120 45 -228 45zM161 166c-22 0 -71 -12 -82 -26c-10 -13 -29 -11 -29 9v80
c0 36 61 61 111 61c104 0 120 -45 228 -45c22 0 71 12 82 26c10 13 29 11 29 -9v-80c0 -36 -61 -61 -111 -61c-104 0 -120 45 -228 45z" />
    <glyph glyph-name="notequal.case" 
d="M321 277h204c14 0 25 -11 25 -25v-80c0 -14 -11 -25 -25 -25h-290c-10 0 -14 -4 -18 -9l-52 -74c-9 -13 -17 -19 -29 -19h-70c-16 0 -31 19 -19 36l39 57c2 4 1 9 -6 9h-55c-14 0 -25 11 -25 25v80c0 14 11 25 25 25h141c10 0 14 4 18 10l62 88c2 4 1 9 -6 9h-215
c-14 0 -25 11 -25 25v80c0 14 11 25 25 25h302c10 0 14 4 18 9l55 79c9 13 12 19 24 19h73c17 0 32 -19 21 -35l-45 -63c-2 -4 -1 -9 7 -9h45c14 0 25 -11 25 -25v-80c0 -14 -11 -25 -25 -25h-132c-10 0 -14 -4 -18 -10l-60 -88c-3 -4 -1 -9 6 -9z" />
    <glyph glyph-name="minus.case" 
d="M31 410h488c14 0 25 -11 25 -25v-83c0 -14 -11 -25 -25 -25h-488c-14 0 -25 11 -25 25v83c0 14 11 25 25 25z" />
    <glyph glyph-name="divide.case" 
d="M31 395h488c14 0 25 -11 25 -25v-79c0 -14 -11 -25 -25 -25h-488c-14 0 -25 11 -25 25v79c0 14 11 25 25 25zM361 156v-113c0 -14 -11 -25 -25 -25h-112c-14 0 -25 11 -25 25v113c0 13 11 25 25 25h112c14 0 25 -12 25 -25zM361 610v-113c0 -13 -11 -25 -25 -25h-112
c-14 0 -25 12 -25 25v113c0 14 11 25 25 25h112c14 0 25 -11 25 -25z" />
    <glyph glyph-name="multiply.case" 
d="M44 192l129 129c5 6 5 13 0 19l-130 130c-10 10 -10 25 0 35l58 58c10 10 25 9 34 0l131 -131c5 -5 12 -5 17 0l130 130c10 10 26 10 36 0l57 -58c10 -9 10 -25 0 -35l-130 -130c-5 -5 -5 -12 1 -18l130 -130c10 -10 10 -25 0 -35l-57 -58c-10 -10 -26 -10 -36 0
l-131 131c-5 5 -12 5 -17 0l-129 -130c-10 -10 -26 -9 -35 0l-58 58c-10 10 -10 25 0 35z" />
    <glyph glyph-name="logicalnot.case" 
d="M414 147v104c0 7 -5 12 -13 12h-370c-14 0 -25 11 -25 25v80c0 14 11 25 25 25h488c13 0 25 -11 25 -25v-221c0 -14 -12 -25 -25 -25h-80c-14 0 -25 11 -25 25z" />
    <glyph glyph-name="at.case" 
d="M279 40c39 0 74 6 106 21c13 6 24 -2 24 -15v-46c0 -16 -12 -21 -24 -28c-21 -12 -68 -22 -106 -22c-137 0 -259 80 -259 248v144c0 141 117 248 261 248c125 0 248 -70 248 -228v-142c0 -70 -31 -120 -94 -120c-36 0 -49 20 -66 20c-13 0 -25 -7 -38 -12
c-15 -6 -32 -10 -51 -10c-97 0 -127 72 -127 166c0 83 12 182 126 182c74 0 125 -50 125 -114v-110c0 -13 6 -22 19 -22s21 8 21 22v140c0 96 -83 138 -165 138c-102 0 -168 -61 -168 -158v-144c0 -118 98 -158 168 -158zM321 218v108c0 19 -14 32 -42 32
c-45 0 -45 -36 -45 -93c0 -32 -2 -79 45 -79c28 0 42 14 42 32z" />
    <glyph glyph-name="arrowup.case" 
d="M214 110v352l-62 -67c-8 -8 -13 -15 -23 -15h-82c-16 0 -26 19 -14 31l225 225c10 10 19 9 27 1l233 -233c10 -10 2 -24 -10 -24h-85c-8 0 -17 3 -25 12l-67 72v-354c0 -10 -10 -20 -20 -20h-77c-10 0 -20 10 -20 20z" />
    <glyph glyph-name="arrowright.case" 
d="M48 402h294l-72 67c-9 8 -12 17 -12 25v85c0 12 14 20 24 10l233 -233c8 -8 9 -17 -1 -27l-225 -225c-12 -12 -31 -2 -31 14v82c0 10 7 15 15 23l67 62h-292c-10 0 -20 10 -20 20v77c0 10 10 20 20 20z" />
    <glyph glyph-name="arrowleft.case" 
d="M208 402h294c10 0 20 -10 20 -20v-77c0 -10 -10 -20 -20 -20h-292l67 -62c8 -8 15 -13 15 -23v-82c0 -16 -19 -26 -31 -14l-225 225c-10 10 -9 19 -1 27l233 233c10 10 24 2 24 -10v-85c0 -8 -3 -17 -12 -25z" />
    <glyph glyph-name="arrowdown.case" 
d="M214 249v352c0 10 10 20 20 20h77c10 0 20 -10 20 -20v-354l67 72c8 9 17 12 25 12h85c12 0 20 -14 10 -24l-233 -233c-8 -8 -17 -9 -27 1l-225 225c-12 12 -2 31 14 31h82c10 0 15 -7 23 -15z" />
    <glyph glyph-name="uni2196.case" 
d="M233 457l250 -249c7 -7 7 -21 0 -28l-54 -55c-7 -7 -21 -7 -29 0l-248 248l4 -91c0 -12 1 -20 -6 -27l-58 -58c-11 -11 -32 -5 -32 12v318c0 14 7 20 18 20h330c14 0 18 -16 10 -24l-60 -60c-6 -6 -14 -10 -26 -9z" />
    <glyph glyph-name="uni2197.case" 
d="M66 208l250 249l-99 -3c-12 0 -20 3 -26 9l-60 60c-8 8 -4 24 10 24h330c11 0 18 -6 18 -20v-318c0 -17 -21 -23 -32 -12l-58 58c-7 7 -6 15 -6 27l4 91l-248 -248c-8 -7 -22 -7 -29 0l-54 55c-7 7 -7 21 0 28z" />
    <glyph glyph-name="uni2198.case" 
d="M316 227l-250 249c-7 7 -7 21 0 28l54 55c7 7 21 8 29 0l248 -248l-4 91c0 12 -1 20 6 27l58 58c11 11 32 5 32 -12v-318c0 -14 -7 -20 -18 -20h-330c-14 0 -18 16 -10 24l60 60c6 6 14 9 26 9z" />
    <glyph glyph-name="uni2199.case" 
d="M483 476l-250 -249l99 3c12 0 20 -3 26 -9l60 -60c8 -8 4 -24 -10 -24h-330c-11 0 -18 6 -18 20v318c0 17 21 23 32 12l58 -58c7 -7 6 -15 6 -27l-4 -91l248 248c8 7 22 7 29 0l54 -55c7 -7 7 -21 0 -28z" />
    <glyph glyph-name="eightsuperior" unicode="&#x2078;" 
d="M275 420c23 0 37 18 37 38s-14 35 -37 35s-37 -15 -37 -35s14 -38 37 -38zM275 562c18 0 33 15 33 33c0 16 -15 34 -33 34s-33 -18 -33 -34c0 -18 15 -33 33 -33zM274 707c65 0 115 -48 115 -107c0 -25 -11 -49 -26 -67c-4 -4 -4 -7 0 -10c17 -14 30 -44 30 -70
c0 -62 -53 -110 -118 -110s-118 48 -118 110c0 26 11 56 29 70c4 3 4 6 -1 10c-21 21 -26 42 -26 67c0 59 53 107 115 107z" />
    <glyph glyph-name="zerosuperior" unicode="&#x2070;" 
d="M160 591c7 64 56 116 115 116c62 0 108 -59 114 -116c5 -44 5 -88 0 -132c-8 -64 -56 -116 -114 -116c-63 0 -109 59 -115 116c-5 43 -5 89 0 132zM275 622c-16 0 -26 -15 -27 -27c-4 -45 -4 -95 0 -140c2 -17 15 -26 27 -26c15 0 25 14 26 26c4 45 4 95 0 140
c-2 17 -15 27 -26 27z" />
    <glyph glyph-name="onesuperior" unicode="&#xb9;" 
d="M243 440v142c0 9 -9 9 -13 5l-53 -40c-9 -7 -22 0 -22 12v55c0 8 -3 13 6 23l48 46c6 6 17 17 36 17h74c6 0 10 -4 10 -10v-250c0 -3 2 -5 5 -5h52c6 0 10 -5 10 -10v-65c0 -5 -4 -10 -10 -10h-216c-5 0 -10 5 -10 10v65c0 5 5 10 10 10h68c3 0 5 2 5 5z" />
    <glyph glyph-name="twosuperior" unicode="&#xb2;" 
d="M303 602c0 12 -10 24 -27 24c-24 0 -30 -16 -30 -30v-9c0 -5 -5 -10 -10 -10h-64c-5 0 -10 6 -10 10v8c0 63 53 112 115 112c63 0 114 -40 114 -103c0 -30 -23 -61 -36 -74l-84 -84c-3 -3 -5 -11 6 -11h109c6 0 10 -6 10 -10v-65c0 -5 -5 -10 -10 -10h-217
c-5 0 -10 5 -10 10v79c0 7 2 10 4 12l107 106c20 19 33 33 33 45z" />
    <glyph glyph-name="threesuperior" unicode="&#xb3;" 
d="M308 462c0 24 -21 33 -34 33h-6c-5 0 -10 5 -10 10v42c0 6 5 10 10 10h6c15 0 32 11 32 33c0 20 -13 33 -31 33c-17 0 -30 -13 -30 -28v-8c0 -5 -5 -10 -10 -10h-64c-6 0 -10 5 -10 10v8c0 62 53 112 114 112c62 0 113 -50 113 -112c0 -24 -11 -48 -24 -64
c-2 -3 -2 -6 0 -7c18 -14 27 -42 27 -66c0 -65 -52 -115 -116 -115c-63 0 -116 50 -116 115v6c0 5 5 10 10 10h63c6 0 10 -5 10 -10v-6c0 -18 13 -31 33 -31s33 12 33 35z" />
    <glyph glyph-name="foursuperior" unicode="&#x2074;" 
d="M367 489h14c6 0 10 -4 10 -10v-58c0 -6 -4 -10 -10 -10h-14c-3 0 -5 -2 -5 -5v-46c0 -5 -5 -10 -10 -10h-61c-6 0 -10 5 -10 10v46c0 3 -2 5 -5 5h-108c-5 0 -10 4 -10 10v74c0 7 4 13 8 20l105 178c3 6 5 7 11 7h70c5 0 10 -4 10 -10v-196c0 -3 2 -5 5 -5zM274 564
l-35 -68c-2 -4 0 -7 4 -7h33c3 0 5 2 5 5v68c0 4 -5 5 -7 2z" />
    <glyph glyph-name="fivesuperior" unicode="&#x2075;" 
d="M366 615h-115c-3 0 -5 -2 -5 -5v-25c0 -8 5 -6 8 -5c4 2 12 6 26 6c67 0 111 -45 112 -119c1 -58 -38 -124 -118 -124c-63 0 -117 27 -117 106c0 6 5 10 10 10h63c6 0 10 -5 10 -10c0 -13 15 -20 30 -20c30 0 37 21 37 38s-5 42 -33 42c-11 0 -19 -3 -24 -6
c-3 -2 -7 -5 -14 -5h-65c-5 0 -10 5 -10 10v182c0 6 5 10 10 10h195c6 0 10 -4 10 -10v-65c0 -6 -4 -10 -10 -10z" />
    <glyph glyph-name="sixsuperior" unicode="&#x2076;" 
d="M293 583c67 0 101 -51 101 -119s-47 -121 -118 -121c-64 0 -110 51 -117 112c-5 44 -5 96 0 140c7 62 55 112 115 112c56 0 118 -44 118 -99c0 -6 -5 -10 -10 -10h-50c-10 0 -15 3 -18 9c-6 10 -15 23 -35 23c-19 0 -40 -13 -40 -32c0 -11 1 -21 13 -21c11 0 22 6 41 6z
M276 424c25 0 36 19 36 44c0 26 -15 40 -36 40c-27 0 -36 -21 -36 -40c0 -30 16 -44 36 -44z" />
    <glyph glyph-name="sevensuperior" unicode="&#x2077;" 
d="M184 362l114 249c1 2 -1 5 -4 5h-120c-5 0 -10 4 -10 10v64c0 6 5 10 10 10h201c6 0 10 -4 10 -10v-80c0 -3 -1 -5 -3 -10l-108 -243c-2 -4 -5 -7 -10 -7h-71c-9 0 -11 8 -9 12z" />
    <glyph glyph-name="ninesuperior" unicode="&#x2079;" 
d="M256 467c-67 0 -101 51 -101 119s47 121 118 121c64 0 110 -51 117 -112c5 -44 5 -96 0 -140c-7 -62 -55 -112 -115 -112c-56 0 -118 44 -118 99c0 6 5 10 10 10h50c10 0 15 -3 18 -9c6 -10 15 -23 35 -23c19 0 40 13 40 32c0 11 -1 21 -13 21c-11 0 -22 -6 -41 -6z
M273 626c-25 0 -36 -19 -36 -44c0 -26 15 -40 36 -40c27 0 36 21 36 40c0 30 -16 44 -36 44z" />
    <glyph glyph-name="plussuperior" unicode="&#x207a;" 
d="M175 515h55c3 0 5 2 5 5v55c0 6 5 10 10 10h59c5 0 10 -4 10 -10v-55c0 -3 2 -5 5 -5h56c6 0 10 -5 10 -10v-59c0 -5 -4 -10 -10 -10h-56c-3 0 -5 -2 -5 -5v-56c0 -5 -5 -10 -10 -10h-59c-5 0 -10 5 -10 10v56c0 3 -2 5 -5 5h-55c-5 0 -10 5 -10 10v59c0 5 5 10 10 10z
" />
    <glyph glyph-name="parenleftsuperior" unicode="&#x207d;" 
d="M309 384h36c5 0 10 -4 10 -10v-59c0 -5 -5 -10 -10 -10h-36c-60 0 -105 40 -113 105c-5 40 -5 155 0 195c7 54 47 105 113 105h38c6 0 10 -4 10 -10v-59c0 -5 -4 -10 -10 -10h-38c-15 0 -27 2 -33 -26c-9 -41 -9 -154 0 -195c4 -20 11 -26 33 -26z" />
    <glyph glyph-name="parenrightsuperior" unicode="&#x207e;" 
d="M204 384h37c21 0 28 6 32 26c9 41 9 154 0 195c-6 28 -17 26 -32 26h-39c-5 0 -10 5 -10 10v59c0 6 5 10 10 10h39c66 0 105 -51 112 -105c5 -40 5 -155 0 -195c-8 -65 -52 -105 -112 -105h-37c-5 0 -10 5 -10 10v59c0 6 5 10 10 10z" />
    <glyph glyph-name="equalsuperior" unicode="&#x207c;" 
d="M375 489h-200c-5 0 -10 5 -10 10v57c0 5 5 10 10 10h200c6 0 10 -5 10 -10v-57c0 -5 -4 -10 -10 -10zM375 384h-200c-5 0 -10 5 -10 10v57c0 5 5 10 10 10h200c6 0 10 -5 10 -10v-57c0 -5 -4 -10 -10 -10z" />
    <glyph glyph-name="minussuperior" unicode="&#x207b;" 
d="M167 519h216c6 0 10 -5 10 -10v-57c0 -6 -4 -10 -10 -10h-216c-5 0 -10 4 -10 10v57c0 5 5 10 10 10z" />
    <glyph glyph-name="eightinferior" unicode="&#x2088;" 
d="M275 -112c23 0 37 18 37 38s-14 35 -37 35s-37 -15 -37 -35s14 -38 37 -38zM275 30c18 0 33 15 33 33c0 16 -15 34 -33 34s-33 -18 -33 -34c0 -18 15 -33 33 -33zM274 175c65 0 115 -48 115 -107c0 -25 -11 -49 -26 -67c-4 -4 -4 -7 0 -10c17 -14 30 -44 30 -70
c0 -62 -53 -110 -118 -110s-118 48 -118 110c0 26 11 56 29 70c4 3 4 6 -1 10c-21 21 -26 42 -26 67c0 59 53 107 115 107z" />
    <glyph glyph-name="zeroinferior" unicode="&#x2080;" 
d="M160 59c7 64 56 116 115 116c62 0 108 -59 114 -116c5 -44 5 -88 0 -132c-8 -64 -56 -116 -114 -116c-63 0 -109 59 -115 116c-5 43 -5 89 0 132zM275 90c-16 0 -26 -15 -27 -27c-4 -45 -4 -95 0 -140c2 -17 15 -26 27 -26c15 0 25 14 26 26c4 45 4 95 0 140
c-2 17 -15 27 -26 27z" />
    <glyph glyph-name="oneinferior" unicode="&#x2081;" 
d="M243 -92v142c0 9 -9 9 -13 5l-53 -40c-9 -7 -22 0 -22 12v55c0 8 -3 13 6 23l48 46c6 6 17 17 36 17h74c6 0 10 -4 10 -10v-250c0 -3 2 -5 5 -5h52c6 0 10 -5 10 -10v-65c0 -6 -4 -10 -10 -10h-216c-5 0 -10 4 -10 10v65c0 5 5 10 10 10h68c3 0 5 2 5 5z" />
    <glyph glyph-name="twoinferior" unicode="&#x2082;" 
d="M303 70c0 12 -10 24 -27 24c-24 0 -30 -16 -30 -30v-9c0 -5 -5 -10 -10 -10h-64c-5 0 -10 6 -10 10v8c0 63 53 112 115 112c63 0 114 -40 114 -103c0 -30 -23 -61 -36 -74l-84 -84c-3 -3 -5 -11 6 -11h109c6 0 10 -6 10 -10v-65c0 -5 -5 -10 -10 -10h-217
c-5 0 -10 5 -10 10v79c0 7 2 10 4 12l107 106c20 19 33 33 33 45z" />
    <glyph glyph-name="threeinferior" unicode="&#x2083;" 
d="M308 -70c0 24 -21 33 -34 33h-6c-5 0 -10 5 -10 10v42c0 6 5 10 10 10h6c15 0 32 11 32 33c0 20 -13 33 -31 33c-17 0 -30 -13 -30 -28v-8c0 -5 -5 -10 -10 -10h-64c-6 0 -10 5 -10 10v8c0 62 53 112 114 112c62 0 113 -50 113 -112c0 -24 -11 -48 -24 -64
c-2 -3 -2 -6 0 -7c18 -14 27 -42 27 -66c0 -65 -52 -115 -116 -115c-63 0 -116 50 -116 115v6c0 5 5 10 10 10h63c6 0 10 -5 10 -10v-6c0 -18 13 -31 33 -31s33 12 33 35z" />
    <glyph glyph-name="fourinferior" unicode="&#x2084;" 
d="M367 -43h14c6 0 10 -5 10 -10v-58c0 -6 -4 -10 -10 -10h-14c-3 0 -5 -2 -5 -5v-46c0 -6 -5 -10 -10 -10h-61c-6 0 -10 4 -10 10v46c0 3 -2 5 -5 5h-108c-5 0 -10 4 -10 10v74c0 7 4 13 8 20l105 178c3 6 5 7 11 7h70c5 0 10 -4 10 -10v-196c0 -3 2 -5 5 -5zM274 32
l-35 -68c-2 -4 0 -7 4 -7h33c3 0 5 2 5 5v68c0 4 -5 5 -7 2z" />
    <glyph glyph-name="fiveinferior" unicode="&#x2085;" 
d="M366 83h-115c-3 0 -5 -2 -5 -5v-25c0 -8 5 -6 8 -5c4 2 12 6 26 6c67 0 111 -45 112 -119c1 -58 -38 -124 -118 -124c-63 0 -117 27 -117 106c0 6 5 10 10 10h63c6 0 10 -5 10 -10c0 -13 15 -20 30 -20c30 0 37 21 37 38s-5 42 -33 42c-11 0 -19 -3 -24 -6
c-3 -2 -7 -5 -14 -5h-65c-5 0 -10 5 -10 10v182c0 6 5 10 10 10h195c6 0 10 -4 10 -10v-65c0 -6 -4 -10 -10 -10z" />
    <glyph glyph-name="sixinferior" unicode="&#x2086;" 
d="M293 51c67 0 101 -51 101 -119s-47 -121 -118 -121c-64 0 -110 51 -117 112c-5 44 -5 96 0 140c7 62 55 112 115 112c56 0 118 -44 118 -99c0 -6 -5 -10 -10 -10h-50c-10 0 -15 3 -18 9c-6 10 -15 23 -35 23c-19 0 -40 -13 -40 -32c0 -11 1 -21 13 -21c11 0 22 6 41 6z
M276 -108c25 0 36 19 36 44c0 26 -15 40 -36 40c-27 0 -36 -21 -36 -40c0 -30 16 -44 36 -44z" />
    <glyph glyph-name="seveninferior" unicode="&#x2087;" 
d="M184 -170l114 249c1 2 -1 5 -4 5h-120c-5 0 -10 4 -10 10v64c0 6 5 10 10 10h201c6 0 10 -4 10 -10v-80c0 -3 -1 -5 -3 -10l-108 -243c-2 -4 -5 -7 -10 -7h-71c-9 0 -11 8 -9 12z" />
    <glyph glyph-name="nineinferior" unicode="&#x2089;" 
d="M256 -65c-67 0 -101 51 -101 119s47 121 118 121c64 0 110 -51 117 -112c5 -44 5 -96 0 -140c-7 -62 -55 -112 -115 -112c-56 0 -118 44 -118 99c0 6 5 10 10 10h50c10 0 15 -3 18 -9c6 -10 15 -23 35 -23c19 0 40 13 40 32c0 11 -1 21 -13 21c-11 0 -22 -6 -41 -6z
M273 94c-25 0 -36 -19 -36 -44c0 -26 15 -40 36 -40c27 0 36 21 36 40c0 30 -16 44 -36 44z" />
    <glyph glyph-name="plusinferior" 
d="M175 -17h55c3 0 5 2 5 5v55c0 6 5 10 10 10h59c5 0 10 -4 10 -10v-55c0 -3 2 -5 5 -5h56c6 0 10 -5 10 -10v-59c0 -5 -4 -10 -10 -10h-56c-3 0 -5 -2 -5 -5v-56c0 -6 -5 -10 -10 -10h-59c-5 0 -10 4 -10 10v56c0 3 -2 5 -5 5h-55c-5 0 -10 5 -10 10v59c0 5 5 10 10 10z
" />
    <glyph glyph-name="parenleftinferior" unicode="&#x208d;" 
d="M309 -148h36c5 0 10 -5 10 -10v-59c0 -6 -5 -10 -10 -10h-36c-60 0 -105 40 -113 105c-5 40 -5 155 0 195c7 54 47 105 113 105h38c6 0 10 -4 10 -10v-59c0 -5 -4 -10 -10 -10h-38c-15 0 -27 2 -33 -26c-9 -41 -9 -154 0 -195c4 -20 11 -26 33 -26z" />
    <glyph glyph-name="parenrightinferior" unicode="&#x208e;" 
d="M204 -148h37c21 0 28 6 32 26c9 41 9 154 0 195c-6 28 -17 26 -32 26h-39c-5 0 -10 5 -10 10v59c0 6 5 10 10 10h39c66 0 105 -51 112 -105c5 -40 5 -155 0 -195c-8 -65 -52 -105 -112 -105h-37c-5 0 -10 4 -10 10v59c0 5 5 10 10 10z" />
    <glyph glyph-name="equalinferior" 
d="M375 -43h-200c-5 0 -10 5 -10 10v57c0 5 5 10 10 10h200c6 0 10 -5 10 -10v-57c0 -5 -4 -10 -10 -10zM375 -148h-200c-5 0 -10 5 -10 10v57c0 5 5 10 10 10h200c6 0 10 -5 10 -10v-57c0 -5 -4 -10 -10 -10z" />
    <glyph glyph-name="minusinferior" 
d="M167 -13h216c6 0 10 -5 10 -10v-57c0 -6 -4 -10 -10 -10h-216c-5 0 -10 4 -10 10v57c0 5 5 10 10 10z" />
    <glyph glyph-name="eight.numerator" 
d="M275 420c23 0 37 18 37 38s-14 35 -37 35s-37 -15 -37 -35s14 -38 37 -38zM275 562c18 0 33 15 33 33c0 16 -15 34 -33 34s-33 -18 -33 -34c0 -18 15 -33 33 -33zM274 707c65 0 115 -48 115 -107c0 -25 -11 -49 -26 -67c-4 -4 -4 -7 0 -10c17 -14 30 -44 30 -70
c0 -62 -53 -110 -118 -110s-118 48 -118 110c0 26 11 56 29 70c4 3 4 6 -1 10c-21 21 -26 42 -26 67c0 59 53 107 115 107z" />
    <glyph glyph-name="zero.numerator" 
d="M160 591c7 64 56 116 115 116c62 0 108 -59 114 -116c5 -44 5 -88 0 -132c-8 -64 -56 -116 -114 -116c-63 0 -109 59 -115 116c-5 43 -5 89 0 132zM275 622c-16 0 -26 -15 -27 -27c-4 -45 -4 -95 0 -140c2 -17 15 -26 27 -26c15 0 25 14 26 26c4 45 4 95 0 140
c-2 17 -15 27 -26 27z" />
    <glyph glyph-name="one.numerator" 
d="M243 440v142c0 9 -9 9 -13 5l-53 -40c-9 -7 -22 0 -22 12v55c0 8 -3 13 6 23l48 46c6 6 17 17 36 17h74c6 0 10 -4 10 -10v-250c0 -3 2 -5 5 -5h52c6 0 10 -5 10 -10v-65c0 -5 -4 -10 -10 -10h-216c-5 0 -10 5 -10 10v65c0 5 5 10 10 10h68c3 0 5 2 5 5z" />
    <glyph glyph-name="two.numerator" 
d="M303 602c0 12 -10 24 -27 24c-24 0 -30 -16 -30 -30v-9c0 -5 -5 -10 -10 -10h-64c-5 0 -10 6 -10 10v8c0 63 53 112 115 112c63 0 114 -40 114 -103c0 -30 -23 -61 -36 -74l-84 -84c-3 -3 -5 -11 6 -11h109c6 0 10 -6 10 -10v-65c0 -5 -5 -10 -10 -10h-217
c-5 0 -10 5 -10 10v79c0 7 2 10 4 12l107 106c20 19 33 33 33 45z" />
    <glyph glyph-name="three.numerator" 
d="M308 462c0 24 -21 33 -34 33h-6c-5 0 -10 5 -10 10v42c0 6 5 10 10 10h6c15 0 32 11 32 33c0 20 -13 33 -31 33c-17 0 -30 -13 -30 -28v-8c0 -5 -5 -10 -10 -10h-64c-6 0 -10 5 -10 10v8c0 62 53 112 114 112c62 0 113 -50 113 -112c0 -24 -11 -48 -24 -64
c-2 -3 -2 -6 0 -7c18 -14 27 -42 27 -66c0 -65 -52 -115 -116 -115c-63 0 -116 50 -116 115v6c0 5 5 10 10 10h63c6 0 10 -5 10 -10v-6c0 -18 13 -31 33 -31s33 12 33 35z" />
    <glyph glyph-name="four.numerator" 
d="M367 489h14c6 0 10 -4 10 -10v-58c0 -6 -4 -10 -10 -10h-14c-3 0 -5 -2 -5 -5v-46c0 -5 -5 -10 -10 -10h-61c-6 0 -10 5 -10 10v46c0 3 -2 5 -5 5h-108c-5 0 -10 4 -10 10v74c0 7 4 13 8 20l105 178c3 6 5 7 11 7h70c5 0 10 -4 10 -10v-196c0 -3 2 -5 5 -5zM274 564
l-35 -68c-2 -4 0 -7 4 -7h33c3 0 5 2 5 5v68c0 4 -5 5 -7 2z" />
    <glyph glyph-name="five.numerator" 
d="M366 615h-115c-3 0 -5 -2 -5 -5v-25c0 -8 5 -6 8 -5c4 2 12 6 26 6c67 0 111 -45 112 -119c1 -58 -38 -124 -118 -124c-63 0 -117 27 -117 106c0 6 5 10 10 10h63c6 0 10 -5 10 -10c0 -13 15 -20 30 -20c30 0 37 21 37 38s-5 42 -33 42c-11 0 -19 -3 -24 -6
c-3 -2 -7 -5 -14 -5h-65c-5 0 -10 5 -10 10v182c0 6 5 10 10 10h195c6 0 10 -4 10 -10v-65c0 -6 -4 -10 -10 -10z" />
    <glyph glyph-name="six.numerator" 
d="M293 583c67 0 101 -51 101 -119s-47 -121 -118 -121c-64 0 -110 51 -117 112c-5 44 -5 96 0 140c7 62 55 112 115 112c56 0 118 -44 118 -99c0 -6 -5 -10 -10 -10h-50c-10 0 -15 3 -18 9c-6 10 -15 23 -35 23c-19 0 -40 -13 -40 -32c0 -11 1 -21 13 -21c11 0 22 6 41 6z
M276 424c25 0 36 19 36 44c0 26 -15 40 -36 40c-27 0 -36 -21 -36 -40c0 -30 16 -44 36 -44z" />
    <glyph glyph-name="seven.numerator" 
d="M184 362l114 249c1 2 -1 5 -4 5h-120c-5 0 -10 4 -10 10v64c0 6 5 10 10 10h201c6 0 10 -4 10 -10v-80c0 -3 -1 -5 -3 -10l-108 -243c-2 -4 -5 -7 -10 -7h-71c-9 0 -11 8 -9 12z" />
    <glyph glyph-name="nine.numerator" 
d="M256 467c-67 0 -101 51 -101 119s47 121 118 121c64 0 110 -51 117 -112c5 -44 5 -96 0 -140c-7 -62 -55 -112 -115 -112c-56 0 -118 44 -118 99c0 6 5 10 10 10h50c10 0 15 -3 18 -9c6 -10 15 -23 35 -23c19 0 40 13 40 32c0 11 -1 21 -13 21c-11 0 -22 -6 -41 -6z
M273 626c-25 0 -36 -19 -36 -44c0 -26 15 -40 36 -40c27 0 36 21 36 40c0 30 -16 44 -36 44z" />
    <glyph glyph-name="plus.numerator" 
d="M175 515h55c3 0 5 2 5 5v55c0 6 5 10 10 10h59c5 0 10 -4 10 -10v-55c0 -3 2 -5 5 -5h56c6 0 10 -5 10 -10v-59c0 -5 -4 -10 -10 -10h-56c-3 0 -5 -2 -5 -5v-56c0 -5 -5 -10 -10 -10h-59c-5 0 -10 5 -10 10v56c0 3 -2 5 -5 5h-55c-5 0 -10 5 -10 10v59c0 5 5 10 10 10z
" />
    <glyph glyph-name="parenleft.numerator" 
d="M309 384h36c5 0 10 -4 10 -10v-59c0 -5 -5 -10 -10 -10h-36c-60 0 -105 40 -113 105c-5 40 -5 155 0 195c7 54 47 105 113 105h38c6 0 10 -4 10 -10v-59c0 -5 -4 -10 -10 -10h-38c-15 0 -27 2 -33 -26c-9 -41 -9 -154 0 -195c4 -20 11 -26 33 -26z" />
    <glyph glyph-name="parenright.numerator" 
d="M204 384h37c21 0 28 6 32 26c9 41 9 154 0 195c-6 28 -17 26 -32 26h-39c-5 0 -10 5 -10 10v59c0 6 5 10 10 10h39c66 0 105 -51 112 -105c5 -40 5 -155 0 -195c-8 -65 -52 -105 -112 -105h-37c-5 0 -10 5 -10 10v59c0 6 5 10 10 10z" />
    <glyph glyph-name="equal.numerator" 
d="M375 489h-200c-5 0 -10 5 -10 10v57c0 5 5 10 10 10h200c6 0 10 -5 10 -10v-57c0 -5 -4 -10 -10 -10zM375 384h-200c-5 0 -10 5 -10 10v57c0 5 5 10 10 10h200c6 0 10 -5 10 -10v-57c0 -5 -4 -10 -10 -10z" />
    <glyph glyph-name="minus.numerator" 
d="M167 519h216c6 0 10 -5 10 -10v-57c0 -6 -4 -10 -10 -10h-216c-5 0 -10 4 -10 10v57c0 5 5 10 10 10z" />
    <glyph glyph-name="eight.denominator" 
d="M275 72c23 0 37 18 37 38s-14 35 -37 35s-37 -15 -37 -35s14 -38 37 -38zM275 214c18 0 33 15 33 33c0 16 -15 34 -33 34s-33 -18 -33 -34c0 -18 15 -33 33 -33zM274 359c65 0 115 -48 115 -107c0 -25 -11 -49 -26 -67c-4 -4 -4 -7 0 -10c17 -14 30 -44 30 -70
c0 -62 -53 -110 -118 -110s-118 48 -118 110c0 26 11 56 29 70c4 3 4 6 -1 10c-21 21 -26 42 -26 67c0 59 53 107 115 107z" />
    <glyph glyph-name="zero.denominator" 
d="M160 243c7 64 56 116 115 116c62 0 108 -59 114 -116c5 -44 5 -88 0 -132c-8 -64 -56 -116 -114 -116c-63 0 -109 59 -115 116c-5 43 -5 89 0 132zM275 274c-16 0 -26 -15 -27 -27c-4 -45 -4 -95 0 -140c2 -17 15 -26 27 -26c15 0 25 14 26 26c4 45 4 95 0 140
c-2 17 -15 27 -26 27z" />
    <glyph glyph-name="one.denominator" 
d="M243 90v142c0 9 -9 9 -13 5l-53 -40c-9 -7 -22 0 -22 12v55c0 8 -3 13 6 23l48 46c6 6 17 17 36 17h74c6 0 10 -4 10 -10v-250c0 -3 2 -5 5 -5h52c6 0 10 -5 10 -10v-65c0 -5 -4 -10 -10 -10h-216c-5 0 -10 5 -10 10v65c0 5 5 10 10 10h68c3 0 5 2 5 5z" />
    <glyph glyph-name="two.denominator" 
d="M303 252c0 12 -10 24 -27 24c-24 0 -30 -16 -30 -30v-9c0 -5 -5 -10 -10 -10h-64c-5 0 -10 6 -10 10v8c0 63 53 112 115 112c63 0 114 -40 114 -103c0 -30 -23 -61 -36 -74l-84 -84c-3 -3 -5 -11 6 -11h109c6 0 10 -6 10 -10v-65c0 -5 -5 -10 -10 -10h-217
c-5 0 -10 5 -10 10v79c0 7 2 10 4 12l107 106c20 19 33 33 33 45z" />
    <glyph glyph-name="three.denominator" 
d="M308 114c0 24 -21 33 -34 33h-6c-5 0 -10 5 -10 10v42c0 6 5 10 10 10h6c15 0 32 11 32 33c0 20 -13 33 -31 33c-17 0 -30 -13 -30 -28v-8c0 -5 -5 -10 -10 -10h-64c-6 0 -10 5 -10 10v8c0 62 53 112 114 112c62 0 113 -50 113 -112c0 -24 -11 -48 -24 -64
c-2 -3 -2 -6 0 -7c18 -14 27 -42 27 -66c0 -65 -52 -115 -116 -115c-63 0 -116 50 -116 115v6c0 5 5 10 10 10h63c6 0 10 -5 10 -10v-6c0 -18 13 -31 33 -31s33 12 33 35z" />
    <glyph glyph-name="four.denominator" 
d="M367 139h14c6 0 10 -4 10 -10v-58c0 -6 -4 -10 -10 -10h-14c-3 0 -5 -2 -5 -5v-46c0 -5 -5 -10 -10 -10h-61c-6 0 -10 5 -10 10v46c0 3 -2 5 -5 5h-108c-5 0 -10 4 -10 10v74c0 7 4 13 8 20l105 178c3 6 5 7 11 7h70c5 0 10 -4 10 -10v-196c0 -3 2 -5 5 -5zM274 214
l-35 -68c-2 -4 0 -7 4 -7h33c3 0 5 2 5 5v68c0 4 -5 5 -7 2z" />
    <glyph glyph-name="five.denominator" 
d="M366 267h-115c-3 0 -5 -2 -5 -5v-25c0 -8 5 -6 8 -5c4 2 12 6 26 6c67 0 111 -45 112 -119c1 -58 -38 -124 -118 -124c-63 0 -117 27 -117 106c0 6 5 10 10 10h63c6 0 10 -5 10 -10c0 -13 15 -20 30 -20c30 0 37 21 37 38s-5 42 -33 42c-11 0 -19 -3 -24 -6
c-3 -2 -7 -5 -14 -5h-65c-5 0 -10 5 -10 10v182c0 6 5 10 10 10h195c6 0 10 -4 10 -10v-65c0 -6 -4 -10 -10 -10z" />
    <glyph glyph-name="six.denominator" 
d="M293 235c67 0 101 -51 101 -119s-47 -121 -118 -121c-64 0 -110 51 -117 112c-5 44 -5 96 0 140c7 62 55 112 115 112c56 0 118 -44 118 -99c0 -6 -5 -10 -10 -10h-50c-10 0 -15 3 -18 9c-6 10 -15 23 -35 23c-19 0 -40 -13 -40 -32c0 -11 1 -21 13 -21c11 0 22 6 41 6z
M276 76c25 0 36 19 36 44c0 26 -15 40 -36 40c-27 0 -36 -21 -36 -40c0 -30 16 -44 36 -44z" />
    <glyph glyph-name="seven.denominator" 
d="M184 12l114 249c1 2 -1 5 -4 5h-120c-5 0 -10 4 -10 10v64c0 6 5 10 10 10h201c6 0 10 -4 10 -10v-80c0 -3 -1 -5 -3 -10l-108 -243c-2 -4 -5 -7 -10 -7h-71c-9 0 -11 8 -9 12z" />
    <glyph glyph-name="nine.denominator" 
d="M256 119c-67 0 -101 51 -101 119s47 121 118 121c64 0 110 -51 117 -112c5 -44 5 -96 0 -140c-7 -62 -55 -112 -115 -112c-56 0 -118 44 -118 99c0 6 5 10 10 10h50c10 0 15 -3 18 -9c6 -10 15 -23 35 -23c19 0 40 13 40 32c0 11 -1 21 -13 21c-11 0 -22 -6 -41 -6z
M273 278c-25 0 -36 -19 -36 -44c0 -26 15 -40 36 -40c27 0 36 21 36 40c0 30 -16 44 -36 44z" />
    <glyph glyph-name="plus.denominator" 
d="M175 515h55c3 0 5 2 5 5v55c0 6 5 10 10 10h59c5 0 10 -4 10 -10v-55c0 -3 2 -5 5 -5h56c6 0 10 -5 10 -10v-59c0 -5 -4 -10 -10 -10h-56c-3 0 -5 -2 -5 -5v-56c0 -5 -5 -10 -10 -10h-59c-5 0 -10 5 -10 10v56c0 3 -2 5 -5 5h-55c-5 0 -10 5 -10 10v59c0 5 5 10 10 10z
" />
    <glyph glyph-name="parenleft.denominator" 
d="M309 384h36c5 0 10 -4 10 -10v-59c0 -5 -5 -10 -10 -10h-36c-60 0 -105 40 -113 105c-5 40 -5 155 0 195c7 54 47 105 113 105h38c6 0 10 -4 10 -10v-59c0 -5 -4 -10 -10 -10h-38c-15 0 -27 2 -33 -26c-9 -41 -9 -154 0 -195c4 -20 11 -26 33 -26z" />
    <glyph glyph-name="parenright.denominator" 
d="M204 384h37c21 0 28 6 32 26c9 41 9 154 0 195c-6 28 -17 26 -32 26h-39c-5 0 -10 5 -10 10v59c0 6 5 10 10 10h39c66 0 105 -51 112 -105c5 -40 5 -155 0 -195c-8 -65 -52 -105 -112 -105h-37c-5 0 -10 5 -10 10v59c0 6 5 10 10 10z" />
    <glyph glyph-name="equal.denominator" 
d="M375 489h-200c-5 0 -10 5 -10 10v57c0 5 5 10 10 10h200c6 0 10 -5 10 -10v-57c0 -5 -4 -10 -10 -10zM375 384h-200c-5 0 -10 5 -10 10v57c0 5 5 10 10 10h200c6 0 10 -5 10 -10v-57c0 -5 -4 -10 -10 -10z" />
    <glyph glyph-name="minus.denominator" 
d="M167 519h216c6 0 10 -5 10 -10v-57c0 -6 -4 -10 -10 -10h-216c-5 0 -10 4 -10 10v57c0 5 5 10 10 10z" />
    <glyph glyph-name="nsuperior" unicode="&#x207f;" 
d="M232 588c15 0 30 18 56 18c53 0 91 -41 91 -92v-154c0 -5 -5 -10 -10 -10h-60c-6 0 -10 5 -10 10v155c0 7 -6 21 -25 21c-17 0 -24 -15 -24 -19v-157c0 -5 -4 -10 -10 -10h-60c-5 0 -10 5 -10 10v230c0 6 5 10 10 10h27c9 0 12 -5 15 -8s4 -4 10 -4z" />
    </font>
</defs>
</svg>
